<?xml version="1.0" encoding="utf-8"?>
<!-- Generator: Adobe Illustrator 27.5.0, SVG Export Plug-In . SVG Version: 6.00 Build 0)  -->
<svg version="1.1" xmlns="http://www.w3.org/2000/svg" xmlns:xlink="http://www.w3.org/1999/xlink" x="0px" y="0px"
	 viewBox="0 0 500 500" style="enable-background:new 0 0 500 500;" xml:space="preserve">
<g id="Background_Complete">
	<g>
		<rect y="382.398" style="fill:#EBEBEB;" width="500" height="0.25"/>
		<rect x="435" y="398.494" style="fill:#EBEBEB;" width="14.901" height="0.25"/>
		<rect x="322.527" y="401.208" style="fill:#EBEBEB;" width="8.693" height="0.25"/>
		<rect x="396.586" y="389.208" style="fill:#EBEBEB;" width="34.192" height="0.25"/>
		<rect x="66.438" y="394.369" style="fill:#EBEBEB;" width="43.193" height="0.25"/>
		<rect x="118.534" y="394.369" style="fill:#EBEBEB;" width="15.577" height="0.25"/>
		<rect x="161.079" y="391.014" style="fill:#EBEBEB;" width="93.676" height="0.25"/>
		<path style="fill:#EBEBEB;" d="M237.014,337.8H43.915c-3.147,0-5.708-2.561-5.708-5.708V60.66c0-3.147,2.561-5.708,5.708-5.708
			h193.099c3.146,0,5.707,2.561,5.707,5.708v271.432C242.721,335.239,240.16,337.8,237.014,337.8z M43.915,55.203
			c-3.01,0-5.458,2.448-5.458,5.458v271.432c0,3.01,2.448,5.458,5.458,5.458h193.099c3.009,0,5.457-2.448,5.457-5.458V60.66
			c0-3.009-2.448-5.458-5.457-5.458H43.915z"/>
		<path style="fill:#EBEBEB;" d="M453.31,337.8H260.212c-3.147,0-5.707-2.561-5.707-5.708V60.66c0-3.147,2.561-5.708,5.707-5.708
			H453.31c3.148,0,5.708,2.561,5.708,5.708v271.432C459.019,335.239,456.458,337.8,453.31,337.8z M260.212,55.203
			c-3.009,0-5.457,2.448-5.457,5.458v271.432c0,3.01,2.448,5.458,5.457,5.458H453.31c3.01,0,5.458-2.448,5.458-5.458V60.66
			c0-3.009-2.448-5.458-5.458-5.458H260.212z"/>
	</g>
	<g>
		<g>
			
				<rect x="214.475" y="254.528" transform="matrix(-1 -1.224647e-16 1.224647e-16 -1 447.572 636.9255)" style="fill:#E6E6E6;" width="18.622" height="127.87"/>
			<polygon style="fill:#F0F0F0;" points="221.03,382.398 214.475,382.398 214.475,358.097 227.903,358.097 			"/>
			
				<rect x="411.397" y="254.528" transform="matrix(-1 -1.224647e-16 1.224647e-16 -1 841.4169 636.9255)" style="fill:#E6E6E6;" width="18.622" height="127.87"/>
			
				<rect x="214.475" y="254.528" transform="matrix(-1 -1.224647e-16 1.224647e-16 -1 631.593 630.2928)" style="fill:#F0F0F0;" width="202.643" height="121.238"/>
			<polygon style="fill:#F0F0F0;" points="410.563,382.398 417.118,382.398 417.118,358.097 403.69,358.097 			"/>
			<g>
				
					<rect x="330.199" y="284.677" transform="matrix(6.123234e-17 -1 1 6.123234e-17 65.6329 695.0563)" style="fill:#E6E6E6;" width="100.291" height="60.07"/>
				<path style="fill:#F0F0F0;" d="M374.404,268.094h11.884c5.162,0,10.097-1.855,13.647-5.13l0,0h-39.179l0,0
					C364.307,266.239,369.242,268.094,374.404,268.094z"/>
			</g>
			<g>
				
					<rect x="265.651" y="284.677" transform="matrix(6.123234e-17 -1 1 6.123234e-17 1.0844 630.5078)" style="fill:#E6E6E6;" width="100.291" height="60.07"/>
				<path style="fill:#F0F0F0;" d="M309.248,268.094h11.884c5.162,0,10.097-1.855,13.648-5.13l0,0h-39.179l0,0
					C299.151,266.239,304.086,268.094,309.248,268.094z"/>
			</g>
			<g>
				
					<rect x="201.102" y="284.677" transform="matrix(6.123234e-17 -1 1 6.123234e-17 -63.4641 565.9594)" style="fill:#E6E6E6;" width="100.291" height="60.07"/>
				<path style="fill:#F0F0F0;" d="M244.7,268.094h11.884c5.162,0,10.097-1.855,13.647-5.13l0,0h-39.179l0,0
					C234.603,266.239,239.538,268.094,244.7,268.094z"/>
			</g>
		</g>
		<g>
			<g>
				
					<rect x="69.98" y="96.778" transform="matrix(-1 -1.224647e-16 1.224647e-16 -1 267.0207 479.1762)" style="fill:#F0F0F0;" width="127.06" height="285.621"/>
				
					<rect x="69.98" y="96.778" transform="matrix(-1 -1.224647e-16 1.224647e-16 -1 264.3392 479.1762)" style="fill:#F5F5F5;" width="124.378" height="285.621"/>
				
					<rect x="-4.159" y="184.979" transform="matrix(-1.836970e-16 1 -1 -1.836970e-16 371.7578 107.4188)" style="fill:#F0F0F0;" width="272.658" height="109.219"/>
				<path style="fill:#FAFAFA;" d="M176.046,153.967L176.046,153.967c0-16.445-13.331-29.776-29.776-29.776h-28.201
					c-16.445,0-29.776,13.331-29.776,29.776l0,0H176.046z"/>
				
					<rect x="99.601" y="282.523" transform="matrix(-1.836970e-16 1 -1 -1.836970e-16 458.5691 194.2301)" style="fill:#F5F5F5;" width="65.137" height="87.754"/>
				<rect x="137.34" y="172.333" style="fill:#F5F5F5;" width="38.707" height="113.094"/>
				<rect x="88.293" y="172.333" style="fill:#F5F5F5;" width="38.707" height="113.094"/>
				<path style="fill:#E0E0E0;" d="M102.331,228.372H86.477c-1.353,0-2.459-1.107-2.459-2.459l0,0c0-1.352,1.107-2.459,2.459-2.459
					h15.854c1.352,0,2.459,1.107,2.459,2.459l0,0C104.79,227.266,103.683,228.372,102.331,228.372z"/>
				
					<rect x="-57.786" y="238.605" transform="matrix(-1.836970e-16 1 -1 -1.836970e-16 318.1311 161.0455)" style="fill:#F0F0F0;" width="272.658" height="1.966"/>
			</g>
		</g>
		<g>
			<g>
				<g>
					
						<rect x="277.408" y="96.778" transform="matrix(-1 -1.224647e-16 1.224647e-16 -1 689.5606 319.9571)" style="fill:#E6E6E6;" width="134.745" height="126.401"/>
					
						<rect x="274.011" y="96.778" transform="matrix(-1 -1.224647e-16 1.224647e-16 -1 682.7672 319.9571)" style="fill:#F5F5F5;" width="134.745" height="126.401"/>
					
						<rect x="266.145" y="223.179" transform="matrix(-1 -1.224647e-16 1.224647e-16 -1 678.2979 453.6756)" style="fill:#E6E6E6;" width="146.008" height="7.317"/>
					
						<rect x="262.321" y="223.179" transform="matrix(-1 -1.224647e-16 1.224647e-16 -1 663.1304 453.6756)" style="fill:#F5F5F5;" width="138.488" height="7.317"/>
					
						<rect x="284.758" y="98.703" transform="matrix(-1.836970e-16 1 -1 -1.836970e-16 501.3622 -181.405)" style="fill:#FFFFFF;" width="113.251" height="122.551"/>
					
						<rect x="284.758" y="156.582" transform="matrix(-1.836970e-16 1 -1 -1.836970e-16 501.3622 -181.405)" style="fill:#F5F5F5;" width="113.251" height="6.793"/>
					
						<rect x="224.766" y="158.695" transform="matrix(-1.836970e-16 1 -1 -1.836970e-16 441.3706 -121.4134)" style="fill:#E6E6E6;" width="113.251" height="2.568"/>
					
						<rect x="289.439" y="158.695" transform="matrix(-1.836970e-16 1 -1 -1.836970e-16 506.0428 -186.0856)" style="fill:#E6E6E6;" width="113.251" height="2.568"/>
				</g>
			</g>
		</g>
		<g>
			<g>
				<path style="fill:#E6E6E6;" d="M295.521,226.531c-2.478-25.676-4.203-67.341-2.864-81.277c0.047-0.484,0.303-0.919,0.696-1.206
					l0,0c1.155-0.842,2.773,0.008,2.724,1.436c-0.236,6.905-0.507,24.163,0.963,53.936c0.732,14.82,1.787,24.97,1.062,27.111
					H295.521z"/>
				<path style="fill:#E6E6E6;" d="M286.284,167.345c-7.055-7.835-21.467-13.407-36.153-13.378
					c-5.766,0.011,17.541,9.115,27.233,19.161c7.53,7.804,16.019,20.932,18.906,28.219
					C294.403,186.015,293.339,175.181,286.284,167.345z"/>
				<path style="fill:#E6E6E6;" d="M300.27,169.736c5.859-8.161,19.386-14.436,34.02-15.145c5.746-0.278-16.114,9.962-24.271,20.458
					c-6.337,8.153-12.835,21.659-14.623,29.063C294.967,188.744,294.41,177.897,300.27,169.736z"/>
				<path style="fill:#E6E6E6;" d="M285.969,138.736c-5.974-6.635-18.178-11.353-30.613-11.328
					c-4.882,0.01,14.853,7.718,23.061,16.225c6.376,6.608,13.564,17.725,16.009,23.895
					C292.844,154.545,291.943,145.371,285.969,138.736z"/>
				<path style="fill:#E6E6E6;" d="M297.811,148.548c4.962-6.91,16.415-12.224,28.807-12.825
					c4.865-0.236-13.645,8.436-20.552,17.323c-5.366,6.904-10.868,18.34-12.382,24.61
					C293.321,164.643,292.85,155.459,297.811,148.548z"/>
			</g>
			<g>
				<path style="fill:#E6E6E6;" d="M296.516,254.528L296.516,254.528c-7.73,0-14.118-6.031-14.562-13.748l-1.288-22.324h31.7
					l-1.288,22.324C310.634,248.497,304.246,254.528,296.516,254.528z"/>
				<polygon style="fill:#E6E6E6;" points="314.418,223.529 278.613,223.529 277.588,214.24 315.444,214.24 				"/>
			</g>
		</g>
	</g>
</g>
<g id="Background_Simple" style="display:none;">
	<g style="display:inline;">
		<path style="fill:#407BFF;" d="M95.701,300.528c2.026,71.245,133.209,63.413,195.049,33.276
			c78.241-38.129,110.261-97.593,87.068-166.141c-22.982-67.923-112.427-82.567-161.267-35.31
			c-24.075,23.294-36.824,55.694-60.633,79.547C127.651,240.218,94.435,256.006,95.701,300.528z"/>
		<path style="opacity:0.9;fill:#FFFFFF;" d="M95.701,300.528c2.026,71.245,133.209,63.413,195.049,33.276
			c78.241-38.129,110.261-97.593,87.068-166.141c-22.982-67.923-112.427-82.567-161.267-35.31
			c-24.075,23.294-36.824,55.694-60.633,79.547C127.651,240.218,94.435,256.006,95.701,300.528z"/>
	</g>
</g>
<g id="Shadow_1_">
	<ellipse id="_x3C_Path_x3E__196_" style="fill:#F5F5F5;" cx="250" cy="416.238" rx="193.889" ry="11.323"/>
</g>
<g id="Character_1_">
	<g>
		<polygon style="fill:#FFC3BD;" points="253.912,405.418 245.563,406.357 242.484,387.423 250.833,386.483 		"/>
		<polygon style="fill:#FFC3BD;" points="291.292,407.236 282.955,407.236 280.879,387.929 289.216,387.929 		"/>
		<path style="fill:#263238;" d="M282.27,406.271h10.164c0.341,0,0.636,0.237,0.71,0.569l1.647,7.411
			c0.171,0.769-0.433,1.496-1.221,1.483c-3.27-0.056-5.656-0.248-9.776-0.248c-2.534,0-10.176,0.263-13.676,0.263
			c-3.423,0-3.956-3.46-2.524-3.774c6.424-1.405,11.264-3.343,13.321-5.192C281.287,406.45,281.771,406.271,282.27,406.271z"/>
		<path style="fill:#263238;" d="M245.425,404.927l9.047-1.026c0.339-0.038,0.659,0.164,0.77,0.486l2.472,7.178
			c0.256,0.744-0.241,1.533-1.025,1.609c-3.27,0.315-8.007,0.658-12.109,1.123c-4.796,0.544-5.595,1.829-11.254,1.696
			c-3.422-0.08-4.29-3.562-2.851-3.842c6.554-1.273,7.82-2.265,13.029-6.353C244.069,405.354,244.71,405.008,245.425,404.927z"/>
		<path style="fill:#FFC3BD;" d="M252.789,162.251c-2.8,2.312-5.557,4.322-8.409,6.381c-2.842,2.033-5.762,3.969-8.759,5.824
			c-3.001,1.847-6.073,3.626-9.297,5.238c-3.225,1.618-6.559,3.129-10.26,4.281c-0.934,0.299-1.844,0.544-2.895,0.798
			c-1.224,0.279-2.135,0.376-3.108,0.499c-1.877,0.209-3.645,0.292-5.406,0.374c-3.51,0.161-6.956,0.157-10.396,0.134
			c-6.88-0.083-13.702-0.414-20.555-1.02l-0.104-6.259c6.73-0.867,13.488-1.617,20.177-2.367c3.343-0.364,6.679-0.77,9.937-1.197
			c1.621-0.219,3.234-0.478,4.718-0.754c0.704-0.14,1.475-0.299,1.896-0.446c0.587-0.194,1.307-0.43,1.973-0.699
			c2.722-1.068,5.537-2.497,8.307-4.063c2.767-1.588,5.534-3.292,8.255-5.104c2.73-1.798,5.426-3.689,8.111-5.603
			c2.67-1.895,5.365-3.942,7.883-5.856L252.789,162.251z"/>
		<path style="fill:#407BFF;" d="M260.94,155.125c-1.198,7.881-17.793,19.938-17.793,19.938l-11.903-14.777
			c0,0,8.579-9.232,16.562-15.76C253.162,140.146,262.243,146.55,260.94,155.125z"/>
		<path style="fill:#FFC3BD;" d="M175.9,179.18l-4.733-3.371l-0.519,10.647c0,0,2.622,0,3.629-1.912L175.9,179.18z"/>
		<polygon style="fill:#FFC3BD;" points="166.887,172.71 165.917,183.144 170.648,186.456 171.167,175.81 		"/>
		<g>
			<polygon style="opacity:0.2;" points="242.486,387.428 244.072,397.188 252.424,396.248 250.839,386.488 			"/>
			<polygon style="opacity:0.2;" points="289.219,387.934 280.878,387.934 281.952,397.886 290.293,397.886 			"/>
		</g>
		<path style="fill:#263238;" d="M289.339,144.779c2.621,0.586,4.225,3.205,3.585,5.814c-1.891,7.701-3.181,15.435-4.082,22.787
			c-0.788,6.46-1.262,12.626-1.556,18.217c-0.693,13.105-0.405,23.097-0.795,26.481c-6.519-0.452-31.087-2.161-44.483-3.098
			c-4.522-35.399,0.776-57.989,3.754-67.17c0.945-2.914,3.461-5.045,6.498-5.44c1.708-0.223,3.75-0.44,5.905-0.566
			c0.754-0.049,1.52-0.075,2.299-0.091c5.038-0.107,13.251,0.649,18.912,1.316c1.19,0.141,2.394,0.316,3.564,0.504
			C285.274,143.913,287.497,144.367,289.339,144.779z"/>
		<path style="fill:#FFC3BD;" d="M278.987,121.606c-1.617,6.001-3.586,17.067,0.387,21.424c-10.31,6.936-16.893,16.7-18.792,14.579
			c-0.993-1.109-1.426-13.952-0.118-15.898c6.898-1.147,7.074-6.193,6.222-11.003L278.987,121.606z"/>
		<path style="fill:#407BFF;" d="M278.576,140.542c0,0-16.802,7.436-19.031,24.062c4.629-5.36,14.853-11.191,14.853-11.191
			l-4.51-1.296c0,0,4.035-1.62,8.865-2.386c-0.501-2.297,2.167-6.876,2.167-6.876L278.576,140.542z"/>
		<path style="fill:#407BFF;" d="M263.415,140.273c0,0,2.239,9.495-3.87,24.33c-0.945-5.663-4.935-15.138-4.935-15.138l4.115,1.119
			c0,0-0.206-1.914-3.534-4.462c1.237-2.385,5.115-5.192,5.115-5.192L263.415,140.273z"/>
		<path style="opacity:0.2;" d="M273.972,125.32l-7.28,5.383c0.206,1.139,0.347,2.289,0.349,3.397
			c2.618-0.194,6.378-2.79,6.842-5.485C274.114,127.271,274.148,125.966,273.972,125.32z"/>
		<path style="fill:#263238;" d="M257.636,104.228c-4.066,0.175-6.31,7.186-2.183,12.959
			C259.58,122.959,263.114,103.993,257.636,104.228z"/>
		<path style="fill:#FFC3BD;" d="M277.687,110.397c0.482,8.26,1.184,13.07-2.451,17.777c-5.468,7.08-16.041,4.541-18.982-3.408
			c-2.647-7.156-2.991-19.462,4.643-23.69C268.419,96.91,277.205,102.137,277.687,110.397z"/>
		<path style="fill:#263238;" d="M278.899,116.745c-6.257-4.02-8.466-9.277-8.952-11.928c-2.43,0.574-14.49,6.126-18.201,0
			c-3.711-6.126,0.959-9.719,7.901-5.949c-3.071-5.419-0.278-8.07,9.369-8.305c9.648-0.236,8.352,5.36,8.352,5.36
			s7.304-3.181,9.896,2.415C290.249,104.782,284.729,115.773,278.899,116.745z"/>
		<path style="fill:#263238;" d="M275.72,94.444c0.088,0,3.654,0.858,7.763-3.278c-0.736,3.528-7.115,5.875-7.115,5.875
			L275.72,94.444z"/>
		<path style="fill:#263238;" d="M280.514,106.528c-3.847-1.329-8.507,4.369-6.786,11.254
			C275.449,124.666,285.696,108.319,280.514,106.528z"/>
		<path style="fill:#FFC3BD;" d="M282.691,117.268c-0.356,2.202-1.696,4.035-3.2,5.084c-2.262,1.578-4.3-0.226-4.431-2.836
			c-0.118-2.349,0.917-6.001,3.553-6.54C281.21,112.445,283.098,114.75,282.691,117.268z"/>
		<g>
			<path style="fill:#407BFF;" d="M254.545,308.915c2.003-24.386,16.702-91.896,16.702-91.896l-29.245-2.038
				c0,0-11.277,67.013-12.14,92.444c-0.9,26.442,9.735,85.212,9.735,85.212l14.026-1.597
				C253.623,391.039,252.534,333.403,254.545,308.915z"/>
			<path style="opacity:0.5;fill:#FFFFFF;" d="M254.545,308.915c2.003-24.386,16.702-91.896,16.702-91.896l-29.245-2.038
				c0,0-11.277,67.013-12.14,92.444c-0.9,26.442,9.735,85.212,9.735,85.212l14.026-1.597
				C253.623,391.039,252.534,333.403,254.545,308.915z"/>
		</g>
		<path style="opacity:0.2;" d="M260.228,239.882c-5.895,7.538-6.001,34.013-3.721,53.574c2.174-14.112,5.598-32.03,8.599-46.969
			L260.228,239.882z"/>
		<g>
			<path style="fill:#407BFF;" d="M257.781,216.08c0,0,3.156,71.378,6.676,95.552c3.854,26.472,13.643,84.327,13.643,84.327h15.27
				c0,0-2.512-54.492-4.527-80.498c-2.296-29.622-2.357-97.378-2.357-97.378L257.781,216.08z"/>
			<path style="opacity:0.5;fill:#FFFFFF;" d="M257.781,216.08c0,0,3.156,71.378,6.676,95.552
				c3.854,26.472,13.643,84.327,13.643,84.327h15.27c0,0-2.512-54.492-4.527-80.498c-2.296-29.622-2.357-97.378-2.357-97.378
				L257.781,216.08z"/>
		</g>
		<polygon style="fill:#407BFF;" points="276.272,396.289 294.253,396.289 294.253,390.917 274.153,390.568 		"/>
		<polygon style="fill:#407BFF;" points="238.984,394.216 255.7,392.32 255.088,386.92 236.37,388.754 		"/>
		<path style="fill:#263238;" d="M265.525,114.184c0.08,0.668-0.208,1.252-0.645,1.304c-0.436,0.052-0.855-0.446-0.936-1.114
			c-0.08-0.668,0.208-1.251,0.645-1.304C265.026,113.018,265.445,113.517,265.525,114.184z"/>
		<path style="fill:#263238;" d="M257.979,115.091c0.08,0.668-0.208,1.251-0.645,1.304c-0.436,0.052-0.855-0.446-0.936-1.114
			c-0.08-0.668,0.208-1.251,0.645-1.304S257.898,114.424,257.979,115.091z"/>
		<path style="fill:#ED847E;" d="M260.418,115.135c0,0-1.055,4.034-2.503,6.094c1.314,0.961,3.261,0.215,3.261,0.215
			L260.418,115.135z"/>
		<path style="fill:#263238;" d="M267.576,111.463c-0.138,0.042-0.294,0.008-0.4-0.104c-1.222-1.268-2.655-1.01-2.669-1.007
			c-0.214,0.041-0.421-0.099-0.462-0.314c-0.041-0.214,0.09-0.422,0.314-0.462c0.076-0.014,1.87-0.338,3.387,1.235
			c0.151,0.157,0.147,0.407-0.01,0.558C267.687,111.414,267.633,111.445,267.576,111.463z"/>
		<path style="fill:#263238;" d="M264.676,124.108c0.001,0,0.003-0.001,0.004-0.001c3.313-0.796,4.285-3.432,4.324-3.544
			c0.039-0.111-0.018-0.232-0.129-0.271c-0.11-0.039-0.232,0.018-0.271,0.129c-0.009,0.025-0.942,2.533-4.023,3.273
			c-0.114,0.027-0.185,0.142-0.157,0.256C264.451,124.063,264.563,124.133,264.676,124.108z"/>
		<path style="fill:#263238;" d="M254.431,112.882c-0.077,0.023-0.162,0.024-0.244-0.005c-0.206-0.071-0.316-0.296-0.244-0.502
			c0.713-2.065,2.474-2.53,2.552-2.546c0.212-0.053,0.426,0.076,0.479,0.287c0.052,0.211-0.086,0.428-0.285,0.478l0,0
			c-0.059,0.02-1.429,0.388-1.999,2.038C254.647,112.757,254.548,112.846,254.431,112.882z"/>
		<path style="fill:#407BFF;" d="M279.513,407.728c-0.634,0-1.228-0.108-1.606-0.425c-0.298-0.251-0.436-0.602-0.408-1.044
			c0.021-0.328,0.195-0.485,0.339-0.558c0.926-0.476,3.612,1.179,3.915,1.368c0.068,0.042,0.103,0.121,0.091,0.199
			c-0.013,0.078-0.072,0.141-0.149,0.16C281.115,407.568,280.284,407.728,279.513,407.728z M278.274,406.002
			c-0.103,0-0.19,0.016-0.257,0.05c-0.053,0.027-0.115,0.078-0.125,0.232c-0.02,0.314,0.068,0.549,0.268,0.717
			c0.457,0.383,1.544,0.435,2.96,0.15C280.18,406.606,278.913,406.002,278.274,406.002z"/>
		<path style="fill:#407BFF;" d="M281.648,407.434c-0.032,0-0.065-0.008-0.095-0.023c-0.863-0.469-2.531-2.296-2.354-3.225
			c0.032-0.169,0.156-0.46,0.629-0.518c0.305-0.036,0.589,0.048,0.841,0.254c0.968,0.792,1.168,3.198,1.176,3.299
			c0.006,0.073-0.029,0.142-0.089,0.181C281.723,407.423,281.685,407.434,281.648,407.434z M279.965,404.054
			c-0.03,0-0.059,0.002-0.089,0.005c-0.257,0.031-0.279,0.149-0.288,0.199c-0.104,0.549,0.958,1.929,1.816,2.581
			c-0.097-0.703-0.363-2.105-0.984-2.613C280.277,404.111,280.127,404.054,279.965,404.054z"/>
		<path style="fill:#407BFF;" d="M244.747,406.16c-0.01,0.005-0.021,0.01-0.032,0.014c-1.305,0.417-3.643,1.012-4.641,0.311
			c-0.301-0.211-0.461-0.518-0.476-0.913c-0.009-0.235,0.083-0.429,0.265-0.559c0.939-0.659,4.464,0.637,4.862,0.788
			c0.079,0.03,0.129,0.106,0.127,0.19C244.85,406.063,244.809,406.127,244.747,406.16z M240.14,405.305
			c-0.017,0.009-0.033,0.019-0.048,0.029c-0.074,0.053-0.104,0.12-0.1,0.224c0.01,0.268,0.11,0.466,0.307,0.604
			c0.561,0.393,1.933,0.318,3.728-0.193C242.628,405.486,240.718,404.997,240.14,405.305z"/>
		<path style="fill:#407BFF;" d="M244.747,406.16c-0.046,0.025-0.101,0.031-0.153,0.014c-1.051-0.335-3.235-1.902-3.189-2.856
			c0.011-0.223,0.138-0.516,0.668-0.631c0.396-0.086,0.775-0.014,1.127,0.213c1.152,0.746,1.628,2.952,1.647,3.046
			c0.014,0.069-0.008,0.14-0.06,0.187C244.775,406.143,244.762,406.152,244.747,406.16z M241.941,403.146
			c-0.136,0.073-0.14,0.157-0.141,0.191c-0.027,0.572,1.479,1.827,2.569,2.325c-0.18-0.64-0.627-1.941-1.383-2.431
			c-0.263-0.171-0.534-0.222-0.827-0.159C242.062,403.093,241.992,403.118,241.941,403.146z"/>
		<g>
			<path style="fill:#FFC3BD;" d="M296.365,156.804c-0.211,3.257-0.595,6.29-0.992,9.42c-0.395,3.107-0.932,6.201-1.519,9.298
				c-1.213,6.188-2.739,12.37-5.128,18.573l-0.991,2.334l-0.251,0.582l-0.063,0.145l-0.103,0.221l-0.29,0.575
				c-0.408,0.733-0.882,1.404-1.375,1.949c-0.995,1.123-2.027,1.888-3.014,2.482c-0.99,0.594-1.942,1.029-2.864,1.39
				c-3.669,1.399-6.986,1.828-10.267,2.143c-6.547,0.524-12.756,0.181-19.077-0.713l0.229-6.256l4.411-0.498
				c1.479-0.176,2.95-0.401,4.412-0.598c2.92-0.431,5.809-0.91,8.564-1.55c2.727-0.624,5.435-1.435,7.375-2.447
				c0.94-0.479,1.639-1.119,1.609-1.232c0.027-0.144-0.293,0.485,0.082-0.518l0.659-1.927c1.621-5.313,2.776-11.059,3.7-16.862
				c0.474-2.903,0.88-5.831,1.272-8.765c0.394-2.911,0.715-5.932,1.021-8.747L296.365,156.804z"/>
			<path style="fill:#407BFF;" d="M297.101,150.758c4.082,6.847,0.597,28.363,0.597,28.363l-21.393-3.953
				c0,0-1.159-12.316,2.913-21.779C283.652,143.08,292.156,142.464,297.101,150.758z"/>
			<g>
				<path style="fill:#263238;" d="M244.682,218.296l-11.35-52.793c-0.97-4.513-5.416-8.172-9.929-8.172h-35.316h-8.172
					c4.513,0,8.958,3.659,9.929,8.172l11.35,52.793c0.97,4.513,5.416,8.172,9.929,8.172h35.316h8.172
					C250.098,226.468,245.652,222.809,244.682,218.296z"/>
				<path style="opacity:0.7;fill:#407BFF;" d="M244.682,218.296l-11.35-52.793c-0.97-4.513-5.416-8.172-9.929-8.172h-35.316h-8.172
					c4.513,0,8.958,3.659,9.929,8.172l11.35,52.793c0.97,4.513,5.416,8.172,9.929,8.172h35.316h8.172
					C250.098,226.468,245.652,222.809,244.682,218.296z"/>
				
					<rect x="156.02" y="227.766" transform="matrix(0.0918 -0.9958 0.9958 0.0918 -79.9725 368.8502)" style="fill:#407BFF;" width="12.393" height="1"/>
				
					<rect x="158.353" y="241.431" transform="matrix(0.0918 -0.9958 0.9958 0.0918 -94.7218 380.0101)" style="fill:#407BFF;" width="5.214" height="1"/>
				<path style="fill:#407BFF;" d="M179.916,157.331h35.316h8.172c-4.513,0-8.504,3.659-8.915,8.172l-11.282,122.678
					c-0.411,4.513-4.402,8.172-8.915,8.172h-27.144c-4.513,0-7.839-3.659-7.429-8.172l11.282-122.678
					C171.412,160.99,175.403,157.331,179.916,157.331z"/>
				<g>
					<path style="fill:#263238;" d="M186.863,288.181c-0.41,4.513,2.915,8.172,7.429,8.172h-8.172h-35.316
						c-4.513,0-7.839-3.659-7.429-8.172H186.863z"/>
					<path style="opacity:0.7;fill:#407BFF;" d="M186.863,288.181c-0.41,4.513,2.915,8.172,7.429,8.172h-8.172h-35.316
						c-4.513,0-7.839-3.659-7.429-8.172H186.863z"/>
				</g>
				<g style="opacity:0.5;">
					<path style="fill:#FFFFFF;" d="M206.952,171.076h-29.427c-0.979,0-1.706-0.801-1.617-1.779l0,0
						c0.089-0.979,0.962-1.779,1.941-1.779h29.427c0.979,0,1.706,0.801,1.617,1.779l0,0
						C208.804,170.276,207.93,171.076,206.952,171.076z"/>
					<path style="fill:#FFFFFF;" d="M206.076,180.702H176.65c-0.979,0-1.706-0.801-1.617-1.779l0,0
						c0.089-0.979,0.962-1.779,1.941-1.779H206.4c0.979,0,1.706,0.801,1.617,1.779l0,0
						C207.928,179.902,207.055,180.702,206.076,180.702z"/>
					<path style="fill:#FFFFFF;" d="M197.988,190.329h-22.214c-0.979,0-1.706-0.801-1.617-1.779v0
						c0.089-0.979,0.962-1.779,1.941-1.779h22.214c0.979,0,1.706,0.801,1.617,1.779v0
						C199.84,189.528,198.966,190.329,197.988,190.329z"/>
					<path style="fill:#FFFFFF;" d="M182.433,199.955h-7.534c-0.979,0-1.706-0.801-1.617-1.779l0,0
						c0.089-0.979,0.962-1.779,1.941-1.779h7.534c0.979,0,1.706,0.801,1.617,1.779l0,0
						C184.285,199.154,183.411,199.955,182.433,199.955z"/>
					<path style="fill:#FFFFFF;" d="M203.45,209.581h-29.427c-0.979,0-1.706-0.801-1.617-1.779l0,0
						c0.089-0.979,0.962-1.779,1.941-1.779h29.427c0.979,0,1.706,0.801,1.617,1.779l0,0
						C205.302,208.78,204.429,209.581,203.45,209.581z"/>
					<path style="fill:#FFFFFF;" d="M190.985,219.207h-17.837c-0.979,0-1.706-0.801-1.617-1.779l0,0
						c0.089-0.979,0.962-1.779,1.941-1.779h17.837c0.979,0,1.706,0.801,1.617,1.779l0,0
						C192.837,218.406,191.963,219.207,190.985,219.207z"/>
					<path style="fill:#FFFFFF;" d="M201.699,228.833h-29.427c-0.979,0-1.706-0.801-1.617-1.779l0,0
						c0.089-0.979,0.962-1.779,1.941-1.779h29.427c0.979,0,1.706,0.801,1.617,1.779l0,0
						C203.551,228.033,202.678,228.833,201.699,228.833z"/>
					<path style="fill:#FFFFFF;" d="M193.611,238.459h-22.214c-0.979,0-1.706-0.801-1.617-1.779l0,0
						c0.089-0.979,0.962-1.779,1.941-1.779h22.214c0.979,0,1.706,0.801,1.617,1.779l0,0
						C195.463,237.659,194.589,238.459,193.611,238.459z"/>
					<path style="fill:#FFFFFF;" d="M178.056,248.085h-7.534c-0.979,0-1.706-0.801-1.617-1.779l0,0
						c0.089-0.979,0.962-1.779,1.941-1.779h7.534c0.979,0,1.706,0.801,1.617,1.779l0,0
						C179.908,247.285,179.034,248.085,178.056,248.085z"/>
					<path style="fill:#FFFFFF;" d="M199.073,257.712h-29.427c-0.979,0-1.706-0.801-1.617-1.779l0,0
						c0.089-0.979,0.962-1.779,1.941-1.779h29.427c0.979,0,1.706,0.801,1.617,1.779l0,0
						C200.925,256.911,200.052,257.712,199.073,257.712z"/>
					<path style="fill:#FFFFFF;" d="M186.608,267.338h-17.837c-0.979,0-1.706-0.801-1.617-1.779l0,0
						c0.089-0.978,0.962-1.779,1.941-1.779h17.837c0.979,0,1.706,0.801,1.617,1.779l0,0
						C188.46,266.537,187.586,267.338,186.608,267.338z"/>
					<path style="fill:#FFFFFF;" d="M197.322,276.964h-29.427c-0.978,0-1.706-0.801-1.617-1.779l0,0
						c0.089-0.978,0.962-1.779,1.941-1.779h29.427c0.979,0,1.706,0.801,1.617,1.779l0,0
						C199.174,276.163,198.301,276.964,197.322,276.964z"/>
				</g>
			</g>
			<path style="fill:#FFC3BD;" d="M253.23,199.624l-6.389-5.551l-2.995,10.22c0,0,6.489,3.518,8.736,0.288L253.23,199.624z"/>
			<polygon style="fill:#FFC3BD;" points="239.888,193.673 237.809,202.235 243.846,204.293 246.841,194.074 			"/>
		</g>
	</g>
</g>
</svg>
