<svg width="500" height="500" viewBox="0 0 500 500" fill="none" xmlns="http://www.w3.org/2000/svg">
<path d="M500 382.398H0V382.648H500V382.398Z" fill="#6A69A0"/>
<path d="M78.217 393.563H51.646V393.813H78.217V393.563Z" fill="#6A69A0"/>
<path d="M87.834 388.563H64.932V388.813H87.834V388.563Z" fill="#6A69A0"/>
<path d="M325.408 389.299H263.962V389.549H325.408V389.299Z" fill="#6A69A0"/>
<path d="M345.907 389.299H331.167V389.549H345.907V389.299Z" fill="#6A69A0"/>
<path d="M429.718 391.007H381.061V391.257H429.718V391.007Z" fill="#6A69A0"/>
<path d="M193.167 395H106.538V395.25H193.167V395Z" fill="#6A69A0"/>
<path d="M445.586 391.007H438.5V391.257H445.586V391.007Z" fill="#6A69A0"/>
<path d="M237.014 337.8H43.915C40.768 337.8 38.207 335.239 38.207 332.092V60.66C38.207 57.513 40.768 54.952 43.915 54.952H237.014C240.16 54.952 242.721 57.513 242.721 60.66V332.092C242.721 335.239 240.16 337.8 237.014 337.8ZM43.915 55.203C40.905 55.203 38.457 57.651 38.457 60.661V332.093C38.457 335.103 40.905 337.551 43.915 337.551H237.014C240.023 337.551 242.471 335.103 242.471 332.093V60.66C242.471 57.651 240.023 55.202 237.014 55.202L43.915 55.203Z" fill="#6A69A0"/>
<path d="M453.31 337.8H260.212C257.066 337.8 254.505 335.239 254.505 332.092V60.66C254.505 57.513 257.066 54.952 260.212 54.952H453.31C456.458 54.952 459.018 57.513 459.018 60.66V332.092C459.019 335.239 456.458 337.8 453.31 337.8ZM260.212 55.203C257.203 55.203 254.755 57.651 254.755 60.661V332.093C254.755 335.103 257.203 337.551 260.212 337.551H453.31C456.32 337.551 458.768 335.103 458.768 332.093V60.66C458.768 57.651 456.32 55.202 453.31 55.202L260.212 55.203Z" fill="#6A69A0"/>
<path d="M153.438 210.413C156.222 198.334 148.687 186.284 136.608 183.5C124.528 180.716 112.479 188.252 109.695 200.331C106.911 212.41 114.446 224.46 126.526 227.244C138.605 230.028 150.654 222.492 153.438 210.413Z" fill="#C3D6F5"/>
<path d="M284.585 200.74C281.787 194.695 284.008 190.391 290.847 190.391C295.136 190.391 300.454 192.085 305.632 194.843C306.217 193.271 307.865 192.328 310.515 192.328C315.18 192.328 321.61 195.239 326.655 199.347C327.876 198.431 329.642 197.87 331.912 197.78C336.376 197.595 341.784 199.268 346.485 201.988C346.892 201.533 347.591 201.247 348.554 201.205C351.127 201.099 354.609 202.788 356.339 204.974C356.447 205.112 356.542 205.244 356.638 205.376H351.294H347.043H332.274H325.006H319.355H310.651H309.071H287.479H281.112C278.724 203.235 281.362 200.848 284.585 200.74Z" fill="#F3F8FF"/>
<path d="M137.444 247.173L199.323 233V382.398H137.444V247.173Z" fill="#F3F8FF"/>
<path d="M231.437 233H199.323V382.398H231.437V233Z" fill="#C3D6F5"/>
<path d="M220.942 382.398H273.609V197.269H220.942L220.942 382.398Z" fill="#F3F8FF"/>
<path d="M300.942 197.269H273.609V382.398H300.942V197.269Z" fill="#C3D6F5"/>
<path d="M228.029 197.269H273.609V183.514H228.029V197.269Z" fill="#F3F8FF"/>
<path d="M228.029 197.269H273.609V194.18H228.029V197.269Z" fill="#C3D6F5"/>
<path d="M293.856 183.514H273.609V197.269H293.856V183.514Z" fill="#C3D6F5"/>
<path d="M235.116 183.514H273.609V169.759H235.116V183.514Z" fill="#F3F8FF"/>
<path d="M235.116 183.514H273.609V180.425H235.116V183.514Z" fill="#C3D6F5"/>
<path d="M286.769 169.758H273.609V183.513H286.769V169.758Z" fill="#C3D6F5"/>
<path d="M262.22 150.535H259.664V169.758H262.22V150.535Z" fill="#C3D6F5"/>
<path d="M292.216 382.399H330.676V221.334H292.216V382.399Z" fill="#F3F8FF"/>
<path d="M350.636 221.333H330.676V382.398H350.636V221.333Z" fill="#C3D6F5"/>
<path d="M340.657 254L369.822 279V382.398H340.657V254Z" fill="#F3F8FF"/>
<path d="M384.959 279H369.822V382.398H384.959V279Z" fill="#C3D6F5"/>
<path d="M384.959 279H369.822L340.657 254H355.793L384.959 279Z" fill="#C3D6F5"/>
<path d="M439.902 382.398C439.902 382.398 440.635 375.182 448.608 371.467C445.34 376.698 446.052 382.398 446.052 382.398H439.902Z" fill="#C3D6F5"/>
<path d="M186.297 382.398C186.297 382.398 185.564 375.182 177.591 371.467C180.859 376.698 180.147 382.398 180.147 382.398H186.297Z" fill="#C3D6F5"/>
<path d="M58.873 382.398C58.873 382.398 58.381 369.597 53.03 365.883C55.224 371.114 54.745 382.398 54.745 382.398H58.873Z" fill="#C3D6F5"/>
<path d="M56.864 382.398C56.864 382.398 57.356 375.049 62.707 372.916C60.513 375.919 60.992 382.398 60.992 382.398H56.864Z" fill="#C3D6F5"/>
<path d="M190.877 382.398C190.877 382.398 190.343 370.28 180.638 365.883C184.975 372.099 184.727 382.398 184.727 382.398H190.877Z" fill="#C3D6F5"/>
<path d="M93.6771 300.806L100.739 350.607L101.445 355.591H105.967L105.261 350.607L98.1991 300.806H93.6771Z" fill="#6A69A0"/>
<path d="M287.665 300.806L294.727 350.607L295.433 355.591H299.956L299.25 350.607L292.188 300.806H287.665Z" fill="#6A69A0"/>
<path d="M122.671 350.607L123.378 355.591L127.194 382.44H131.717L127.914 355.591L127.208 350.607H122.671Z" fill="#6A69A0"/>
<path d="M316.674 350.607L317.38 355.591L321.183 382.44H325.705L321.902 355.591L321.196 350.607H316.674Z" fill="#6A69A0"/>
<path d="M293.81 350.607L293.103 355.591L289.288 382.44H284.765L288.568 355.591L289.274 350.607H293.81Z" fill="#6A69A0"/>
<path d="M99.808 350.607L99.102 355.591L95.299 382.44H90.777L94.579 355.591L95.286 350.607H99.808Z" fill="#6A69A0"/>
<path d="M87.1671 307.737H294.501L290.652 293.869H83.3181L87.1671 307.737Z" fill="#C3D6F5"/>
<path d="M91.9021 307.737H299.236L295.386 293.869H88.0521L91.9021 307.737Z" fill="#6A69A0"/>
<path d="M90.0551 325.033H297.388L293.539 311.166H86.2051L90.0551 325.033Z" fill="#C3D6F5"/>
<path d="M94.7891 325.033H302.123L298.273 311.166H90.9391L94.7891 325.033Z" fill="#6A69A0"/>
<path d="M92.942 342.352H300.276L296.426 328.485H89.092L92.942 342.352Z" fill="#C3D6F5"/>
<path d="M97.676 342.352H305.01L301.16 328.485H93.827L97.676 342.352Z" fill="#6A69A0"/>
<path d="M323.872 350.607H117.457V355.591H323.872V350.607Z" fill="#6A69A0"/>
<path d="M117.457 350.607H89.087V355.591H117.457V350.607Z" fill="#C3D6F5"/>
<path d="M73.5041 147.472C69.6341 139.109 72.7061 133.156 82.1661 133.156C88.0981 133.156 95.4541 135.499 102.617 139.314C103.426 137.139 105.706 135.836 109.372 135.836C115.825 135.836 124.72 139.863 131.698 145.546C133.387 144.279 135.83 143.503 138.97 143.379C145.145 143.123 152.626 145.437 159.129 149.201C159.692 148.571 160.658 148.176 161.991 148.117C165.55 147.971 170.367 150.306 172.761 153.331C172.91 153.521 173.042 153.704 173.175 153.887H165.783H159.902H139.472H129.418H121.6H109.559H107.374H77.5061H68.6981C65.3971 150.923 69.0461 147.621 73.5041 147.472Z" fill="#F3F8FF"/>
<path d="M347.912 164.713C348.171 164.685 348.434 164.671 348.701 164.671C348.456 161.936 349.873 160.191 352.9 160.191C355.084 160.191 357.763 161.103 360.495 162.645C359.714 157.337 362.216 153.887 367.883 153.887C372.454 153.887 378.241 156.131 383.957 159.791C384.458 157.709 386.142 156.46 388.972 156.46C393.943 156.46 401.007 160.316 406.671 165.757C406.671 165.757 406.673 165.764 406.678 165.757C407.902 164.544 409.74 163.794 412.157 163.674C416.89 163.429 422.768 165.644 427.979 169.255C428.376 168.645 429.097 168.266 430.13 168.217C432.719 168.084 436.286 170.075 438.357 172.74H432.318H428.224H412.481H405.108H398.543H389.218H371.601H364.734H362.291H352.517H343.747C341.525 168.702 343.295 165.169 347.912 164.713Z" fill="#F3F8FF"/>
<path d="M188.775 104.231C189.034 104.203 189.297 104.189 189.564 104.189C189.319 101.455 190.736 99.709 193.763 99.709C195.947 99.709 198.626 100.621 201.358 102.163C200.577 96.855 203.079 93.406 208.745 93.406C213.316 93.406 219.103 95.65 224.819 99.31C225.32 97.228 227.004 95.979 229.834 95.979C234.805 95.979 241.869 99.835 247.533 105.276C247.533 105.276 247.535 105.283 247.54 105.276C248.764 104.063 250.602 103.313 253.019 103.194C257.753 102.949 263.63 105.164 268.841 108.775C269.237 108.165 269.959 107.786 270.992 107.737C273.581 107.604 277.148 109.595 279.219 112.259H273.18H269.086H253.343H245.97H239.405H230.08H212.463H205.596H203.153H193.379H184.609C182.388 108.22 184.157 104.687 188.775 104.231Z" fill="#F3F8FF"/>
<path d="M424.772 365.104L407.001 347.333H393.162L408.522 362.693H404.3V382.398H420.545V365.104H424.772Z" fill="#C3D6F5"/>
<path d="M410.933 365.104L393.162 347.333L375.391 365.104H382.022V382.396H404.298V365.104H410.933Z" fill="#F3F8FF"/>
<path d="M250 427.561C357.082 427.561 443.889 422.491 443.889 416.238C443.889 409.984 357.082 404.915 250 404.915C142.918 404.915 56.111 409.984 56.111 416.238C56.111 422.491 142.918 427.561 250 427.561Z" fill="#F0F6FF"/>
<path d="M282.405 140.953V182.373H240.985V140.953L261.699 120.84L261.912 121.053L263.745 122.826L282.405 140.953Z" fill="#2A2877"/>
<path d="M282.408 182.375H312.615V145.735H282.408V182.375Z" fill="#2A2877"/>
<path d="M296.79 152.265H282.451L280.404 150.219L263.745 119.22L296.79 152.265Z" fill="#2A2877"/>
<path d="M263.745 119.22V133.559L245.04 152.265H240.985V141.98L261.912 121.053L263.745 119.22Z" fill="#2A2877"/>
<path d="M294.744 150.219H280.404L261.699 131.513V117.174L294.744 150.219Z" fill="#2A2877"/>
<path d="M294.744 150.219H320.475L287.431 117.174H261.699L294.744 150.219Z" fill="#2A2877"/>
<path d="M228.654 150.219H242.993L261.699 131.513V117.174L228.654 150.219Z" fill="#2A2877"/>
<path d="M407.861 221.006L381.209 194.353H360.454L383.491 217.389H377.157V246.942H401.521V221.006H407.861Z" fill="#6665A4"/>
<path d="M387.107 221.006L360.454 194.353L333.802 221.006H343.747V246.94H377.155V221.006H387.107Z" fill="#9594D7"/>
<path d="M299.41 242.057L272.758 215.405H252.003L275.04 238.441H268.707V267.994H293.07V242.057H299.41Z" fill="#6665A4"/>
<path d="M278.656 242.057L252.003 215.405L225.351 242.057H235.296V267.992H268.704V242.057H278.656Z" fill="#9594D7"/>
<path d="M399.535 106.098L372.883 79.4449H352.128L375.164 102.481H368.831V132.034H393.195V106.098H399.535Z" fill="#6665A4"/>
<path d="M378.78 106.098L352.128 79.4449L325.475 106.098H335.421V132.032H368.829V106.098H378.78Z" fill="#9594D7"/>
<path opacity="0.2" d="M328.116 118.829C346.58 148.4 337.581 187.346 308.003 205.815C278.425 224.283 239.481 215.273 221.017 185.702C202.549 156.124 211.548 117.178 241.126 98.709C270.704 80.241 309.647 89.251 328.116 118.829Z" fill="#D4E8FF"/>
<path opacity="0.1" d="M337.08 143.325L239.091 204.503C231.021 199.026 224.409 191.786 219.68 183.456L326.683 116.643C332.092 124.549 335.695 133.669 337.08 143.325Z" fill="#D4E8FF"/>
<path d="M336.318 113.7C315.022 79.595 270.108 69.209 236.002 90.505C201.897 111.8 191.511 156.715 212.807 190.821C234.106 224.932 279.021 235.318 313.126 214.022C347.232 192.726 357.617 147.811 336.318 113.7ZM225.834 182.686C209.032 155.777 217.221 120.337 244.136 103.531C271.051 86.725 306.489 94.925 323.291 121.833C340.097 148.748 331.908 184.188 304.992 200.994C278.077 217.8 242.64 209.601 225.834 182.686Z" fill="#A8A6D7"/>
<path d="M224.012 192.384C215.475 199.299 206.682 205.805 197.825 212.209C188.96 218.599 179.996 224.832 170.96 230.949C161.905 237.034 152.811 243.059 143.618 248.924C139.045 251.894 134.406 254.758 129.802 257.68C127.53 259.188 125.103 260.449 122.359 261.201C120.993 261.588 119.545 261.842 118.012 261.961C116.469 262.064 114.862 262.063 113.02 261.687C107.603 260.58 104.11 255.292 105.216 249.875C105.248 249.718 105.293 249.529 105.332 249.375C105.802 247.555 106.507 246.11 107.277 244.769C108.057 243.444 108.921 242.254 109.867 241.197C111.748 239.062 113.946 237.435 116.298 236.055C120.944 233.202 125.554 230.291 130.23 227.485C139.535 221.8 148.94 216.273 158.383 210.809C167.845 205.375 177.38 200.058 187.014 194.898C196.656 189.751 206.361 184.707 216.322 180.072C219.984 178.368 224.333 179.955 226.037 183.617C227.484 186.721 226.557 190.322 224.012 192.384Z" fill="#A8A6D7"/>
<path d="M132.076 180.234C130.955 184.253 129.864 188.439 128.825 192.56C127.808 196.703 126.856 200.858 126.017 205.018C125.58 207.091 125.204 209.214 124.868 211.163C124.556 213.159 124.354 215.176 124.227 217.207C124.133 219.238 124.122 221.282 124.227 223.327C124.286 224.348 124.358 225.372 124.465 226.389C124.566 227.385 124.743 228.464 124.886 229.33L120.92 230.836C120.34 229.656 119.954 228.635 119.573 227.517C119.192 226.42 118.865 225.31 118.598 224.187C118.053 221.943 117.684 219.654 117.485 217.347C117.283 215.039 117.285 212.717 117.381 210.393C117.539 208.031 117.82 205.864 118.13 203.663C118.761 199.27 119.567 194.923 120.536 190.618C121.477 186.29 122.559 182.071 123.877 177.762L132.076 180.234Z" fill="#FFB573"/>
<path d="M121.428 230.191L116.492 233.549L117.193 236.417C117.193 236.417 127.482 231.078 124.731 228.943L121.428 230.191Z" fill="#FFB573"/>
<path d="M143.833 408.179C143.059 408.179 142.213 408.019 141.622 407.879C141.545 407.861 141.486 407.798 141.473 407.72C141.459 407.642 141.493 407.564 141.559 407.52C141.845 407.332 144.384 405.687 145.364 406.131C145.518 406.2 145.712 406.354 145.759 406.689C145.822 407.132 145.711 407.487 145.43 407.743C145.073 408.067 144.478 408.179 143.833 408.179ZM142.184 407.595C143.644 407.888 144.739 407.835 145.163 407.449C145.343 407.284 145.41 407.054 145.366 406.743C145.342 406.576 145.265 406.521 145.201 406.492C144.692 406.258 143.221 406.969 142.184 407.595Z" fill="#2A2877"/>
<path d="M141.668 407.884C141.633 407.884 141.599 407.875 141.568 407.858C141.507 407.822 141.47 407.756 141.47 407.686C141.47 407.584 141.481 405.171 142.392 404.365C142.633 404.151 142.915 404.062 143.231 404.1C143.728 404.161 143.862 404.473 143.898 404.654C144.087 405.598 142.564 407.406 141.765 407.859C141.735 407.875 141.702 407.884 141.668 407.884ZM143.093 404.488C142.93 404.488 142.786 404.546 142.654 404.662C142.111 405.142 141.924 406.497 141.878 407.3C142.674 406.664 143.625 405.307 143.509 404.732C143.49 404.637 143.436 404.525 143.183 404.495C143.153 404.49 143.123 404.488 143.093 404.488Z" fill="#2A2877"/>
<path d="M195.976 404.476C195.907 404.476 195.842 404.44 195.806 404.379C195.763 404.306 195.77 404.215 195.824 404.15C196.091 403.831 198.422 401.091 199.614 401.091C199.64 401.091 199.666 401.092 199.691 401.095C199.917 401.119 200.094 401.242 200.204 401.453C200.388 401.805 200.402 402.151 200.243 402.482C199.718 403.583 197.369 404.201 196.014 404.47C196.001 404.475 195.988 404.476 195.976 404.476ZM199.602 401.487C198.945 401.487 197.506 402.85 196.515 403.958C198.347 403.532 199.59 402.93 199.885 402.312C199.988 402.096 199.977 401.876 199.852 401.637C199.804 401.545 199.741 401.499 199.648 401.49C199.633 401.488 199.618 401.487 199.602 401.487Z" fill="#2A2877"/>
<path d="M195.976 404.476C195.961 404.476 195.947 404.475 195.933 404.471C195.865 404.456 195.809 404.406 195.787 404.338C195.758 404.247 195.072 402.091 195.708 400.877C195.903 400.506 196.2 400.258 196.592 400.14C197.123 399.984 197.375 400.178 197.495 400.373C198.002 401.19 196.87 403.615 196.12 404.414C196.082 404.453 196.03 404.476 195.976 404.476ZM196.942 400.479C196.882 400.479 196.805 400.49 196.706 400.52C196.416 400.607 196.205 400.784 196.06 401.061C195.643 401.857 195.903 403.212 196.065 403.856C196.769 402.897 197.462 401.071 197.158 400.581C197.139 400.552 197.094 400.479 196.942 400.479Z" fill="#2A2877"/>
<path d="M142.405 148.067C143.38 153.037 145.433 163.104 141.955 166.421C141.955 166.421 143.314 171.463 152.549 171.463C162.704 171.463 157.402 166.422 157.402 166.422C151.86 165.098 152.003 160.986 152.968 157.124L142.405 148.067Z" fill="#FFB573"/>
<path d="M157.978 168.046C159.354 168.25 158.078 165.124 157.51 164.787C156.198 164.008 139.528 162.443 139.699 164.204C139.794 164.962 140.255 166.451 141 166.975C141.747 167.499 145.965 166.116 157.978 168.046Z" fill="#A8A6D7"/>
<path d="M162.58 137.413C162.499 137.413 162.418 137.388 162.348 137.337C162.171 137.209 162.131 136.961 162.26 136.783C163.546 135.006 165.379 135.079 165.455 135.078C165.674 135.089 165.843 135.275 165.832 135.494C165.821 135.713 165.628 135.876 165.417 135.871C165.35 135.867 163.927 135.833 162.902 137.249C162.824 137.356 162.703 137.413 162.58 137.413Z" fill="#0F264C"/>
<path d="M164.802 142.184C164.802 142.184 165.834 145.135 167.04 146.587C166.116 147.384 164.616 146.944 164.616 146.944L164.802 142.184Z" fill="#FF5652"/>
<path d="M164.243 141C164.216 141.675 164.553 142.236 164.994 142.254C165.435 142.272 165.814 141.738 165.841 141.063C165.868 140.388 165.531 139.827 165.09 139.809C164.649 139.792 164.27 140.325 164.243 141Z" fill="#0F264C"/>
<path d="M164.894 139.839L166.534 139.435C166.534 139.435 165.652 140.669 164.894 139.839Z" fill="#0F264C"/>
<path d="M187.102 407.625L195.263 405.737L191.437 386.712L183.276 388.6L187.102 407.625Z" fill="#FFB573"/>
<path d="M131.927 407.685H140.304L139.647 388.288H131.27L131.927 407.685Z" fill="#FFB573"/>
<path d="M140.967 406.716H131.557C131.215 406.716 130.937 406.954 130.889 407.288L129.817 414.733C129.706 415.505 130.37 416.236 131.16 416.223C134.441 416.167 136.022 415.974 140.16 415.974C142.706 415.974 146.426 416.238 149.941 416.238C153.38 416.238 153.644 412.761 152.18 412.447C145.616 411.035 144.579 409.088 142.367 407.231C141.968 406.896 141.468 406.716 140.967 406.716Z" fill="#2A2877"/>
<path d="M195.099 403.592L186.407 407.199C186.091 407.33 185.925 407.656 186.009 407.984L187.873 415.272C188.066 416.028 188.96 416.448 189.684 416.133C192.693 414.823 194.079 414.039 197.901 412.453C200.253 411.477 205.218 409.703 208.465 408.355C211.641 407.037 210.553 403.725 209.08 403.995C202.476 405.207 199.343 404.399 196.589 403.531C196.092 403.374 195.561 403.4 195.099 403.592Z" fill="#2A2877"/>
<path d="M191.436 386.718L193.488 396.91L185.246 398.412L183.272 388.606L191.436 386.718Z" fill="#EF9F5E"/>
<path d="M131.269 388.293H139.648L139.983 398.292H131.603L131.269 388.293Z" fill="#EF9F5E"/>
<path d="M176.179 176.785C177.809 180.627 179.573 184.56 181.353 188.383C182.25 190.3 183.191 192.187 184.157 194.042C185.11 195.904 186.108 197.725 187.16 199.461C187.685 200.316 188.215 201.185 188.771 201.968L189.586 203.11C189.758 203.348 189.95 203.566 190.158 203.774C190.973 204.601 192.342 205.17 194.046 205.432C197.461 205.924 201.734 205.227 205.564 204.205L207.348 208.054C206.275 208.703 205.285 209.196 204.212 209.683C203.154 210.168 202.064 210.6 200.935 210.962C198.68 211.687 196.276 212.21 193.64 212.209C192.324 212.208 190.942 212.069 189.537 211.674C188.137 211.286 186.701 210.643 185.428 209.692C184.798 209.211 184.21 208.674 183.679 208.086C183.23 207.573 182.898 207.139 182.502 206.659C181.744 205.719 181.082 204.773 180.412 203.822C177.838 200.001 175.672 196.094 173.692 192.119C171.681 188.144 169.889 184.164 168.231 179.982L176.179 176.785Z" fill="#FFB573"/>
<path d="M171.562 168.567C175.725 169.582 180.848 181.012 180.848 181.012L170.937 193.707C170.937 193.707 160.701 179.224 162.069 174.798C163.494 170.189 166.511 167.335 171.562 168.567Z" fill="#0F264C"/>
<path d="M204.711 208.523L213.846 207.084L211.425 201.896C211.425 201.896 204.345 203.126 202.979 206.329L204.711 208.523Z" fill="#FFB573"/>
<path d="M213.845 203.042L212.84 200.833L211.424 201.896L213.845 207.083V203.042Z" fill="#FFB573"/>
<path d="M141.635 137.792C141.819 146.103 141.719 149.625 145.74 154.045C151.788 160.694 161.956 158.65 164.259 150.452C166.332 143.072 165.683 130.721 157.697 127.103C149.829 123.537 141.452 129.481 141.635 137.792Z" fill="#FFB573"/>
<path d="M134.939 122.778C143.484 116.595 153.023 120.097 158.235 124.375C163.699 128.86 162.827 137.469 159.485 141.032C159.485 141.032 160.61 142.498 160.049 144.641L160.052 144.662C160.924 150.172 157.476 155.45 152.079 156.863C151.921 156.904 151.763 156.944 151.605 156.981C140.94 159.516 128.638 152.297 126.749 141.5C125.594 134.888 127.387 128.243 134.939 122.778Z" fill="#0F264C"/>
<path d="M157.577 141.64C157.684 143.255 158.501 144.794 159.481 145.812C160.956 147.344 162.49 146.457 162.747 144.646C162.979 143.016 162.491 140.256 160.69 139.384C158.916 138.527 157.454 139.794 157.577 141.64Z" fill="#FFB573"/>
<path d="M158.575 219.122C158.575 219.122 153.714 276.613 148.67 309.014C144.596 335.184 141.384 396.356 141.384 396.356H129.962C129.962 396.356 124.519 337.279 126.587 311.395C131.82 245.897 122.642 234.305 133.54 219.123H158.575V219.122Z" fill="#2A2877"/>
<path d="M146.984 246C146.034 263.18 150.168 276.153 152.058 283.743C153.398 272.523 154.628 260.813 155.658 250.483C152.148 238.783 147.694 233.07 146.984 246Z" fill="#2A2877"/>
<path d="M167.559 219.122C167.559 219.122 176.999 283.623 180.316 308.957C183.766 335.308 193.851 394.386 193.851 394.386L182.655 396.097C182.655 396.097 164.952 339.753 160.02 314.111C154.643 286.156 144.014 219.122 144.014 219.122H167.559Z" fill="#2A2877"/>
<path d="M195.501 394.433L181.158 396.87L179.53 391.457L194.879 388.832L195.501 394.433Z" fill="#2A2877"/>
<path d="M142.946 396.582H128.398L127.634 391.478L143.03 390.957L142.946 396.582Z" fill="#2A2877"/>
<path d="M120.309 181.607L128.719 188.307L133.769 192.337C133.769 192.337 134.299 190.927 134.939 188.907C136.159 185.007 137.749 178.827 136.649 175.987C134.919 171.487 131.619 167.427 127.509 168.327C124.029 169.087 120.309 181.607 120.309 181.607Z" fill="#0F264C"/>
<path d="M128.719 188.307L133.769 192.337C133.769 192.337 134.299 190.927 134.939 188.907L131.939 174.057L128.719 188.307Z" fill="#0A1B35"/>
<path d="M171.562 168.567C171.562 168.567 175.552 169.972 167.559 219.122C154.06 219.122 140.108 219.122 133.54 219.122C134.111 205.276 134.127 196.739 127.51 168.324C127.51 168.324 134.638 166.773 141.956 166.421C147.681 166.145 152.371 165.962 157.404 166.422C164.037 167.027 171.562 168.567 171.562 168.567Z" fill="#0F264C"/>
<path d="M133.03 217.125L131.496 220.17C131.377 220.406 131.657 220.647 132.05 220.647H167.727C168.034 220.647 168.288 220.497 168.307 220.304L168.614 217.259C168.635 217.048 168.369 216.869 168.034 216.869H133.585C133.331 216.87 133.107 216.973 133.03 217.125Z" fill="#A8A6D7"/>
<path d="M137.657 220.977H136.734C136.55 220.977 136.41 220.882 136.423 220.767L136.856 216.811C136.869 216.695 137.029 216.601 137.213 216.601H138.136C138.32 216.601 138.46 216.696 138.447 216.811L138.014 220.767C138.001 220.883 137.84 220.977 137.657 220.977Z" fill="#2A2877"/>
<path d="M160.02 220.977H159.097C158.913 220.977 158.773 220.882 158.786 220.767L159.219 216.811C159.232 216.695 159.392 216.601 159.576 216.601H160.499C160.683 216.601 160.823 216.696 160.81 216.811L160.377 220.767C160.365 220.883 160.204 220.977 160.02 220.977Z" fill="#2A2877"/>
<path d="M139.699 124.167C142.314 121.284 151.18 116.874 158.786 120.334C166.393 123.793 166.05 131.651 166.05 131.651L159.193 136.245L139.699 124.167Z" fill="#0F264C"/>
<path d="M132.699 131.764C136.472 128.671 140.745 117.468 132.646 121.372C124.546 125.276 122.271 140.313 132.699 131.764Z" fill="#A8A6D7"/>
<path d="M133.546 124.578C135.176 119.815 124.431 110.35 117.179 119.352C109.928 128.354 128.856 138.281 133.546 124.578Z" fill="#0F264C"/>
<path d="M150.37 131.222C144.116 128.559 141.014 118.481 151.744 118.769C162.474 119.057 162.164 136.245 150.37 131.222Z" fill="#A8A6D7"/>
<path d="M148.351 125.958C144.562 121.229 148.749 109.066 159.621 112.99C170.494 116.915 157.05 136.814 148.351 125.958Z" fill="#0F264C"/>
</svg>
