<?xml version="1.0" encoding="utf-8"?>
<!-- Generator: Adobe Illustrator 27.5.0, SVG Export Plug-In . SVG Version: 6.00 Build 0)  -->
<svg version="1.1" xmlns="http://www.w3.org/2000/svg" xmlns:xlink="http://www.w3.org/1999/xlink" x="0px" y="0px"
	 viewBox="0 0 500 500" style="enable-background:new 0 0 500 500;" xml:space="preserve">
<g id="Background_2">
	<g>
		<g>
			<g>
				<g>
					<rect y="382.398" style="fill:#D1E3FF;" width="500" height="0.25"/>
					<rect x="51.646" y="393.563" style="fill:#D1E3FF;" width="26.571" height="0.25"/>
					<rect x="64.932" y="388.563" style="fill:#D1E3FF;" width="22.902" height="0.25"/>
					<rect x="263.962" y="389.299" style="fill:#D1E3FF;" width="61.446" height="0.25"/>
					<rect x="331.167" y="389.299" style="fill:#D1E3FF;" width="14.74" height="0.25"/>
					<rect x="381.061" y="391.007" style="fill:#D1E3FF;" width="48.657" height="0.25"/>
					<rect x="106.538" y="395" style="fill:#D1E3FF;" width="86.629" height="0.25"/>
					<rect x="438.5" y="391.007" style="fill:#D1E3FF;" width="7.086" height="0.25"/>
					<path style="fill:#D1E3FF;" d="M237.014,337.8H43.915c-3.147,0-5.708-2.561-5.708-5.708V60.66c0-3.147,2.561-5.708,5.708-5.708
						h193.099c3.146,0,5.707,2.561,5.707,5.708v271.432C242.721,335.239,240.16,337.8,237.014,337.8z M43.915,55.203
						c-3.01,0-5.458,2.448-5.458,5.458v271.432c0,3.01,2.448,5.458,5.458,5.458h193.099c3.009,0,5.457-2.448,5.457-5.458V60.66
						c0-3.009-2.448-5.458-5.457-5.458H43.915z"/>
					<path style="fill:#D1E3FF;" d="M453.31,337.8H260.212c-3.146,0-5.707-2.561-5.707-5.708V60.66c0-3.147,2.561-5.708,5.707-5.708
						H453.31c3.148,0,5.708,2.561,5.708,5.708v271.432C459.019,335.239,456.458,337.8,453.31,337.8z M260.212,55.203
						c-3.009,0-5.457,2.448-5.457,5.458v271.432c0,3.01,2.448,5.458,5.457,5.458H453.31c3.01,0,5.458-2.448,5.458-5.458V60.66
						c0-3.009-2.448-5.458-5.458-5.458H260.212z"/>
				</g>
			</g>
		</g>
		<g>
			
				<ellipse transform="matrix(0.2246 -0.9745 0.9745 0.2246 -98.1218 287.4454)" style="fill:#E3EEFF;" cx="131.556" cy="205.378" rx="22.444" ry="22.444"/>
			<path style="fill:#F3F8FF;" d="M284.585,200.74c-2.798-6.045-0.577-10.349,6.262-10.349c4.289,0,9.607,1.694,14.785,4.452
				c0.585-1.572,2.233-2.515,4.883-2.515c4.665,0,11.095,2.911,16.14,7.019c1.221-0.916,2.987-1.477,5.257-1.567
				c4.464-0.185,9.872,1.488,14.573,4.208c0.407-0.455,1.106-0.741,2.069-0.783c2.573-0.106,6.055,1.583,7.785,3.769
				c0.108,0.138,0.203,0.27,0.299,0.402h-5.344h-4.251h-14.769h-7.268h-5.651h-8.704h-1.58h-21.592h-6.367
				C278.724,203.235,281.362,200.848,284.585,200.74z"/>
			<g>
				<polygon style="fill:#F3F8FF;" points="137.444,247.173 199.323,233 199.323,382.398 137.444,382.398 				"/>
				<rect x="199.323" y="233" style="fill:#E3EEFF;" width="32.114" height="149.398"/>
				<g>
					
						<rect x="220.942" y="197.269" transform="matrix(-1 -1.224647e-16 1.224647e-16 -1 494.5511 579.6674)" style="fill:#F3F8FF;" width="52.667" height="185.129"/>
					<rect x="273.609" y="197.269" style="fill:#E3EEFF;" width="27.333" height="185.129"/>
					
						<rect x="228.029" y="183.514" transform="matrix(-1 -1.224647e-16 1.224647e-16 -1 501.6377 380.7828)" style="fill:#F3F8FF;" width="45.58" height="13.755"/>
					
						<rect x="228.029" y="194.18" transform="matrix(-1 -1.224647e-16 1.224647e-16 -1 501.6377 391.4494)" style="fill:#E3EEFF;" width="45.58" height="3.089"/>
					<rect x="273.609" y="183.514" style="fill:#E3EEFF;" width="20.247" height="13.755"/>
					
						<rect x="235.115" y="169.758" transform="matrix(-1 -1.224647e-16 1.224647e-16 -1 508.7243 353.2723)" style="fill:#F3F8FF;" width="38.493" height="13.755"/>
					
						<rect x="235.115" y="180.425" transform="matrix(-1 -1.224647e-16 1.224647e-16 -1 508.7243 363.939)" style="fill:#E3EEFF;" width="38.493" height="3.089"/>
					<rect x="273.609" y="169.758" style="fill:#E3EEFF;" width="13.16" height="13.755"/>
					<rect x="259.664" y="150.535" style="fill:#E3EEFF;" width="2.556" height="19.223"/>
				</g>
				
					<rect x="292.217" y="221.333" transform="matrix(-1 -1.224647e-16 1.224647e-16 -1 622.8932 603.7317)" style="fill:#F3F8FF;" width="38.46" height="161.065"/>
				<rect x="330.676" y="221.333" style="fill:#E3EEFF;" width="19.96" height="161.065"/>
				<polygon style="fill:#F3F8FF;" points="340.657,254 369.822,279 369.822,382.398 340.657,382.398 				"/>
				<rect x="369.822" y="279" style="fill:#E3EEFF;" width="15.137" height="103.398"/>
				<polygon style="fill:#E3EEFF;" points="384.959,279 369.822,279 340.657,254 355.793,254 				"/>
			</g>
			<g>
				<path style="fill:#E3EEFF;" d="M439.902,382.398c0,0,0.733-7.216,8.706-10.931c-3.268,5.231-2.556,10.931-2.556,10.931H439.902z
					"/>
				<g>
					<path style="fill:#E3EEFF;" d="M186.297,382.398c0,0-0.733-7.216-8.706-10.931c3.268,5.231,2.556,10.931,2.556,10.931H186.297z
						"/>
					<path style="fill:#E3EEFF;" d="M58.873,382.398c0,0-0.492-12.801-5.843-16.515c2.194,5.231,1.715,16.515,1.715,16.515H58.873z"
						/>
					<path style="fill:#E3EEFF;" d="M56.864,382.398c0,0,0.492-7.349,5.843-9.482c-2.194,3.003-1.715,9.482-1.715,9.482H56.864z"/>
					<path style="fill:#E3EEFF;" d="M190.877,382.398c0,0-0.534-12.118-10.239-16.515c4.337,6.216,4.089,16.515,4.089,16.515
						H190.877z"/>
				</g>
			</g>
			<g>
				<polygon style="fill:#D1E3FF;" points="93.677,300.806 100.739,350.607 101.445,355.591 105.967,355.591 105.261,350.607 
					98.199,300.806 				"/>
				<polygon style="fill:#D1E3FF;" points="287.665,300.806 294.727,350.607 295.433,355.591 299.956,355.591 299.25,350.607 
					292.188,300.806 				"/>
				<polygon style="fill:#D1E3FF;" points="122.671,350.607 123.378,355.591 127.194,382.44 131.717,382.44 127.914,355.591 
					127.208,350.607 				"/>
				<polygon style="fill:#D1E3FF;" points="316.674,350.607 317.38,355.591 321.183,382.44 325.705,382.44 321.902,355.591 
					321.196,350.607 				"/>
				<polygon style="fill:#D1E3FF;" points="293.81,350.607 293.103,355.591 289.288,382.44 284.765,382.44 288.568,355.591 
					289.274,350.607 				"/>
				<polygon style="fill:#D1E3FF;" points="99.808,350.607 99.102,355.591 95.299,382.44 90.777,382.44 94.579,355.591 
					95.286,350.607 				"/>
				<g>
					<polygon style="fill:#E3EEFF;" points="87.167,307.737 294.501,307.737 290.652,293.869 83.318,293.869 					"/>
					<polygon style="fill:#D1E3FF;" points="91.902,307.737 299.236,307.737 295.386,293.869 88.052,293.869 					"/>
				</g>
				<g>
					<polygon style="fill:#E3EEFF;" points="90.055,325.033 297.388,325.033 293.539,311.166 86.205,311.166 					"/>
					<polygon style="fill:#D1E3FF;" points="94.789,325.033 302.123,325.033 298.273,311.166 90.939,311.166 					"/>
				</g>
				<g>
					<polygon style="fill:#E3EEFF;" points="92.942,342.352 300.276,342.352 296.426,328.485 89.092,328.485 					"/>
					<polygon style="fill:#D1E3FF;" points="97.676,342.352 305.01,342.352 301.16,328.485 93.827,328.485 					"/>
				</g>
				<rect x="117.457" y="350.607" style="fill:#D1E3FF;" width="206.415" height="4.984"/>
				<rect x="89.087" y="350.607" style="fill:#E3EEFF;" width="28.37" height="4.984"/>
			</g>
			<path style="fill:#F3F8FF;" d="M73.504,147.472c-3.87-8.363-0.798-14.316,8.662-14.316c5.932,0,13.288,2.343,20.451,6.158
				c0.809-2.175,3.089-3.478,6.755-3.478c6.453,0,15.348,4.027,22.326,9.71c1.689-1.267,4.132-2.043,7.272-2.167
				c6.175-0.256,13.656,2.058,20.159,5.822c0.563-0.63,1.529-1.025,2.862-1.084c3.559-0.146,8.376,2.189,10.77,5.214
				c0.149,0.19,0.281,0.373,0.414,0.556h-7.392h-5.881h-20.43h-10.054H121.6h-12.041h-2.185H77.506h-8.808
				C65.397,150.923,69.046,147.621,73.504,147.472z"/>
			<path style="fill:#F3F8FF;" d="M347.912,164.713c0.259-0.028,0.522-0.042,0.789-0.042c-0.245-2.735,1.172-4.48,4.199-4.48
				c2.184,0,4.863,0.912,7.595,2.454c-0.781-5.308,1.721-8.758,7.388-8.758c4.571,0,10.358,2.244,16.074,5.904
				c0.501-2.082,2.185-3.331,5.015-3.331c4.971,0,12.035,3.856,17.699,9.297c0,0,0.002,0.007,0.007,0
				c1.224-1.213,3.062-1.963,5.479-2.083c4.733-0.245,10.611,1.97,15.822,5.581c0.397-0.61,1.118-0.989,2.151-1.038
				c2.589-0.133,6.156,1.858,8.227,4.523h-6.039h-4.094h-15.743h-7.373h-6.565h-9.325h-17.617h-6.867h-2.443h-9.774h-8.77
				C341.525,168.702,343.295,165.169,347.912,164.713z"/>
			<path style="fill:#F3F8FF;" d="M188.775,104.231c0.259-0.028,0.522-0.042,0.789-0.042c-0.245-2.734,1.172-4.48,4.199-4.48
				c2.184,0,4.863,0.912,7.595,2.454c-0.781-5.308,1.721-8.757,7.387-8.757c4.571,0,10.358,2.244,16.074,5.904
				c0.501-2.082,2.185-3.331,5.015-3.331c4.971,0,12.035,3.856,17.699,9.297c0,0,0.002,0.007,0.007,0
				c1.224-1.213,3.062-1.963,5.479-2.082c4.734-0.245,10.611,1.97,15.822,5.581c0.396-0.61,1.118-0.989,2.151-1.038
				c2.589-0.133,6.156,1.858,8.227,4.522h-6.039h-4.094h-15.743h-7.373h-6.565h-9.325h-17.617h-6.867h-2.443h-9.774h-8.77
				C182.388,108.22,184.157,104.687,188.775,104.231z"/>
			<g>
				<polygon style="fill:#E3EEFF;" points="424.772,365.104 407.001,347.333 393.162,347.333 408.522,362.693 404.3,362.693 
					404.3,382.398 420.545,382.398 420.545,365.104 				"/>
				<polygon style="fill:#F3F8FF;" points="410.933,365.104 393.162,347.333 375.391,365.104 382.022,365.104 382.022,382.396 
					404.298,382.396 404.298,365.104 				"/>
			</g>
		</g>
	</g>
</g>
<g id="Background_1" style="display:none;">
	<path style="display:inline;opacity:0.4;fill:#D4E8FF;" d="M228.654,105.405C152.955,93.74,74.687,97.489,73.822,197.818
		c-0.8,92.862,110.693,135.321,209.642,125.097c107.233-11.08,160.261-72.901,151.241-158.599
		C428.341,103.86,380.077,49.14,321.864,50.029C282.714,50.627,294.744,115.589,228.654,105.405z"/>
</g>
<g id="Objects">
	<g>
		<ellipse style="fill:#F0F6FF;" cx="250" cy="416.238" rx="193.889" ry="11.323"/>
		<g>
			<g>
				<polygon style="fill:#056CE8;" points="282.405,140.953 282.405,182.373 240.985,182.373 240.985,140.953 261.699,120.84 
					261.912,121.053 263.745,122.826 				"/>
				
					<rect x="282.408" y="145.736" transform="matrix(-1 -1.224647e-16 1.224647e-16 -1 595.0229 328.1112)" style="fill:#0053CC;" width="30.207" height="36.64"/>
				<polygon style="fill:#0053CC;" points="296.79,152.265 282.451,152.265 280.404,150.219 263.745,119.22 				"/>
				<polygon style="fill:#0053CC;" points="263.745,119.22 263.745,133.559 245.04,152.265 240.985,152.265 240.985,141.98 
					261.912,121.053 				"/>
				<polygon style="fill:#056CE8;" points="294.744,150.219 280.404,150.219 261.699,131.513 261.699,117.174 				"/>
				<polygon style="fill:#0053CC;" points="294.744,150.219 320.475,150.219 287.431,117.174 261.699,117.174 				"/>
				<polygon style="fill:#056CE8;" points="228.654,150.219 242.993,150.219 261.699,131.513 261.699,117.174 				"/>
			</g>
			<g>
				<g>
					<polygon style="fill:#77B3FC;" points="407.861,221.006 381.209,194.353 360.454,194.353 383.491,217.389 377.157,217.389 
						377.157,246.942 401.521,246.942 401.521,221.006 					"/>
					<polygon style="fill:#B6D7FF;" points="387.107,221.006 360.454,194.353 333.802,221.006 343.747,221.006 343.747,246.94 
						377.155,246.94 377.155,221.006 					"/>
				</g>
				<g>
					<polygon style="fill:#77B3FC;" points="299.41,242.057 272.758,215.405 252.003,215.405 275.04,238.441 268.707,238.441 
						268.707,267.994 293.07,267.994 293.07,242.057 					"/>
					<polygon style="fill:#B6D7FF;" points="278.656,242.057 252.003,215.405 225.351,242.057 235.296,242.057 235.296,267.992 
						268.704,267.992 268.704,242.057 					"/>
				</g>
				<g>
					<polygon style="fill:#77B3FC;" points="399.535,106.098 372.883,79.445 352.128,79.445 375.164,102.481 368.831,102.481 
						368.831,132.034 393.195,132.034 393.195,106.098 					"/>
					<polygon style="fill:#B6D7FF;" points="378.78,106.098 352.128,79.445 325.475,106.098 335.421,106.098 335.421,132.032 
						368.829,132.032 368.829,106.098 					"/>
				</g>
			</g>
			<g>
				<path style="opacity:0.2;fill:#D4E8FF;" d="M328.116,118.829c18.464,29.571,9.465,68.517-20.113,86.986
					c-29.578,18.468-68.522,9.458-86.986-20.113c-18.468-29.578-9.469-68.524,20.109-86.993
					C270.704,80.241,309.647,89.251,328.116,118.829z"/>
				<path style="opacity:0.1;fill:#D4E8FF;" d="M337.08,143.325l-97.989,61.178c-8.07-5.477-14.682-12.717-19.411-21.047
					l107.003-66.813C332.092,124.549,335.695,133.669,337.08,143.325z"/>
				<path style="fill:#9FC6FF;" d="M336.318,113.7c-21.296-34.105-66.21-44.491-100.316-23.195
					c-34.105,21.295-44.491,66.21-23.195,100.316c21.299,34.111,66.214,44.497,100.319,23.201
					C347.232,192.726,357.617,147.811,336.318,113.7z M225.834,182.686c-16.802-26.909-8.613-62.349,18.302-79.155
					c26.915-16.806,62.353-8.606,79.155,18.302c16.806,26.915,8.617,62.355-18.299,79.161
					C278.077,217.8,242.64,209.601,225.834,182.686z"/>
				<path style="fill:#9FC6FF;" d="M224.012,192.384c-8.537,6.915-17.33,13.421-26.187,19.825
					c-8.865,6.39-17.829,12.623-26.865,18.74c-9.055,6.085-18.149,12.11-27.342,17.975c-4.573,2.97-9.212,5.834-13.816,8.756
					c-2.272,1.508-4.699,2.769-7.443,3.521c-1.366,0.387-2.814,0.641-4.347,0.76c-1.543,0.103-3.15,0.102-4.992-0.274
					c-5.417-1.107-8.91-6.395-7.804-11.812c0.032-0.157,0.077-0.346,0.116-0.5c0.47-1.82,1.175-3.265,1.945-4.606
					c0.78-1.325,1.644-2.515,2.59-3.572c1.881-2.135,4.079-3.762,6.431-5.142c4.646-2.853,9.256-5.764,13.932-8.57
					c9.305-5.685,18.71-11.212,28.153-16.676c9.462-5.434,18.997-10.751,28.631-15.911c9.642-5.147,19.347-10.191,29.308-14.826
					c3.662-1.704,8.011-0.117,9.715,3.545C227.484,186.721,226.557,190.322,224.012,192.384z"/>
			</g>
			<g>
				<path style="fill:#FFB573;" d="M132.076,180.234c-1.121,4.019-2.212,8.205-3.251,12.326c-1.017,4.143-1.969,8.298-2.808,12.458
					c-0.437,2.073-0.813,4.196-1.149,6.145c-0.312,1.996-0.514,4.013-0.641,6.044c-0.094,2.031-0.105,4.075,0,6.12
					c0.059,1.021,0.131,2.045,0.238,3.062c0.101,0.996,0.278,2.075,0.421,2.941l-3.966,1.506c-0.58-1.18-0.966-2.201-1.347-3.319
					c-0.381-1.097-0.708-2.207-0.975-3.33c-0.545-2.244-0.914-4.533-1.113-6.84c-0.202-2.308-0.2-4.63-0.104-6.954
					c0.158-2.362,0.439-4.529,0.749-6.73c0.631-4.393,1.437-8.74,2.406-13.045c0.941-4.328,2.023-8.547,3.341-12.856
					L132.076,180.234z"/>
				<path style="fill:#FFB573;" d="M121.428,230.191l-4.936,3.358l0.701,2.868c0,0,10.289-5.339,7.538-7.474L121.428,230.191z"/>
				<path style="fill:#0053CC;" d="M143.833,408.179c-0.774,0-1.62-0.16-2.211-0.3c-0.077-0.018-0.136-0.081-0.149-0.159
					c-0.014-0.078,0.02-0.156,0.086-0.2c0.286-0.188,2.825-1.833,3.805-1.389c0.154,0.069,0.348,0.223,0.395,0.558
					c0.063,0.443-0.048,0.798-0.329,1.054C145.073,408.067,144.478,408.179,143.833,408.179z M142.184,407.595
					c1.46,0.293,2.555,0.24,2.979-0.146c0.18-0.165,0.247-0.395,0.203-0.706c-0.024-0.167-0.101-0.222-0.165-0.251
					C144.692,406.258,143.221,406.969,142.184,407.595z"/>
				<path style="fill:#0053CC;" d="M141.668,407.884c-0.035,0-0.069-0.009-0.1-0.026c-0.061-0.036-0.098-0.102-0.098-0.172
					c0-0.102,0.011-2.515,0.922-3.321c0.241-0.214,0.523-0.303,0.839-0.265c0.497,0.061,0.631,0.373,0.667,0.554
					c0.189,0.944-1.334,2.752-2.133,3.205C141.735,407.875,141.702,407.884,141.668,407.884z M143.093,404.488
					c-0.163,0-0.307,0.058-0.439,0.174c-0.543,0.48-0.73,1.835-0.776,2.638c0.796-0.636,1.747-1.993,1.631-2.568
					c-0.019-0.095-0.073-0.207-0.326-0.237C143.153,404.49,143.123,404.488,143.093,404.488z"/>
				<path style="fill:#0053CC;" d="M195.976,404.476c-0.069,0-0.134-0.036-0.17-0.097c-0.043-0.073-0.036-0.164,0.018-0.229
					c0.267-0.319,2.598-3.059,3.79-3.059c0.026,0,0.052,0.001,0.077,0.004c0.226,0.024,0.403,0.147,0.513,0.358
					c0.184,0.352,0.198,0.698,0.039,1.029c-0.525,1.101-2.874,1.719-4.229,1.988C196.001,404.475,195.988,404.476,195.976,404.476z
					 M199.602,401.487c-0.657,0-2.096,1.363-3.087,2.471c1.832-0.426,3.075-1.028,3.37-1.646c0.103-0.216,0.092-0.436-0.033-0.675
					c-0.048-0.092-0.111-0.138-0.204-0.147C199.633,401.488,199.618,401.487,199.602,401.487z"/>
				<path style="fill:#0053CC;" d="M195.976,404.476c-0.015,0-0.029-0.001-0.043-0.005c-0.068-0.015-0.124-0.065-0.146-0.133
					c-0.029-0.091-0.715-2.247-0.079-3.461c0.195-0.371,0.492-0.619,0.884-0.737c0.531-0.156,0.783,0.038,0.903,0.233
					c0.507,0.817-0.625,3.242-1.375,4.041C196.082,404.453,196.03,404.476,195.976,404.476z M196.942,400.479
					c-0.06,0-0.137,0.011-0.236,0.041c-0.29,0.087-0.501,0.264-0.646,0.541c-0.417,0.796-0.157,2.151,0.005,2.795
					c0.704-0.959,1.397-2.785,1.093-3.275C197.139,400.552,197.094,400.479,196.942,400.479z"/>
				<path style="fill:#FFB573;" d="M142.405,148.067c0.975,4.97,3.028,15.037-0.45,18.354c0,0,1.359,5.042,10.594,5.042
					c10.155,0,4.853-5.041,4.853-5.041c-5.542-1.324-5.399-5.436-4.434-9.298L142.405,148.067z"/>
				<path style="fill:#9FC6FF;" d="M157.978,168.046c1.376,0.204,0.1-2.922-0.468-3.259c-1.312-0.779-17.982-2.344-17.811-0.583
					c0.095,0.758,0.556,2.247,1.301,2.771C141.747,167.499,145.965,166.116,157.978,168.046z"/>
				<path style="fill:#0F264C;" d="M162.58,137.413c-0.081,0-0.162-0.025-0.232-0.076c-0.177-0.128-0.217-0.376-0.088-0.554
					c1.286-1.777,3.119-1.704,3.195-1.705c0.219,0.011,0.388,0.197,0.377,0.416c-0.011,0.219-0.204,0.382-0.415,0.377
					c-0.067-0.004-1.49-0.038-2.515,1.378C162.824,137.356,162.703,137.413,162.58,137.413z"/>
				<path style="fill:#FF5652;" d="M164.802,142.184c0,0,1.032,2.951,2.238,4.403c-0.924,0.797-2.424,0.357-2.424,0.357
					L164.802,142.184z"/>
				<path style="fill:#0F264C;" d="M164.243,141c-0.027,0.675,0.31,1.236,0.751,1.254s0.82-0.516,0.847-1.191
					c0.027-0.675-0.31-1.236-0.751-1.254C164.649,139.792,164.27,140.325,164.243,141z"/>
				<path style="fill:#0F264C;" d="M164.894,139.839l1.64-0.404C166.534,139.435,165.652,140.669,164.894,139.839z"/>
				<polygon style="fill:#FFB573;" points="187.102,407.625 195.263,405.737 191.437,386.712 183.276,388.6 				"/>
				<polygon style="fill:#FFB573;" points="131.927,407.685 140.304,407.685 139.647,388.288 131.27,388.288 				"/>
				<path style="fill:#14365B;" d="M140.967,406.716h-9.41c-0.342,0-0.62,0.238-0.668,0.572l-1.072,7.445
					c-0.111,0.772,0.553,1.503,1.343,1.49c3.281-0.056,4.862-0.249,9-0.249c2.546,0,6.266,0.264,9.781,0.264
					c3.439,0,3.703-3.477,2.239-3.791c-6.564-1.412-7.601-3.359-9.813-5.216C141.968,406.896,141.468,406.716,140.967,406.716z"/>
				<path style="fill:#14365B;" d="M195.099,403.592l-8.692,3.607c-0.316,0.131-0.482,0.457-0.398,0.785l1.864,7.288
					c0.193,0.756,1.087,1.176,1.811,0.861c3.009-1.31,4.395-2.094,8.217-3.68c2.352-0.976,7.317-2.75,10.564-4.098
					c3.176-1.318,2.088-4.63,0.615-4.36c-6.604,1.212-9.737,0.404-12.491-0.464C196.092,403.374,195.561,403.4,195.099,403.592z"/>
				<g>
					<polygon style="fill:#EF9F5E;" points="191.436,386.718 193.488,396.91 185.246,398.412 183.272,388.606 					"/>
					<polygon style="fill:#EF9F5E;" points="131.269,388.293 139.648,388.293 139.983,398.292 131.603,398.292 					"/>
				</g>
				<path style="fill:#FFB573;" d="M176.179,176.785c1.63,3.842,3.394,7.775,5.174,11.598c0.897,1.917,1.838,3.804,2.804,5.659
					c0.953,1.862,1.951,3.683,3.003,5.419c0.525,0.855,1.055,1.724,1.611,2.507l0.815,1.142c0.172,0.238,0.364,0.456,0.572,0.664
					c0.815,0.827,2.184,1.396,3.888,1.658c3.415,0.492,7.688-0.205,11.518-1.227l1.784,3.849c-1.073,0.649-2.063,1.142-3.136,1.629
					c-1.058,0.485-2.148,0.917-3.277,1.279c-2.255,0.725-4.659,1.248-7.295,1.247c-1.316-0.001-2.698-0.14-4.103-0.535
					c-1.4-0.388-2.836-1.031-4.109-1.982c-0.63-0.481-1.218-1.018-1.749-1.606c-0.449-0.513-0.781-0.947-1.177-1.427
					c-0.758-0.94-1.42-1.886-2.09-2.837c-2.574-3.821-4.74-7.728-6.72-11.703c-2.011-3.975-3.803-7.955-5.461-12.137
					L176.179,176.785z"/>
				<path style="fill:#0F264C;" d="M171.562,168.567c4.163,1.015,9.286,12.445,9.286,12.445l-9.911,12.695
					c0,0-10.236-14.483-8.868-18.909C163.494,170.189,166.511,167.335,171.562,168.567z"/>
				<path style="fill:#FFB573;" d="M204.711,208.523l9.135-1.439l-2.421-5.188c0,0-7.08,1.23-8.446,4.433L204.711,208.523z"/>
				<polygon style="fill:#FFB573;" points="213.845,203.042 212.84,200.833 211.424,201.896 213.845,207.083 				"/>
				<path style="fill:#FFB573;" d="M141.635,137.792c0.184,8.311,0.084,11.833,4.105,16.253c6.048,6.649,16.216,4.605,18.519-3.593
					c2.073-7.38,1.424-19.731-6.562-23.349C149.829,123.537,141.452,129.481,141.635,137.792z"/>
				<path style="fill:#0F264C;" d="M134.939,122.778c8.545-6.183,18.084-2.681,23.296,1.597c5.464,4.485,4.592,13.094,1.25,16.657
					c0,0,1.125,1.466,0.564,3.609l0.003,0.021c0.872,5.51-2.576,10.788-7.973,12.201c-0.158,0.041-0.316,0.081-0.474,0.118
					c-10.665,2.535-22.967-4.684-24.856-15.481C125.594,134.888,127.387,128.243,134.939,122.778z"/>
				<path style="fill:#FFB573;" d="M157.577,141.64c0.107,1.615,0.924,3.154,1.904,4.172c1.475,1.532,3.009,0.645,3.266-1.166
					c0.232-1.63-0.256-4.39-2.057-5.262C158.916,138.527,157.454,139.794,157.577,141.64z"/>
				<path style="fill:#19437F;" d="M158.575,219.122c0,0-4.861,57.491-9.905,89.892c-4.074,26.17-7.286,87.342-7.286,87.342h-11.422
					c0,0-5.443-59.077-3.375-84.961c5.233-65.498-3.945-77.09,6.953-92.272H158.575z"/>
				<path style="fill:#133A68;" d="M146.984,246c-0.95,17.18,3.184,30.153,5.074,37.743c1.34-11.22,2.57-22.93,3.6-33.26
					C152.148,238.783,147.694,233.07,146.984,246z"/>
				<path style="fill:#19437F;" d="M167.559,219.122c0,0,9.44,64.501,12.757,89.835c3.45,26.351,13.535,85.429,13.535,85.429
					l-11.196,1.711c0,0-17.703-56.344-22.635-81.986c-5.377-27.955-16.006-94.989-16.006-94.989H167.559z"/>
				<polygon style="fill:#318FFF;" points="195.501,394.433 181.158,396.87 179.53,391.457 194.879,388.832 				"/>
				<polygon style="fill:#318FFF;" points="142.946,396.582 128.398,396.582 127.634,391.478 143.03,390.957 				"/>
				<path style="fill:#0F264C;" d="M120.309,181.607l8.41,6.7l5.05,4.03c0,0,0.53-1.41,1.17-3.43c1.22-3.9,2.81-10.08,1.71-12.92
					c-1.73-4.5-5.03-8.56-9.14-7.66C124.029,169.087,120.309,181.607,120.309,181.607z"/>
				<path style="fill:#0A1B35;" d="M128.719,188.307l5.05,4.03c0,0,0.53-1.41,1.17-3.43l-3-14.85L128.719,188.307z"/>
				<path style="fill:#0F264C;" d="M171.562,168.567c0,0,3.99,1.405-4.003,50.555c-13.499,0-27.451,0-34.019,0
					c0.571-13.846,0.587-22.383-6.03-50.798c0,0,7.128-1.551,14.446-1.903c5.725-0.276,10.415-0.459,15.448,0.001
					C164.037,167.027,171.562,168.567,171.562,168.567z"/>
				<path style="fill:#9FC6FF;" d="M133.03,217.125l-1.534,3.045c-0.119,0.236,0.161,0.477,0.554,0.477h35.677
					c0.307,0,0.561-0.15,0.58-0.343l0.307-3.045c0.021-0.211-0.245-0.39-0.58-0.39h-34.449
					C133.331,216.87,133.107,216.973,133.03,217.125z"/>
				<path style="fill:#19437F;" d="M137.657,220.977h-0.923c-0.184,0-0.324-0.095-0.311-0.21l0.433-3.956
					c0.013-0.116,0.173-0.21,0.357-0.21h0.923c0.184,0,0.324,0.095,0.311,0.21l-0.433,3.956
					C138.001,220.883,137.84,220.977,137.657,220.977z"/>
				<path style="fill:#19437F;" d="M160.02,220.977h-0.923c-0.184,0-0.324-0.095-0.311-0.21l0.433-3.956
					c0.013-0.116,0.173-0.21,0.357-0.21h0.923c0.184,0,0.324,0.095,0.311,0.21l-0.433,3.956
					C160.365,220.883,160.204,220.977,160.02,220.977z"/>
			</g>
			<path style="fill:#0F264C;" d="M139.699,124.167c2.615-2.883,11.481-7.293,19.087-3.833c7.607,3.459,7.264,11.317,7.264,11.317
				l-6.857,4.594L139.699,124.167z"/>
			<path style="fill:#9FC6FF;" d="M132.699,131.764c3.773-3.093,8.046-14.296-0.053-10.392
				C124.546,125.276,122.271,140.313,132.699,131.764z"/>
			<path style="fill:#0F264C;" d="M133.546,124.578c1.63-4.763-9.115-14.228-16.367-5.226
				C109.928,128.354,128.856,138.281,133.546,124.578z"/>
			<path style="fill:#9FC6FF;" d="M150.37,131.222c-6.254-2.663-9.356-12.741,1.374-12.453
				C162.474,119.057,162.164,136.245,150.37,131.222z"/>
			<path style="fill:#0F264C;" d="M148.351,125.958c-3.789-4.729,0.398-16.892,11.27-12.968
				C170.494,116.915,157.05,136.814,148.351,125.958z"/>
		</g>
	</g>
</g>
</svg>
