<svg width="500" height="500" viewBox="0 0 500 500" fill="none" xmlns="http://www.w3.org/2000/svg">
<path d="M500 382.398H0V382.648H500V382.398Z" fill="#EBEBEB"/>
<path d="M449.901 398.494H435V398.744H449.901V398.494Z" fill="#EBEBEB"/>
<path d="M331.22 401.208H322.527V401.458H331.22V401.208Z" fill="#EBEBEB"/>
<path d="M430.778 389.208H396.586V389.458H430.778V389.208Z" fill="#EBEBEB"/>
<path d="M109.631 394.369H66.438V394.619H109.631V394.369Z" fill="#EBEBEB"/>
<path d="M134.111 394.369H118.534V394.619H134.111V394.369Z" fill="#EBEBEB"/>
<path d="M254.755 391.014H161.079V391.264H254.755V391.014Z" fill="#EBEBEB"/>
<path d="M237.014 337.8H43.915C40.768 337.8 38.207 335.239 38.207 332.092V60.66C38.207 57.513 40.768 54.952 43.915 54.952H237.014C240.16 54.952 242.721 57.513 242.721 60.66V332.092C242.721 335.239 240.16 337.8 237.014 337.8ZM43.915 55.203C40.905 55.203 38.457 57.651 38.457 60.661V332.093C38.457 335.103 40.905 337.551 43.915 337.551H237.014C240.023 337.551 242.471 335.103 242.471 332.093V60.66C242.471 57.651 240.023 55.202 237.014 55.202L43.915 55.203Z" fill="#EBEBEB"/>
<path d="M453.31 337.8H260.212C257.065 337.8 254.505 335.239 254.505 332.092V60.66C254.505 57.513 257.066 54.952 260.212 54.952H453.31C456.458 54.952 459.018 57.513 459.018 60.66V332.092C459.019 335.239 456.458 337.8 453.31 337.8ZM260.212 55.203C257.203 55.203 254.755 57.651 254.755 60.661V332.093C254.755 335.103 257.203 337.551 260.212 337.551H453.31C456.32 337.551 458.768 335.103 458.768 332.093V60.66C458.768 57.651 456.32 55.202 453.31 55.202L260.212 55.203Z" fill="#EBEBEB"/>
<path d="M214.475 382.398H233.097L233.097 254.528H214.475V382.398Z" fill="#E6E6E6"/>
<path d="M221.03 382.398H214.475V358.097H227.903L221.03 382.398Z" fill="#F0F0F0"/>
<path d="M411.398 382.398H430.02V254.528H411.398V382.398Z" fill="#E6E6E6"/>
<path d="M214.475 375.765H417.118V254.527L214.475 254.527L214.475 375.765Z" fill="#F0F0F0"/>
<path d="M410.563 382.398H417.118V358.097H403.69L410.563 382.398Z" fill="#F0F0F0"/>
<path d="M350.31 264.566V364.857H410.38V264.566H350.31Z" fill="#E6E6E6"/>
<path d="M374.404 268.094H386.288C391.45 268.094 396.385 266.239 399.935 262.964H360.756C364.307 266.239 369.242 268.094 374.404 268.094Z" fill="#F0F0F0"/>
<path d="M285.761 264.566V364.857H345.831V264.566H285.761Z" fill="#E6E6E6"/>
<path d="M309.248 268.094H321.132C326.294 268.094 331.229 266.239 334.78 262.964H295.601C299.151 266.239 304.086 268.094 309.248 268.094Z" fill="#F0F0F0"/>
<path d="M221.213 264.566V364.857H281.283V264.566H221.213Z" fill="#E6E6E6"/>
<path d="M244.7 268.094H256.584C261.746 268.094 266.681 266.239 270.231 262.964H231.052C234.603 266.239 239.538 268.094 244.7 268.094Z" fill="#F0F0F0"/>
<path d="M69.9807 382.398H197.041L197.041 96.7772H69.9807L69.9807 382.398Z" fill="#F0F0F0"/>
<path d="M69.9812 382.398H194.359L194.359 96.7772H69.9812L69.9812 382.398Z" fill="#F5F5F5"/>
<path d="M186.779 375.918L186.779 103.26L77.5598 103.26L77.5598 375.918H186.779Z" fill="#F0F0F0"/>
<path d="M176.046 153.967C176.046 137.522 162.715 124.191 146.27 124.191H118.069C101.624 124.191 88.293 137.522 88.293 153.967H176.046Z" fill="#FAFAFA"/>
<path d="M176.046 358.968V293.831H88.2921L88.2921 358.968H176.046Z" fill="#F5F5F5"/>
<path d="M176.047 172.333H137.34V285.427H176.047V172.333Z" fill="#F5F5F5"/>
<path d="M127 172.333H88.293V285.427H127V172.333Z" fill="#F5F5F5"/>
<path d="M102.331 228.372H86.477C85.124 228.372 84.018 227.265 84.018 225.913C84.018 224.561 85.125 223.454 86.477 223.454H102.331C103.683 223.454 104.79 224.561 104.79 225.913C104.79 227.266 103.683 228.372 102.331 228.372Z" fill="#E0E0E0"/>
<path d="M79.5261 375.918L79.5261 103.26H77.5601L77.5601 375.918H79.5261Z" fill="#F0F0F0"/>
<path d="M277.408 223.179L412.153 223.179V96.7781L277.408 96.7781V223.179Z" fill="#E6E6E6"/>
<path d="M274.011 223.179L408.756 223.179V96.7781L274.011 96.7781V223.179Z" fill="#F5F5F5"/>
<path d="M266.145 230.497L412.153 230.497V223.18L266.145 223.18V230.497Z" fill="#E6E6E6"/>
<path d="M262.321 230.497L400.809 230.497V223.18L262.321 223.18V230.497Z" fill="#F5F5F5"/>
<path d="M402.659 216.604V103.353L280.108 103.353V216.604L402.659 216.604Z" fill="white"/>
<path d="M344.78 216.604V103.353H337.987V216.604H344.78Z" fill="#F5F5F5"/>
<path d="M282.676 216.604V103.353H280.108V216.604H282.676Z" fill="#E6E6E6"/>
<path d="M347.348 216.604V103.353H344.78V216.604H347.348Z" fill="#E6E6E6"/>
<path d="M295.521 226.531C293.043 200.855 291.318 159.19 292.657 145.254C292.704 144.77 292.96 144.335 293.353 144.048C294.508 143.206 296.126 144.056 296.077 145.484C295.841 152.389 295.57 169.647 297.04 199.42C297.772 214.24 298.827 224.39 298.102 226.531H295.521Z" fill="#E6E6E6"/>
<path d="M286.284 167.345C279.229 159.51 264.817 153.938 250.131 153.967C244.365 153.978 267.672 163.082 277.364 173.128C284.894 180.932 293.383 194.06 296.27 201.347C294.403 186.015 293.339 175.181 286.284 167.345Z" fill="#E6E6E6"/>
<path d="M300.27 169.736C306.129 161.575 319.656 155.3 334.29 154.591C340.036 154.313 318.176 164.553 310.019 175.049C303.682 183.202 297.184 196.708 295.396 204.112C294.967 188.744 294.41 177.897 300.27 169.736Z" fill="#E6E6E6"/>
<path d="M285.969 138.736C279.995 132.101 267.791 127.383 255.356 127.408C250.474 127.418 270.209 135.126 278.417 143.633C284.793 150.241 291.981 161.358 294.426 167.528C292.844 154.545 291.943 145.371 285.969 138.736Z" fill="#E6E6E6"/>
<path d="M297.811 148.548C302.773 141.638 314.226 136.324 326.618 135.723C331.483 135.487 312.973 144.159 306.066 153.046C300.7 159.95 295.198 171.386 293.684 177.656C293.321 164.643 292.85 155.459 297.811 148.548Z" fill="#E6E6E6"/>
<path d="M296.516 254.528C288.786 254.528 282.398 248.497 281.954 240.78L280.666 218.456H312.366L311.078 240.78C310.634 248.497 304.246 254.528 296.516 254.528Z" fill="#E6E6E6"/>
<path d="M314.418 223.529H278.613L277.588 214.24H315.444L314.418 223.529Z" fill="#E6E6E6"/>
<path d="M250 427.561C357.082 427.561 443.889 422.492 443.889 416.238C443.889 409.985 357.082 404.915 250 404.915C142.918 404.915 56.111 409.985 56.111 416.238C56.111 422.492 142.918 427.561 250 427.561Z" fill="#F5F5F5"/>
<path d="M253.912 405.418L245.563 406.357L242.484 387.423L250.833 386.483L253.912 405.418Z" fill="#FFC3BD"/>
<path d="M291.292 407.236H282.955L280.879 387.929H289.216L291.292 407.236Z" fill="#FFC3BD"/>
<path d="M282.27 406.271H292.434C292.775 406.271 293.07 406.508 293.144 406.84L294.791 414.251C294.962 415.02 294.358 415.747 293.57 415.734C290.3 415.678 287.914 415.486 283.794 415.486C281.26 415.486 273.618 415.749 270.118 415.749C266.695 415.749 266.162 412.289 267.594 411.975C274.018 410.57 278.858 408.632 280.915 406.783C281.287 406.45 281.771 406.271 282.27 406.271Z" fill="#03013C"/>
<path d="M245.425 404.927L254.472 403.901C254.811 403.863 255.131 404.065 255.242 404.387L257.714 411.565C257.97 412.309 257.473 413.098 256.689 413.174C253.419 413.489 248.682 413.832 244.58 414.297C239.784 414.841 238.985 416.126 233.326 415.993C229.904 415.913 229.036 412.431 230.475 412.151C237.029 410.878 238.295 409.886 243.504 405.798C244.069 405.354 244.71 405.008 245.425 404.927Z" fill="#03013C"/>
<path d="M252.789 162.251C249.989 164.563 247.232 166.573 244.38 168.632C241.538 170.665 238.618 172.601 235.621 174.456C232.62 176.303 229.548 178.082 226.324 179.694C223.099 181.312 219.765 182.823 216.064 183.975C215.13 184.274 214.22 184.519 213.169 184.773C211.945 185.052 211.034 185.149 210.061 185.272C208.184 185.481 206.416 185.564 204.655 185.646C201.145 185.807 197.699 185.803 194.259 185.78C187.379 185.697 180.557 185.366 173.704 184.76L173.6 178.501C180.33 177.634 187.088 176.884 193.777 176.134C197.12 175.77 200.456 175.364 203.714 174.937C205.335 174.718 206.948 174.459 208.432 174.183C209.136 174.043 209.907 173.884 210.328 173.737C210.915 173.543 211.635 173.307 212.301 173.038C215.023 171.97 217.838 170.541 220.608 168.975C223.375 167.387 226.142 165.683 228.863 163.871C231.593 162.073 234.289 160.182 236.974 158.268C239.644 156.373 242.339 154.326 244.857 152.412L252.789 162.251Z" fill="#FFC3BD"/>
<path d="M260.94 155.125C259.742 163.006 243.147 175.063 243.147 175.063L231.244 160.286C231.244 160.286 239.823 151.054 247.806 144.526C253.162 140.146 262.243 146.55 260.94 155.125Z" fill="#2A2877"/>
<path d="M175.9 179.18L171.167 175.809L170.648 186.456C170.648 186.456 173.27 186.456 174.277 184.544L175.9 179.18Z" fill="#FFC3BD"/>
<path d="M166.887 172.71L165.917 183.144L170.648 186.456L171.167 175.81L166.887 172.71Z" fill="#FFC3BD"/>
<path opacity="0.2" d="M242.486 387.428L244.072 397.188L252.424 396.248L250.839 386.488L242.486 387.428Z" fill="black"/>
<path opacity="0.2" d="M289.219 387.934H280.878L281.952 397.886H290.293L289.219 387.934Z" fill="black"/>
<path d="M289.339 144.779C291.96 145.365 293.564 147.984 292.924 150.593C291.033 158.294 289.743 166.028 288.842 173.38C288.054 179.84 287.58 186.006 287.286 191.597C286.593 204.702 286.881 214.694 286.491 218.078C279.972 217.626 255.404 215.917 242.008 214.98C237.486 179.581 242.784 156.991 245.762 147.81C246.707 144.896 249.223 142.765 252.26 142.37C253.968 142.147 256.01 141.93 258.165 141.804C258.919 141.755 259.685 141.729 260.464 141.713C265.502 141.606 273.715 142.362 279.376 143.029C280.566 143.17 281.77 143.345 282.94 143.533C285.274 143.913 287.497 144.367 289.339 144.779Z" fill="#03013C"/>
<path d="M278.987 121.606C277.37 127.607 275.401 138.673 279.374 143.03C269.064 149.966 262.481 159.73 260.582 157.609C259.589 156.5 259.156 143.657 260.464 141.711C267.362 140.564 267.538 135.518 266.686 130.708L278.987 121.606Z" fill="#FFC3BD"/>
<path d="M278.576 140.542C278.576 140.542 261.774 147.978 259.545 164.604C264.174 159.244 274.398 153.413 274.398 153.413L269.888 152.117C269.888 152.117 273.923 150.497 278.753 149.731C278.252 147.434 280.92 142.855 280.92 142.855L278.576 140.542Z" fill="#2A2877"/>
<path d="M263.415 140.273C263.415 140.273 265.654 149.768 259.545 164.603C258.6 158.94 254.61 149.465 254.61 149.465L258.725 150.584C258.725 150.584 258.519 148.67 255.191 146.122C256.428 143.737 260.306 140.93 260.306 140.93L263.415 140.273Z" fill="#2A2877"/>
<path opacity="0.2" d="M273.972 125.32L266.692 130.703C266.898 131.842 267.039 132.992 267.041 134.1C269.659 133.906 273.419 131.31 273.883 128.615C274.114 127.271 274.148 125.966 273.972 125.32Z" fill="black"/>
<path d="M257.636 104.228C253.57 104.403 251.326 111.414 255.453 117.187C259.58 122.959 263.114 103.993 257.636 104.228Z" fill="#03013C"/>
<path d="M277.687 110.397C278.169 118.657 278.871 123.467 275.236 128.174C269.768 135.254 259.195 132.715 256.254 124.766C253.607 117.61 253.263 105.304 260.897 101.076C268.419 96.9101 277.205 102.137 277.687 110.397Z" fill="#FFC3BD"/>
<path d="M278.899 116.745C272.642 112.725 270.433 107.468 269.947 104.817C267.517 105.391 255.457 110.943 251.746 104.817C248.035 98.691 252.705 95.098 259.647 98.868C256.576 93.449 259.369 90.798 269.016 90.563C278.664 90.327 277.368 95.923 277.368 95.923C277.368 95.923 284.672 92.742 287.264 98.338C290.249 104.782 284.729 115.773 278.899 116.745Z" fill="#03013C"/>
<path d="M275.72 94.444C275.808 94.444 279.374 95.302 283.483 91.166C282.747 94.694 276.368 97.041 276.368 97.041L275.72 94.444Z" fill="#03013C"/>
<path d="M280.514 106.528C276.667 105.199 272.007 110.897 273.728 117.782C275.449 124.666 285.696 108.319 280.514 106.528Z" fill="#03013C"/>
<path d="M282.691 117.268C282.335 119.47 280.995 121.303 279.491 122.352C277.229 123.93 275.191 122.126 275.06 119.516C274.942 117.167 275.977 113.515 278.613 112.976C281.21 112.445 283.098 114.75 282.691 117.268Z" fill="#FFC3BD"/>
<path d="M254.545 308.915C256.548 284.529 271.247 217.019 271.247 217.019L242.002 214.981C242.002 214.981 230.725 281.994 229.862 307.425C228.962 333.867 239.597 392.637 239.597 392.637L253.623 391.04C253.623 391.04 252.534 333.403 254.545 308.915Z" fill="#2A2877"/>
<path opacity="0.5" d="M254.545 308.915C256.548 284.529 271.247 217.019 271.247 217.019L242.002 214.981C242.002 214.981 230.725 281.994 229.862 307.425C228.962 333.867 239.597 392.637 239.597 392.637L253.623 391.04C253.623 391.04 252.534 333.403 254.545 308.915Z" fill="white"/>
<path opacity="0.2" d="M260.228 239.882C254.333 247.42 254.227 273.895 256.507 293.456C258.681 279.344 262.105 261.426 265.106 246.487L260.228 239.882Z" fill="black"/>
<path d="M257.781 216.08C257.781 216.08 260.937 287.458 264.457 311.632C268.311 338.104 278.1 395.959 278.1 395.959H293.37C293.37 395.959 290.858 341.467 288.843 315.461C286.547 285.839 286.486 218.083 286.486 218.083L257.781 216.08Z" fill="#2A2877"/>
<path opacity="0.5" d="M257.781 216.08C257.781 216.08 260.937 287.458 264.457 311.632C268.311 338.104 278.1 395.959 278.1 395.959H293.37C293.37 395.959 290.858 341.467 288.843 315.461C286.547 285.839 286.486 218.083 286.486 218.083L257.781 216.08Z" fill="white"/>
<path d="M276.272 396.289H294.253V390.917L274.153 390.568L276.272 396.289Z" fill="#2A2877"/>
<path d="M238.984 394.216L255.7 392.32L255.088 386.92L236.37 388.754L238.984 394.216Z" fill="#2A2877"/>
<path d="M265.525 114.184C265.605 114.852 265.317 115.436 264.88 115.488C264.444 115.54 264.025 115.042 263.944 114.374C263.864 113.706 264.152 113.123 264.589 113.07C265.026 113.018 265.445 113.517 265.525 114.184Z" fill="#03013C"/>
<path d="M257.979 115.091C258.059 115.759 257.771 116.342 257.334 116.395C256.898 116.447 256.479 115.949 256.398 115.281C256.318 114.613 256.606 114.03 257.043 113.977C257.48 113.924 257.898 114.424 257.979 115.091Z" fill="#03013C"/>
<path d="M260.418 115.135C260.418 115.135 259.363 119.169 257.915 121.229C259.229 122.19 261.176 121.444 261.176 121.444L260.418 115.135Z" fill="#ED847E"/>
<path d="M267.576 111.463C267.438 111.505 267.282 111.471 267.176 111.359C265.954 110.091 264.521 110.349 264.507 110.352C264.293 110.393 264.086 110.253 264.045 110.038C264.004 109.824 264.135 109.616 264.359 109.576C264.435 109.562 266.229 109.238 267.746 110.811C267.897 110.968 267.893 111.218 267.736 111.369C267.687 111.414 267.633 111.445 267.576 111.463Z" fill="#03013C"/>
<path d="M264.676 124.108L264.68 124.107C267.993 123.311 268.965 120.675 269.004 120.563C269.043 120.452 268.986 120.331 268.875 120.292C268.765 120.253 268.643 120.31 268.604 120.421C268.595 120.446 267.662 122.954 264.581 123.694C264.467 123.721 264.396 123.836 264.424 123.95C264.451 124.063 264.563 124.133 264.676 124.108Z" fill="#03013C"/>
<path d="M254.431 112.882C254.354 112.905 254.269 112.906 254.187 112.877C253.981 112.806 253.871 112.581 253.943 112.375C254.656 110.31 256.417 109.845 256.495 109.829C256.707 109.776 256.921 109.905 256.974 110.116C257.026 110.327 256.888 110.544 256.689 110.594C256.63 110.614 255.26 110.982 254.69 112.632C254.647 112.757 254.548 112.846 254.431 112.882Z" fill="#03013C"/>
<path d="M279.513 407.728C278.879 407.728 278.285 407.62 277.907 407.303C277.609 407.052 277.471 406.701 277.499 406.259C277.52 405.931 277.694 405.774 277.838 405.701C278.764 405.225 281.45 406.88 281.753 407.069C281.821 407.111 281.856 407.19 281.844 407.268C281.831 407.346 281.772 407.409 281.695 407.428C281.115 407.568 280.284 407.728 279.513 407.728ZM278.274 406.002C278.171 406.002 278.084 406.018 278.017 406.052C277.964 406.079 277.902 406.13 277.892 406.284C277.872 406.598 277.96 406.833 278.16 407.001C278.617 407.384 279.704 407.436 281.12 407.151C280.18 406.606 278.913 406.002 278.274 406.002Z" fill="#2A2877"/>
<path d="M281.648 407.434C281.616 407.434 281.583 407.426 281.553 407.411C280.69 406.942 279.022 405.115 279.199 404.186C279.231 404.017 279.355 403.726 279.828 403.668C280.133 403.632 280.417 403.716 280.669 403.922C281.637 404.714 281.837 407.12 281.845 407.221C281.851 407.294 281.816 407.363 281.756 407.402C281.723 407.423 281.685 407.434 281.648 407.434ZM279.965 404.054C279.935 404.054 279.906 404.056 279.876 404.059C279.619 404.09 279.597 404.208 279.588 404.258C279.484 404.807 280.546 406.187 281.404 406.839C281.307 406.136 281.041 404.734 280.42 404.226C280.277 404.111 280.127 404.054 279.965 404.054Z" fill="#2A2877"/>
<path d="M244.747 406.16C244.737 406.165 244.726 406.17 244.715 406.174C243.41 406.591 241.072 407.186 240.074 406.485C239.773 406.274 239.613 405.967 239.598 405.572C239.589 405.337 239.681 405.143 239.863 405.013C240.802 404.354 244.327 405.65 244.725 405.801C244.804 405.831 244.854 405.907 244.852 405.991C244.85 406.063 244.809 406.127 244.747 406.16ZM240.14 405.305C240.123 405.314 240.107 405.324 240.092 405.334C240.018 405.387 239.988 405.454 239.992 405.558C240.002 405.826 240.102 406.024 240.299 406.162C240.86 406.555 242.232 406.48 244.027 405.969C242.628 405.486 240.718 404.997 240.14 405.305Z" fill="#2A2877"/>
<path d="M244.747 406.16C244.701 406.185 244.646 406.191 244.594 406.174C243.543 405.839 241.359 404.272 241.405 403.318C241.416 403.095 241.543 402.802 242.073 402.687C242.469 402.601 242.848 402.673 243.2 402.9C244.352 403.646 244.828 405.852 244.847 405.946C244.861 406.015 244.839 406.086 244.787 406.133C244.775 406.143 244.762 406.152 244.747 406.16ZM241.941 403.146C241.805 403.219 241.801 403.303 241.8 403.337C241.773 403.909 243.279 405.164 244.369 405.662C244.189 405.022 243.742 403.721 242.986 403.231C242.723 403.06 242.452 403.009 242.159 403.072C242.062 403.093 241.992 403.118 241.941 403.146Z" fill="#2A2877"/>
<path d="M296.365 156.804C296.154 160.061 295.77 163.094 295.373 166.224C294.978 169.331 294.441 172.425 293.854 175.522C292.641 181.71 291.115 187.892 288.726 194.095L287.735 196.429L287.484 197.011L287.421 197.156L287.318 197.377L287.028 197.952C286.62 198.685 286.146 199.356 285.653 199.901C284.658 201.024 283.626 201.789 282.639 202.383C281.649 202.977 280.697 203.412 279.775 203.773C276.106 205.172 272.789 205.601 269.508 205.916C262.961 206.44 256.752 206.097 250.431 205.203L250.66 198.947L255.071 198.449C256.55 198.273 258.021 198.048 259.483 197.851C262.403 197.42 265.292 196.941 268.047 196.301C270.774 195.677 273.482 194.866 275.422 193.854C276.362 193.375 277.061 192.735 277.031 192.622C277.058 192.478 276.738 193.107 277.113 192.104L277.772 190.177C279.393 184.864 280.548 179.118 281.472 173.315C281.946 170.412 282.352 167.484 282.744 164.55C283.138 161.639 283.459 158.618 283.765 155.803L296.365 156.804Z" fill="#FFC3BD"/>
<path d="M297.101 150.758C301.183 157.605 297.698 179.121 297.698 179.121L276.305 175.168C276.305 175.168 275.146 162.852 279.218 153.389C283.652 143.08 292.156 142.464 297.101 150.758Z" fill="#2A2877"/>
<path d="M244.682 218.296L233.332 165.503C232.362 160.99 227.916 157.331 223.403 157.331H188.087H179.915C184.428 157.331 188.873 160.99 189.844 165.503L201.194 218.296C202.164 222.809 206.61 226.468 211.123 226.468H246.439H254.611C250.098 226.468 245.652 222.809 244.682 218.296Z" fill="#03013C"/>
<path opacity="0.7" d="M244.682 218.296L233.332 165.503C232.362 160.99 227.916 157.331 223.403 157.331H188.087H179.915C184.428 157.331 188.873 160.99 189.844 165.503L201.194 218.296C202.164 222.809 206.61 226.468 211.123 226.468H246.439H254.611C250.098 226.468 245.652 222.809 244.682 218.296Z" fill="#2A2877"/>
<path d="M162.297 222.053L161.16 234.394L162.155 234.486L163.293 222.145L162.297 222.053Z" fill="#2A2877"/>
<path d="M160.711 239.293L160.232 244.486L161.228 244.577L161.706 239.385L160.711 239.293Z" fill="#2A2877"/>
<path d="M179.916 157.331H215.232H223.404C218.891 157.331 214.9 160.99 214.489 165.503L203.207 288.181C202.796 292.694 198.805 296.353 194.292 296.353H167.148C162.635 296.353 159.309 292.694 159.719 288.181L171.001 165.503C171.412 160.99 175.403 157.331 179.916 157.331Z" fill="#2A2877"/>
<path d="M186.863 288.181C186.453 292.694 189.778 296.353 194.292 296.353H186.12H150.804C146.291 296.353 142.965 292.694 143.375 288.181H186.863Z" fill="#03013C"/>
<path opacity="0.7" d="M186.863 288.181C186.453 292.694 189.778 296.353 194.292 296.353H186.12H150.804C146.291 296.353 142.965 292.694 143.375 288.181H186.863Z" fill="#2A2877"/>
<g opacity="0.5">
<path d="M206.952 171.076H177.525C176.546 171.076 175.819 170.275 175.908 169.297C175.997 168.318 176.87 167.518 177.849 167.518H207.276C208.255 167.518 208.982 168.319 208.893 169.297C208.804 170.276 207.93 171.076 206.952 171.076Z" fill="white"/>
<path d="M206.076 180.702H176.65C175.671 180.702 174.944 179.901 175.033 178.923C175.122 177.944 175.995 177.144 176.974 177.144H206.4C207.379 177.144 208.106 177.945 208.017 178.923C207.928 179.902 207.055 180.702 206.076 180.702Z" fill="white"/>
<path d="M197.988 190.329H175.774C174.795 190.329 174.068 189.528 174.157 188.55C174.246 187.571 175.119 186.771 176.098 186.771H198.312C199.291 186.771 200.018 187.572 199.929 188.55C199.84 189.528 198.966 190.329 197.988 190.329Z" fill="white"/>
<path d="M182.433 199.955H174.899C173.92 199.955 173.193 199.154 173.282 198.176C173.371 197.197 174.244 196.397 175.223 196.397H182.757C183.736 196.397 184.463 197.198 184.374 198.176C184.285 199.154 183.411 199.955 182.433 199.955Z" fill="white"/>
<path d="M203.45 209.581H174.023C173.044 209.581 172.317 208.78 172.406 207.802C172.495 206.823 173.368 206.023 174.347 206.023H203.774C204.753 206.023 205.48 206.824 205.391 207.802C205.302 208.78 204.429 209.581 203.45 209.581Z" fill="white"/>
<path d="M190.985 219.207H173.148C172.169 219.207 171.442 218.406 171.531 217.428C171.62 216.449 172.493 215.649 173.472 215.649H191.309C192.288 215.649 193.015 216.45 192.926 217.428C192.837 218.406 191.963 219.207 190.985 219.207Z" fill="white"/>
<path d="M201.699 228.833H172.272C171.293 228.833 170.566 228.032 170.655 227.054C170.744 226.075 171.617 225.275 172.596 225.275H202.023C203.002 225.275 203.729 226.076 203.64 227.054C203.551 228.033 202.678 228.833 201.699 228.833Z" fill="white"/>
<path d="M193.611 238.459H171.397C170.418 238.459 169.691 237.658 169.78 236.68C169.869 235.701 170.742 234.901 171.721 234.901H193.935C194.914 234.901 195.641 235.702 195.552 236.68C195.463 237.659 194.589 238.459 193.611 238.459Z" fill="white"/>
<path d="M178.056 248.085H170.522C169.543 248.085 168.816 247.284 168.905 246.306C168.994 245.327 169.867 244.527 170.846 244.527H178.38C179.359 244.527 180.086 245.328 179.997 246.306C179.908 247.285 179.034 248.085 178.056 248.085Z" fill="white"/>
<path d="M199.073 257.712H169.646C168.667 257.712 167.94 256.911 168.029 255.933C168.118 254.954 168.991 254.154 169.97 254.154H199.397C200.376 254.154 201.103 254.955 201.014 255.933C200.925 256.911 200.052 257.712 199.073 257.712Z" fill="white"/>
<path d="M186.608 267.338H168.771C167.792 267.338 167.065 266.537 167.154 265.559C167.243 264.581 168.116 263.78 169.095 263.78H186.932C187.911 263.78 188.638 264.581 188.549 265.559C188.46 266.537 187.586 267.338 186.608 267.338Z" fill="white"/>
<path d="M197.322 276.964H167.895C166.917 276.964 166.189 276.163 166.278 275.185C166.367 274.207 167.24 273.406 168.219 273.406H197.646C198.625 273.406 199.352 274.207 199.263 275.185C199.174 276.163 198.301 276.964 197.322 276.964Z" fill="white"/>
</g>
<path d="M253.23 199.624L246.841 194.073L243.846 204.293C243.846 204.293 250.335 207.811 252.582 204.581L253.23 199.624Z" fill="#FFC3BD"/>
<path d="M239.888 193.673L237.809 202.235L243.846 204.293L246.841 194.074L239.888 193.673Z" fill="#FFC3BD"/>
</svg>
