<svg width="182" height="50" viewBox="0 0 182 50" fill="none" xmlns="http://www.w3.org/2000/svg">
<g clip-path="url(#clip0_1_9)">
<path d="M66 2H9C5.68629 2 3 4.68629 3 8V42C3 45.3137 5.68629 48 9 48H66C69.3137 48 72 45.3137 72 42V8C72 4.68629 69.3137 2 66 2Z" fill="#2A2877"/>
</g>
<path d="M14.1 15.59V28.79C14.1 30.87 14.59 32.41 15.57 33.41C16.57 34.41 17.93 34.91 19.65 34.91C21.37 34.91 22.71 34.42 23.67 33.44C24.65 32.44 25.14 30.89 25.14 28.79V15.59H27.24V28.76C27.24 31.42 26.53 33.42 25.11 34.76C23.71 36.1 21.88 36.77 19.62 36.77C17.36 36.77 15.52 36.1 14.1 34.76C12.7 33.42 12 31.42 12 28.76V15.59H14.1ZM44.704 19.88C46.664 19.88 48.264 20.49 49.504 21.71C50.744 22.91 51.364 24.66 51.364 26.96V36.56H49.294V27.2C49.294 25.42 48.844 24.06 47.944 23.12C47.064 22.18 45.854 21.71 44.314 21.71C42.734 21.71 41.474 22.21 40.534 23.21C39.594 24.21 39.124 25.68 39.124 27.62V36.56H37.024V20.18H39.124V22.97C39.644 21.97 40.394 21.21 41.374 20.69C42.354 20.15 43.464 19.88 44.704 19.88ZM62.1584 17.09C61.7384 17.09 61.3784 16.94 61.0784 16.64C60.7784 16.34 60.6284 15.97 60.6284 15.53C60.6284 15.09 60.7784 14.73 61.0784 14.45C61.3784 14.15 61.7384 14 62.1584 14C62.5784 14 62.9384 14.15 63.2384 14.45C63.5384 14.73 63.6884 15.09 63.6884 15.53C63.6884 15.97 63.5384 16.34 63.2384 16.64C62.9384 16.94 62.5784 17.09 62.1584 17.09ZM63.2084 20.18V36.56H61.1084V20.18H63.2084Z" fill="white"/>
<path d="M78 28.46C78 26.76 78.33 25.28 78.99 24.02C79.67 22.76 80.6 21.8 81.78 21.14C82.98 20.46 84.35 20.12 85.89 20.12C87.93 20.12 89.6 20.63 90.9 21.65C92.22 22.67 93.04 24.04 93.36 25.76H91.95C91.69 24.36 91.01 23.26 89.91 22.46C88.83 21.66 87.49 21.26 85.89 21.26C84.69 21.26 83.6 21.53 82.62 22.07C81.64 22.59 80.85 23.4 80.25 24.5C79.67 25.58 79.38 26.9 79.38 28.46C79.38 30.04 79.67 31.37 80.25 32.45C80.85 33.53 81.64 34.34 82.62 34.88C83.6 35.42 84.69 35.69 85.89 35.69C87.49 35.69 88.83 35.29 89.91 34.49C91.01 33.69 91.69 32.59 91.95 31.19H93.36C93.04 32.89 92.22 34.26 90.9 35.3C89.58 36.34 87.91 36.86 85.89 36.86C84.35 36.86 82.98 36.52 81.78 35.84C80.6 35.16 79.67 34.19 78.99 32.93C78.33 31.65 78 30.16 78 28.46ZM117.243 27.38C117.243 28.1 117.223 28.64 117.183 29H103.113C103.153 30.46 103.473 31.69 104.073 32.69C104.673 33.69 105.463 34.44 106.443 34.94C107.423 35.44 108.493 35.69 109.653 35.69C111.253 35.69 112.593 35.3 113.673 34.52C114.753 33.72 115.433 32.64 115.713 31.28H117.123C116.803 32.94 115.983 34.29 114.663 35.33C113.343 36.35 111.673 36.86 109.653 36.86C108.133 36.86 106.773 36.52 105.573 35.84C104.373 35.16 103.433 34.19 102.753 32.93C102.073 31.65 101.733 30.16 101.733 28.46C101.733 26.76 102.063 25.28 102.723 24.02C103.403 22.76 104.343 21.8 105.543 21.14C106.743 20.46 108.113 20.12 109.653 20.12C111.213 20.12 112.563 20.46 113.703 21.14C114.863 21.8 115.743 22.69 116.343 23.81C116.943 24.91 117.243 26.1 117.243 27.38ZM115.893 27.89C115.953 26.45 115.693 25.23 115.113 24.23C114.553 23.23 113.783 22.49 112.803 22.01C111.823 21.51 110.763 21.26 109.623 21.26C108.483 21.26 107.423 21.51 106.443 22.01C105.483 22.49 104.693 23.23 104.073 24.23C103.473 25.23 103.153 26.45 103.113 27.89H115.893ZM131.943 35.15L137.943 20.33H139.383L132.633 36.62H131.223L124.473 20.33H125.943L131.943 35.15ZM162.13 27.38C162.13 28.1 162.11 28.64 162.07 29H148C148.04 30.46 148.36 31.69 148.96 32.69C149.56 33.69 150.35 34.44 151.33 34.94C152.31 35.44 153.38 35.69 154.54 35.69C156.14 35.69 157.48 35.3 158.56 34.52C159.64 33.72 160.32 32.64 160.6 31.28H162.01C161.69 32.94 160.87 34.29 159.55 35.33C158.23 36.35 156.56 36.86 154.54 36.86C153.02 36.86 151.66 36.52 150.46 35.84C149.26 35.16 148.32 34.19 147.64 32.93C146.96 31.65 146.62 30.16 146.62 28.46C146.62 26.76 146.95 25.28 147.61 24.02C148.29 22.76 149.23 21.8 150.43 21.14C151.63 20.46 153 20.12 154.54 20.12C156.1 20.12 157.45 20.46 158.59 21.14C159.75 21.8 160.63 22.69 161.23 23.81C161.83 24.91 162.13 26.1 162.13 27.38ZM160.78 27.89C160.84 26.45 160.58 25.23 160 24.23C159.44 23.23 158.67 22.49 157.69 22.01C156.71 21.51 155.65 21.26 154.51 21.26C153.37 21.26 152.31 21.51 151.33 22.01C150.37 22.49 149.58 23.23 148.96 24.23C148.36 25.23 148.04 26.45 148 27.89H160.78ZM172.66 23.69C173.06 22.49 173.77 21.58 174.79 20.96C175.81 20.32 177.11 20 178.69 20V21.41H178.24C176.64 21.41 175.31 21.87 174.25 22.79C173.19 23.69 172.66 25.17 172.66 27.23V36.62H171.31V20.33H172.66V23.69Z" fill="#2A2877"/>
<defs>
<clipPath id="clip0_1_9">
<rect width="69" height="46" fill="white" transform="translate(3 2)"/>
</clipPath>
</defs>
</svg>
