<svg width="500" height="500" viewBox="0 0 500 500" fill="none" xmlns="http://www.w3.org/2000/svg">
<path d="M76.335 230.397C-19.575 285.771 -19.572 375.549 76.34 430.923C172.252 486.297 327.755 486.297 423.665 430.923C519.575 375.549 519.572 285.771 423.66 230.397C327.748 175.023 172.245 175.024 76.335 230.397Z" fill="#F5F5F5"/>
<path d="M448.137 230.367C447.639 230.855 446.836 231.536 445.819 232.41C439.426 237.848 424.535 250.503 422.654 268.138L420.601 267.609C420.418 248.276 434.048 228.466 443.43 224.461C443.654 224.369 443.755 224.115 443.664 223.892C443.562 223.668 443.308 223.567 443.085 223.658C433.632 227.683 419.625 247.097 419.727 267.385L418.334 267.029C417.816 265.271 414.756 253.073 423.274 236.881C424.758 234.065 426.415 231.473 428.173 229.166L428.254 229.064C434.18 221.359 441.193 216.958 446.001 218.524C448.461 219.327 450.097 220.974 450.605 223.169C451.176 225.61 450.261 228.304 448.137 230.367Z" fill="white"/>
<path d="M437.19 212.295C433.338 217.814 429.353 223.516 427.503 228.629C425.704 230.967 424.007 233.609 422.502 236.476C419.757 241.68 418.203 246.498 417.359 250.696C416.576 221.331 432.687 198.298 437.606 194.192C437.789 194.04 437.819 193.765 437.657 193.582C437.504 193.399 437.23 193.369 437.047 193.521C431.812 197.882 414.137 223.262 416.708 254.955C416.708 254.965 416.708 254.986 416.718 254.996C416.129 260.881 416.932 265.069 417.358 266.736L414.929 266.004C414.279 263.798 409.217 245.167 413.374 220.488C415.59 207.305 423.233 194.457 431.548 189.954C435.4 187.87 439.171 187.596 442.759 189.161C444.711 190.015 445.869 191.184 446.316 192.749C447.619 197.343 442.547 204.6 437.19 212.295Z" fill="white"/>
<path d="M451.461 222.978C450.882 220.508 448.991 218.587 446.267 217.703C441.652 216.189 435.198 219.716 429.445 226.261C428.795 227.013 428.144 227.796 427.504 228.629C425.705 230.967 424.008 233.609 422.503 236.476C419.758 241.68 418.204 246.498 417.36 250.696C417.065 252.211 416.862 253.654 416.72 254.996C416.131 260.881 416.934 265.069 417.36 266.736C417.482 267.244 417.574 267.519 417.584 267.539C417.625 267.641 417.696 267.722 417.787 267.773L417.868 267.803C417.878 267.813 417.878 267.813 417.888 267.813L419.992 268.352L422.93 269.104C422.991 269.124 423.042 269.124 423.103 269.114C423.164 269.104 423.235 269.083 423.286 269.043C423.388 268.972 423.459 268.85 423.469 268.728C425.085 251.184 440.007 238.489 446.39 233.071C447.416 232.197 448.229 231.506 448.748 230.987C451.085 228.71 452.101 225.712 451.461 222.978ZM448.137 230.367C447.639 230.855 446.836 231.536 445.819 232.41C439.426 237.848 424.535 250.503 422.654 268.138L420.601 267.609L419.727 267.385L418.334 267.029C417.816 265.271 414.756 253.073 423.274 236.881C424.758 234.065 426.415 231.473 428.173 229.166L428.254 229.064C434.18 221.359 441.193 216.958 446.001 218.524C448.461 219.327 450.097 220.974 450.605 223.169C451.176 225.61 450.261 228.304 448.137 230.367Z" fill="#2A2877"/>
<path d="M443.431 224.462C434.049 228.467 420.419 248.277 420.602 267.61V267.946C420.612 268.159 420.45 268.353 420.236 268.383H420.175C420.114 268.383 420.053 268.373 419.992 268.353C419.85 268.282 419.738 268.129 419.738 267.956C419.738 267.773 419.728 267.58 419.728 267.387C419.626 247.099 433.633 227.685 443.086 223.66C443.31 223.568 443.564 223.67 443.665 223.894C443.756 224.116 443.655 224.37 443.431 224.462Z" fill="#2A2877"/>
<path d="M437.902 212.793C434.751 217.306 431.508 221.961 429.445 226.261C428.998 227.196 428.612 228.111 428.286 229.005C428.276 229.025 427.889 229.33 427.727 229.269C427.503 229.188 427.392 228.934 427.473 228.71C427.483 228.679 427.493 228.659 427.503 228.629C429.353 223.516 433.337 217.814 437.19 212.295C442.547 204.6 447.619 197.343 446.318 192.749C445.871 191.184 444.712 190.015 442.761 189.161C439.173 187.596 435.402 187.87 431.55 189.954C423.236 194.457 415.592 207.305 413.376 220.488C409.219 245.167 414.281 263.799 414.931 266.004L417.36 266.736L418.122 266.97C418.346 267.041 418.478 267.285 418.407 267.519C418.356 267.682 418.224 267.793 418.061 267.824C418 267.834 417.929 267.824 417.868 267.804L417.787 267.774L414.453 266.778C414.311 266.737 414.199 266.626 414.158 266.493C414.097 266.3 408.069 246.713 412.511 220.347C414.778 206.92 422.604 193.808 431.132 189.193C435.229 186.967 439.264 186.693 443.106 188.37C445.281 189.315 446.643 190.708 447.151 192.517C448.564 197.495 443.39 204.926 437.902 212.793Z" fill="#2A2877"/>
<path d="M437.607 194.192C432.688 198.298 416.577 221.331 417.36 250.696C417.391 252.078 417.472 253.481 417.584 254.884C417.604 255.118 417.442 255.321 417.218 255.351C417.208 255.351 417.188 255.351 417.177 255.361C416.953 255.371 416.76 255.219 416.72 254.995C416.71 254.985 416.71 254.964 416.71 254.954C414.139 223.261 431.814 197.881 437.049 193.52C437.232 193.368 437.506 193.398 437.659 193.581C437.82 193.765 437.79 194.04 437.607 194.192Z" fill="#2A2877"/>
<path d="M277.336 86.1529L268.008 91.5389C268.054 91.1219 268.087 90.7089 268.087 90.3039V87.6019C268.087 82.7929 264.711 80.8429 260.545 83.2479C258.858 84.2219 257.307 85.7649 256.05 87.5699C255.368 81.5229 250.623 79.2699 244.861 82.5969C238.63 86.1949 233.579 94.9439 233.579 102.139V106.182C233.579 108.046 233.924 109.615 234.534 110.866L226.785 115.34C224.475 116.674 222.602 119.918 222.602 122.585C222.602 125.253 224.475 126.334 226.785 125L277.336 95.8139C279.646 94.4799 281.519 91.2359 281.519 88.5679C281.52 85.8999 279.647 84.8189 277.336 86.1529Z" fill="#EBEBEB"/>
<path d="M334.469 91.9789L327.429 96.0439C327.464 95.7299 327.488 95.4169 327.488 95.1119V93.0719C327.488 89.4419 324.94 87.9709 321.797 89.7859C320.524 90.5209 319.353 91.6849 318.405 93.0479C317.89 88.4839 314.309 86.7839 309.96 89.2949C305.257 92.0099 301.445 98.6129 301.445 104.043V107.094C301.445 108.501 301.705 109.685 302.166 110.629L296.318 114.005C294.574 115.012 293.161 117.46 293.161 119.473C293.161 121.486 294.574 122.302 296.318 121.296L334.469 99.2689C336.213 98.2619 337.626 95.8139 337.626 93.8009C337.626 91.7879 336.212 90.9719 334.469 91.9789Z" fill="#EBEBEB"/>
<path d="M277.977 399.248L270.5 394.93L275.939 391.79C278.771 390.15 279.194 387.829 279.194 386.585C279.191 385.348 278.766 383.027 275.934 381.393L262.388 373.572C260.886 372.705 259.103 372.264 257.08 372.262C255.063 372.263 253.28 372.705 251.781 373.57L242.643 378.847L195.418 351.581C193.917 350.716 192.136 350.276 190.119 350.274C188.106 350.274 186.322 350.714 184.813 351.582L165.512 362.726C163.846 363.69 162.753 364.64 162.052 365.742C161.219 367.075 160.962 368.716 161.308 370.717L171.298 420.705C171.878 423.216 173.76 425.405 176.891 427.211L190.437 435.032C191.94 435.9 193.72 436.34 195.727 436.34H195.737C197.756 436.34 199.541 435.9 201.04 435.033L239.447 412.857L250.631 419.314C252.135 420.182 253.914 420.622 255.943 420.622C257.951 420.622 259.733 420.183 261.238 419.315L277.97 409.652C280.808 408.023 281.235 405.697 281.237 404.441C281.236 403.204 280.809 400.881 277.977 399.248ZM203.601 401.386L201.357 390.128L212.229 396.405L203.601 401.386Z" fill="#E0E0E0"/>
<path d="M63.294 395.346C71.001 398.156 78.372 401.919 85.195 406.528C92.864 411.708 99.868 417.966 108.042 422.268C118.665 427.859 130.878 429.883 142.838 429.308C149.612 428.983 156.983 427.501 161.336 422.158C162.451 420.79 163.341 419.13 163.37 417.354C163.413 414.746 161.637 412.508 159.797 410.712C149.983 401.13 136.253 397.186 123.008 394.102C109.763 391.018 101.828 387.165 88.839 380.225C83.28 377.254 77.803 374.062 72.201 371.261C72.156 371.238 72.11 371.216 72.065 371.193C69.221 369.779 66.551 368.215 63.551 367.111C59.718 365.701 56.542 364.674 52.314 364.986C48.103 365.297 43.359 365.236 40.39 368.666C37.813 371.644 37.532 375.667 39.069 379.21C43.176 388.678 54.431 392.115 63.294 395.346Z" fill="#E0E0E0"/>
<path d="M353.188 321.453C349.803 319.303 346.06 317.042 342.062 314.733C338.097 312.444 334.099 310.236 330.15 308.155C325.091 305.543 319.519 303.39 313.587 301.752C307.604 300.102 301.289 299.227 294.82 299.147L293.946 299.143C287.772 299.143 281.371 299.936 274.922 301.502C268.129 303.155 261.308 305.943 254.645 309.789C247.746 313.773 242.899 317.752 239.829 321.959C236.618 326.367 235.068 330.831 235.224 335.23C235.382 339.623 237.11 343.837 240.352 347.75C243.3 351.317 247.152 354.648 251.828 357.671C255.327 359.886 259.156 362.197 263.209 364.537C267.261 366.877 271.175 369.037 274.862 370.966C279.934 373.585 285.508 375.738 291.425 377.369C297.408 379.021 303.723 379.897 310.193 379.973L311.07 379.978C317.259 379.978 323.659 379.185 330.091 377.619C336.882 375.966 343.705 373.179 350.367 369.332C357.271 365.345 362.117 361.366 365.183 357.165C368.398 352.759 369.948 348.292 369.789 343.891C369.631 339.504 367.905 335.291 364.659 331.37C361.707 327.8 357.855 324.469 353.188 321.453ZM330.211 347.93C329.865 348.457 328.885 349.569 326.213 351.111C324.003 352.387 321.824 353.267 319.733 353.726C318.066 354.092 316.402 354.277 314.787 354.277C314.347 354.277 313.907 354.264 313.466 354.237C311.424 354.112 309.406 353.717 307.465 353.061C305.397 352.361 303.326 351.462 301.259 350.359C293.747 346.507 286.635 342.4 280.06 338.116C278.287 337.011 276.849 335.888 275.785 334.784C275.004 333.971 274.513 333.188 274.367 332.537C274.34 332.411 274.256 332.026 274.802 331.193C275.146 330.669 276.123 329.559 278.799 328.014C281.014 326.735 283.195 325.855 285.277 325.399C286.882 325.047 288.472 324.869 290.005 324.869C290.487 324.869 290.964 324.886 291.435 324.921C293.464 325.071 295.48 325.481 297.423 326.138C299.53 326.851 301.68 327.744 303.726 328.75C311.015 332.573 318.15 336.693 324.953 341.006C326.755 342.135 328.241 343.269 329.364 344.375C330.118 345.12 330.577 345.834 330.689 346.44C330.716 346.586 330.798 347.034 330.211 347.93Z" fill="#E0E0E0"/>
<path d="M464.659 291.465L457.181 287.147L462.621 284.007C465.453 282.368 465.875 280.047 465.875 278.808C465.875 277.572 465.452 275.253 462.616 273.609L449.072 265.791C447.574 264.924 445.791 264.483 443.76 264.478C441.744 264.482 439.963 264.922 438.462 265.788L429.324 271.065L382.1 243.8C380.601 242.935 378.818 242.493 376.799 242.492C374.788 242.492 373.003 242.93 371.494 243.799L352.195 254.941C350.532 255.903 349.437 256.851 348.729 257.961C347.898 259.295 347.642 260.936 347.988 262.935L357.98 312.923C358.56 315.434 360.441 317.622 363.571 319.429L377.117 327.249C378.619 328.119 380.4 328.559 382.409 328.559H382.419C384.435 328.559 386.219 328.119 387.722 327.251L426.129 305.077L437.313 311.534C438.816 312.402 440.601 312.842 442.625 312.842C444.635 312.842 446.416 312.402 447.918 311.534L464.65 301.872C467.483 300.246 467.915 297.922 467.919 296.655C467.916 295.415 467.487 293.099 464.659 291.465ZM390.281 293.604L388.037 282.346L398.909 288.623L390.281 293.604Z" fill="#E0E0E0"/>
<path d="M274.642 389.583L257.898 399.244C256.964 399.792 255.809 400.059 254.446 400.059C253.083 400.059 251.942 399.792 251.008 399.244L237.968 391.717L197.708 414.966C196.774 415.5 195.619 415.781 194.255 415.781C192.892 415.781 191.751 415.5 190.803 414.966L177.26 407.142C175.037 405.868 173.763 404.49 173.422 403.008L163.45 353.132C163.391 352.806 163.376 352.51 163.376 352.243C163.376 353.206 163.361 365.653 163.376 366.261C163.376 366.498 163.406 366.75 163.45 367.032L173.422 416.908C173.763 418.39 175.037 419.768 177.26 421.042L190.803 428.866C191.751 429.4 192.892 429.681 194.255 429.681C195.618 429.681 196.774 429.4 197.708 428.866L237.968 405.617L251.008 413.144C251.942 413.692 253.082 413.959 254.446 413.959C255.809 413.959 256.965 413.692 257.898 413.144L274.642 403.483C275.576 402.935 276.05 402.283 276.05 401.483V387.584C276.05 388.368 275.576 389.035 274.642 389.583Z" fill="#2A2877"/>
<path d="M274.005 383.626V369.727C274.005 370.512 273.531 371.179 272.597 371.727L261.602 378.069L273.471 384.915C273.813 384.53 274.005 384.1 274.005 383.626Z" fill="#2A2877"/>
<path d="M197.784 381.671L206.111 386.501L218.158 379.552L194.642 365.964L197.769 381.671H197.784Z" fill="#2A2877"/>
<path opacity="0.35" d="M197.784 381.671L206.111 386.501L218.158 379.552L194.642 365.964L197.769 381.671H197.784Z" fill="black"/>
<path opacity="0.2" d="M274.005 383.626V369.727C274.005 370.512 273.531 371.179 272.597 371.727L261.602 378.069L273.471 384.915C273.813 384.53 274.005 384.1 274.005 383.626Z" fill="black"/>
<path opacity="0.2" d="M274.642 389.583L257.898 399.244C256.964 399.792 255.809 400.059 254.446 400.059V413.958C255.809 413.958 256.965 413.691 257.898 413.143L274.642 403.482C275.576 402.934 276.05 402.282 276.05 401.482V387.583C276.05 388.368 275.576 389.035 274.642 389.583Z" fill="black"/>
<path opacity="0.25" d="M173.423 403.008L163.451 353.132C163.392 352.806 163.377 352.51 163.377 352.243C163.377 353.206 163.362 365.653 163.377 366.261C163.377 366.498 163.407 366.75 163.451 367.032L173.423 416.908C173.482 417.189 173.586 417.471 173.734 417.753V403.854C173.586 403.571 173.482 403.289 173.423 403.008Z" fill="black"/>
<path opacity="0.35" d="M194.257 415.781C192.894 415.781 191.753 415.5 190.805 414.966L177.262 407.142C175.469 406.12 174.284 405.023 173.735 403.852V417.751C174.283 418.922 175.469 420.018 177.262 421.04L190.805 428.864C191.753 429.398 192.894 429.679 194.257 429.679C194.39 429.679 194.509 429.679 194.642 429.649V415.75C194.509 415.781 194.39 415.781 194.257 415.781Z" fill="black"/>
<path opacity="0.2" d="M197.709 414.966C196.864 415.455 195.842 415.722 194.642 415.751V429.65C195.842 429.62 196.865 429.354 197.709 428.865L237.969 405.616V391.717L197.709 414.966Z" fill="black"/>
<path opacity="0.35" d="M251.008 399.244L237.968 391.717V405.616L251.008 413.143C251.942 413.691 253.082 413.958 254.446 413.958V400.059C253.083 400.059 251.942 399.793 251.008 399.244Z" fill="black"/>
<path d="M257.905 399.245C256.965 399.787 255.814 400.058 254.452 400.056C253.089 400.056 251.941 399.785 251.003 399.244L237.967 391.718L197.708 414.963C196.771 415.504 195.624 415.774 194.257 415.774C192.892 415.775 191.746 415.503 190.808 414.962L177.262 407.141C175.046 405.862 173.769 404.485 173.427 403.009L163.459 353.129C163.289 352.145 163.375 351.383 163.713 350.842C164.057 350.302 164.781 349.71 165.887 349.07L185.184 337.929C186.121 337.39 187.272 337.119 188.637 337.117C190 337.119 191.15 337.389 192.085 337.929L241.161 366.263L252.152 359.917C253.087 359.377 254.241 359.107 255.604 359.104C256.969 359.107 258.117 359.376 259.054 359.917L272.6 367.738C273.538 368.279 274.007 368.944 274.007 369.729C274.007 370.518 273.535 371.182 272.6 371.722L261.609 378.068L274.643 385.593C275.583 386.136 276.05 386.799 276.052 387.585C276.05 388.373 275.581 389.038 274.643 389.577L257.905 399.245ZM218.155 379.544L194.641 365.968L199.496 390.317L218.155 379.544Z" fill="#2A2877"/>
<path d="M364.615 327.867C364.556 331.216 363.237 334.639 360.703 338.121C357.976 341.855 353.427 345.574 347.026 349.264C340.639 352.954 334.209 355.576 327.733 357.162C321.257 358.733 314.931 359.489 308.751 359.414C302.587 359.34 296.63 358.51 290.925 356.939C285.22 355.368 279.93 353.323 275.07 350.805C271.41 348.894 267.587 346.775 263.572 344.463C259.571 342.152 255.822 339.899 252.325 337.677C247.983 334.876 244.442 331.824 241.73 328.534C238.989 325.23 237.566 321.807 237.448 318.236C237.522 320.444 237.359 329.705 237.448 332.135C237.566 335.706 238.989 339.129 241.73 342.433C244.442 345.723 247.983 348.775 252.325 351.576C255.822 353.799 259.571 356.051 263.572 358.362C267.587 360.674 271.411 362.792 275.07 364.719C279.93 367.223 285.22 369.268 290.925 370.839C296.63 372.41 302.587 373.239 308.751 373.313C314.93 373.387 321.257 372.631 327.733 371.061C334.208 369.475 340.639 366.853 347.026 363.163C353.427 359.474 357.976 355.754 360.703 352.02C363.429 348.286 364.733 344.626 364.6 341.07C364.526 339.025 364.66 331.024 364.615 327.867Z" fill="#2A2877"/>
<path opacity="0.35" d="M312.164 359.341C311.024 359.383 309.883 359.427 308.753 359.414C302.589 359.34 296.632 358.51 290.927 356.939C285.222 355.368 279.932 353.323 275.072 350.805C271.412 348.894 267.589 346.775 263.574 344.463C259.573 342.152 255.824 339.899 252.327 337.677C247.985 334.876 244.444 331.824 241.732 328.534C238.991 325.23 237.568 321.807 237.45 318.236C237.524 320.444 237.361 329.705 237.45 332.135C237.568 335.706 238.991 339.129 241.732 342.433C244.444 345.723 247.985 348.775 252.327 351.576C255.824 353.799 259.573 356.051 263.574 358.362C267.589 360.674 271.413 362.792 275.072 364.719C279.932 367.223 285.222 369.268 290.927 370.839C296.632 372.41 302.589 373.239 308.753 373.313C309.883 373.327 311.024 373.282 312.164 373.24V359.341Z" fill="black"/>
<path opacity="0.2" d="M364.615 327.867C364.556 331.216 363.237 334.639 360.703 338.121C357.976 341.855 353.427 345.574 347.026 349.264C340.639 352.954 334.209 355.576 327.733 357.162C322.443 358.445 317.257 359.154 312.164 359.341V373.24C317.256 373.053 322.442 372.344 327.733 371.061C334.208 369.475 340.639 366.853 347.026 363.163C353.427 359.474 357.976 355.754 360.703 352.02C363.429 348.286 364.733 344.626 364.6 341.07C364.526 339.025 364.66 331.024 364.615 327.867Z" fill="black"/>
<path d="M271.634 320.488C272.346 321.229 273.175 321.97 274.124 322.681C274.554 322.399 274.983 322.118 275.458 321.836C278.021 320.369 280.525 319.361 283 318.813C285.474 318.279 287.89 318.087 290.231 318.265C292.572 318.443 294.869 318.902 297.136 319.658C299.388 320.429 301.67 321.377 303.967 322.503C311.376 326.4 318.533 330.519 325.438 334.905C326.342 335.468 327.171 336.045 327.926 336.608C329.749 335.431 331.069 334.264 331.824 333.097C332.757 331.674 333.098 330.267 332.846 328.889C332.594 327.526 331.809 326.177 330.49 324.873C329.156 323.569 327.482 322.28 325.437 321.006C318.532 316.62 311.375 312.486 303.966 308.604C301.669 307.478 299.387 306.529 297.135 305.759C294.868 305.003 292.571 304.544 290.23 304.366C287.889 304.188 285.474 304.381 282.999 304.914C280.524 305.462 278.02 306.47 275.457 307.937C272.908 309.419 271.16 310.871 270.226 312.293C269.293 313.716 268.967 315.108 269.263 316.457C269.575 317.821 270.36 319.155 271.634 320.488Z" fill="#2A2877"/>
<path opacity="0.35" d="M271.634 320.488C272.346 321.229 273.175 321.97 274.124 322.681C274.554 322.399 274.983 322.118 275.458 321.836C278.021 320.369 280.525 319.361 283 318.813C285.474 318.279 287.89 318.087 290.231 318.265C292.572 318.443 294.869 318.902 297.136 319.658C299.388 320.429 301.67 321.377 303.967 322.503C311.376 326.4 318.533 330.519 325.438 334.905C326.342 335.468 327.171 336.045 327.926 336.608C329.749 335.431 331.069 334.264 331.824 333.097C332.757 331.674 333.098 330.267 332.846 328.889C332.594 327.526 331.809 326.177 330.49 324.873C329.156 323.569 327.482 322.28 325.437 321.006C318.532 316.62 311.375 312.486 303.966 308.604C301.669 307.478 299.387 306.529 297.135 305.759C294.868 305.003 292.571 304.544 290.23 304.366C287.889 304.188 285.474 304.381 282.999 304.914C280.524 305.462 278.02 306.47 275.457 307.937C272.908 309.419 271.16 310.871 270.226 312.293C269.293 313.716 268.967 315.108 269.263 316.457C269.575 317.821 270.36 319.155 271.634 320.488Z" fill="black"/>
<path d="M255.016 296.135C261.405 292.446 267.842 289.814 274.317 288.239C280.792 286.667 287.12 285.916 293.295 285.989C299.47 286.066 305.415 286.888 311.122 288.462C316.831 290.037 322.113 292.078 326.971 294.585C330.804 296.605 334.724 298.768 338.729 301.08C342.734 303.392 346.395 305.606 349.721 307.719C354.064 310.524 357.601 313.575 360.327 316.87C363.055 320.166 364.481 323.6 364.61 327.162C364.738 330.728 363.439 334.383 360.713 338.119C357.984 341.857 353.425 345.573 347.036 349.262C340.647 352.951 334.213 355.582 327.737 357.158C321.265 358.733 314.937 359.482 308.759 359.408C302.584 359.335 296.636 358.512 290.932 356.935C285.221 355.362 279.939 353.32 275.081 350.813C271.417 348.894 267.586 346.779 263.581 344.467C259.576 342.155 255.826 339.893 252.331 337.678C247.988 334.873 244.451 331.824 241.727 328.527C238.997 325.233 237.573 321.801 237.444 318.235C237.318 314.67 238.617 311.017 241.341 307.278C244.07 303.54 248.626 299.825 255.016 296.135ZM325.436 321.003C318.533 316.626 311.377 312.494 303.965 308.607C301.666 307.477 299.385 306.53 297.129 305.766C294.871 305.004 292.57 304.538 290.226 304.364C287.884 304.193 285.473 304.377 283.004 304.918C280.533 305.459 278.022 306.468 275.464 307.943C272.91 309.419 271.162 310.869 270.225 312.296C269.288 313.723 268.97 315.114 269.265 316.465C269.567 317.818 270.353 319.158 271.63 320.487C272.908 321.816 274.57 323.12 276.615 324.397C283.259 328.727 290.418 332.86 298.086 336.793C300.3 337.975 302.537 338.944 304.795 339.708C307.049 340.471 309.373 340.927 311.759 341.072C314.147 341.22 316.575 341.024 319.044 340.482C321.516 339.941 324.03 338.933 326.584 337.457C329.142 335.982 330.886 334.531 331.823 333.104C332.76 331.679 333.104 330.276 332.846 328.898C332.591 327.521 331.802 326.181 330.483 324.877C329.161 323.574 327.478 322.282 325.436 321.003Z" fill="#2A2877"/>
<path d="M461.324 281.8L444.58 291.461C443.646 292.009 442.491 292.276 441.128 292.276C439.765 292.276 438.624 292.009 437.69 291.461L424.65 283.934L384.391 307.183C383.458 307.716 382.302 307.998 380.938 307.998C379.575 307.998 378.434 307.717 377.486 307.183L363.943 299.359C361.72 298.085 360.446 296.707 360.105 295.225L350.133 245.349C350.074 245.023 350.059 244.727 350.059 244.46C350.059 245.423 350.044 257.87 350.059 258.477C350.059 258.714 350.089 258.966 350.133 259.248L360.105 309.124C360.446 310.606 361.72 311.984 363.943 313.258L377.486 321.082C378.434 321.615 379.575 321.897 380.938 321.897C382.301 321.897 383.457 321.615 384.391 321.082L424.65 297.833L437.69 305.36C438.624 305.908 439.764 306.175 441.128 306.175C442.491 306.175 443.647 305.908 444.58 305.36L461.324 295.699C462.258 295.151 462.732 294.499 462.732 293.699V279.8C462.732 280.585 462.258 281.252 461.324 281.8Z" fill="#2A2877"/>
<path d="M460.687 275.844V261.945C460.687 262.73 460.213 263.397 459.279 263.945L448.284 270.287L460.153 277.133C460.494 276.748 460.687 276.318 460.687 275.844Z" fill="#2A2877"/>
<path d="M384.465 273.888L392.792 278.718L404.839 271.769L381.323 258.181L384.45 273.888H384.465Z" fill="#2A2877"/>
<path opacity="0.35" d="M384.465 273.888L392.792 278.718L404.839 271.769L381.323 258.181L384.45 273.888H384.465Z" fill="black"/>
<path opacity="0.2" d="M460.687 275.844V261.945C460.687 262.73 460.213 263.397 459.279 263.945L448.284 270.287L460.153 277.133C460.494 276.748 460.687 276.318 460.687 275.844Z" fill="black"/>
<path opacity="0.2" d="M461.324 281.8L444.58 291.461C443.646 292.009 442.491 292.276 441.128 292.276V306.175C442.491 306.175 443.647 305.908 444.58 305.36L461.324 295.699C462.258 295.151 462.732 294.499 462.732 293.699V279.8C462.732 280.585 462.258 281.252 461.324 281.8Z" fill="black"/>
<path opacity="0.25" d="M360.104 295.225L350.132 245.349C350.073 245.023 350.058 244.727 350.058 244.46C350.058 245.423 350.043 257.87 350.058 258.477C350.058 258.714 350.088 258.966 350.132 259.248L360.104 309.124C360.163 309.406 360.267 309.687 360.415 309.969V296.07C360.267 295.788 360.164 295.507 360.104 295.225Z" fill="black"/>
<path opacity="0.35" d="M380.938 307.998C379.575 307.998 378.434 307.717 377.486 307.183L363.943 299.359C362.15 298.337 360.965 297.24 360.416 296.069V309.968C360.964 311.139 362.15 312.235 363.943 313.258L377.486 321.082C378.434 321.615 379.575 321.897 380.938 321.897C381.072 321.897 381.19 321.897 381.323 321.867V307.968C381.19 307.998 381.072 307.998 380.938 307.998Z" fill="black"/>
<path opacity="0.2" d="M384.391 307.183C383.546 307.672 382.524 307.939 381.324 307.968V321.867C382.524 321.837 383.547 321.571 384.391 321.082L424.65 297.833V283.934L384.391 307.183Z" fill="black"/>
<path opacity="0.35" d="M437.69 291.461L424.65 283.934V297.833L437.69 305.36C438.624 305.908 439.764 306.175 441.128 306.175V292.276C439.764 292.276 438.623 292.01 437.69 291.461Z" fill="black"/>
<path d="M444.586 291.462C443.647 292.004 442.495 292.275 441.133 292.274C439.77 292.274 438.622 292.003 437.685 291.462L424.649 283.936L384.39 307.181C383.453 307.722 382.306 307.992 380.939 307.992C379.574 307.993 378.428 307.721 377.49 307.18L363.944 299.359C361.728 298.08 360.45 296.703 360.109 295.227L350.141 245.347C349.972 244.363 350.057 243.601 350.395 243.06C350.739 242.519 351.463 241.928 352.569 241.288L371.866 230.147C372.803 229.608 373.954 229.337 375.319 229.336C376.682 229.337 377.832 229.608 378.767 230.148L427.843 258.482L438.834 252.136C439.769 251.595 440.922 251.326 442.285 251.323C443.65 251.326 444.798 251.595 445.735 252.136L459.281 259.957C460.219 260.498 460.688 261.163 460.688 261.948C460.688 262.737 460.216 263.401 459.281 263.941L448.29 270.287L461.324 277.812C462.264 278.355 462.731 279.018 462.733 279.804C462.731 280.592 462.262 281.257 461.324 281.796L444.586 291.462ZM404.836 271.762L381.323 258.186L386.178 282.535L404.836 271.762Z" fill="#2A2877"/>
<path d="M356.495 398.034C356.723 397.901 357.005 397.835 357.339 397.835C357.671 397.835 357.952 397.902 358.181 398.034L361.492 399.946C361.721 400.078 361.837 400.241 361.835 400.432C361.835 400.625 361.721 400.787 361.492 400.919L346.686 409.467C346.457 409.599 346.176 409.666 345.842 409.665C345.51 409.666 345.228 409.6 344.998 409.467L324.819 397.817C324.591 397.685 324.475 397.523 324.474 397.33C324.475 397.138 324.589 396.976 324.819 396.844L339.376 388.439C339.604 388.307 339.886 388.24 340.219 388.24C340.554 388.24 340.835 388.306 341.064 388.439L344.375 390.351C344.603 390.483 344.716 390.645 344.718 390.837C344.717 391.03 344.604 391.192 344.375 391.324L334.753 396.879L338.127 398.827L347.062 393.669C347.29 393.537 347.571 393.47 347.906 393.47C348.238 393.47 348.519 393.537 348.748 393.669L352.059 395.581C352.288 395.713 352.404 395.876 352.402 396.067C352.403 396.261 352.288 396.422 352.059 396.554L343.126 401.712L346.625 403.732L356.495 398.034Z" fill="#455A64"/>
<path d="M361.429 382.199C361.657 382.067 361.94 382.001 362.273 382.001C362.606 382.001 362.887 382.066 363.118 382.2L366.273 384.021C366.501 384.153 366.614 384.315 366.615 384.507C366.614 384.7 366.501 384.862 366.273 384.994L363.43 386.635C361.514 387.742 361.513 388.847 363.43 389.953L371.114 394.39C371.343 394.522 371.458 394.685 371.457 394.876C371.457 395.069 371.343 395.231 371.114 395.363L367.178 397.635C366.949 397.768 366.668 397.833 366.334 397.833C366.001 397.833 365.72 397.768 365.49 397.635L350.934 389.231C350.704 389.098 350.59 388.936 350.59 388.744C350.591 388.551 350.704 388.39 350.934 388.257L354.558 386.165C354.786 386.033 355.068 385.967 355.401 385.967C355.734 385.967 356.016 386.032 356.246 386.166L356.964 386.58C356.985 386.04 357.187 385.49 357.573 384.93C357.958 384.371 358.619 383.82 359.556 383.279L361.429 382.199Z" fill="#455A64"/>
<path d="M376.547 373.471C376.775 373.338 377.058 373.272 377.391 373.272C377.724 373.272 378.005 373.338 378.236 373.471L381.391 375.293C381.62 375.425 381.733 375.588 381.733 375.779C381.733 375.972 381.62 376.134 381.391 376.266L378.548 377.907C376.632 379.014 376.631 380.119 378.548 381.225L386.232 385.662C386.461 385.794 386.576 385.957 386.575 386.148C386.575 386.341 386.461 386.503 386.232 386.635L382.296 388.907C382.067 389.04 381.786 389.105 381.452 389.105C381.12 389.106 380.838 389.04 380.609 388.907L366.053 380.503C365.823 380.37 365.708 380.208 365.708 380.016C365.709 379.824 365.822 379.662 366.051 379.529L369.675 377.438C369.903 377.306 370.186 377.24 370.518 377.239C370.852 377.239 371.132 377.305 371.363 377.438L372.081 377.853C372.103 377.312 372.305 376.762 372.69 376.202C373.075 375.643 373.736 375.093 374.673 374.552L376.547 373.471Z" fill="#455A64"/>
<path d="M403.412 365.968C403.745 366.137 404.156 366.362 404.646 366.644C405.136 366.928 405.525 367.165 405.818 367.357C406.775 367.958 407.483 368.631 407.942 369.377C408.399 370.122 408.593 370.896 408.521 371.695C408.447 372.495 408.082 373.3 407.426 374.111C406.77 374.923 405.806 375.695 404.536 376.429C403.266 377.163 401.927 377.719 400.523 378.098C399.117 378.476 397.722 378.688 396.338 378.729C394.952 378.772 393.613 378.66 392.322 378.395C391.032 378.13 389.865 377.721 388.824 377.168C388.491 377 388.081 376.775 387.59 376.492C387.101 376.209 386.711 375.972 386.418 375.779C385.44 375.19 384.721 374.522 384.264 373.777C383.805 373.032 383.618 372.256 383.701 371.451C383.784 370.645 384.15 369.834 384.795 369.016C385.44 368.198 386.398 367.423 387.669 366.689C388.94 365.955 390.283 365.403 391.699 365.029C393.116 364.657 394.52 364.446 395.916 364.398C397.311 364.35 398.65 364.462 399.93 364.733C401.209 365.003 402.371 365.415 403.412 365.968ZM394.292 373.831C395.146 374.252 396.051 374.444 397.009 374.408C397.967 374.372 398.863 374.114 399.696 373.633C400.529 373.153 400.976 372.636 401.039 372.083C401.102 371.53 400.768 371.007 400.039 370.514C399.768 370.31 399.436 370.093 399.038 369.865C398.643 369.637 398.268 369.444 397.914 369.287C397.059 368.866 396.155 368.675 395.197 368.71C394.237 368.747 393.342 369.005 392.509 369.485C391.676 369.966 391.229 370.484 391.167 371.037C391.104 371.59 391.437 372.113 392.167 372.606C392.437 372.81 392.77 373.027 393.166 373.255C393.563 373.483 393.936 373.675 394.292 373.831Z" fill="#455A64"/>
<path d="M411.533 353.271C411.762 353.139 412.044 353.073 412.377 353.072C412.71 353.073 412.991 353.138 413.222 353.271L416.377 355.093C416.606 355.225 416.719 355.387 416.719 355.579C416.719 355.772 416.606 355.934 416.377 356.066L413.534 357.707C411.618 358.814 411.617 359.919 413.534 361.025L421.218 365.462C421.447 365.594 421.562 365.757 421.561 365.948C421.561 366.141 421.447 366.303 421.218 366.435L417.282 368.707C417.053 368.839 416.772 368.905 416.438 368.905C416.106 368.905 415.824 368.84 415.595 368.707L401.039 360.303C400.809 360.17 400.694 360.008 400.694 359.816C400.695 359.623 400.808 359.461 401.037 359.329L404.661 357.237C404.89 357.105 405.172 357.04 405.504 357.04C405.837 357.04 406.119 357.105 406.35 357.238L407.067 357.652C407.089 357.112 407.291 356.562 407.676 356.002C408.061 355.443 408.722 354.893 409.659 354.351L411.533 353.271Z" fill="#455A64"/>
<path d="M311.254 222.46C312.122 218.397 295.547 227.966 294.68 232.029L300.021 246.404C300.225 246.873 300.543 247.22 300.916 247.45C302.09 248.172 306.407 250.607 306.783 250.837C307.965 251.56 309.705 251.107 310.197 249.569L317.115 225.843C317.543 223.84 311.254 222.46 311.254 222.46Z" fill="#2A2877"/>
<path opacity="0.25" d="M311.254 222.46C312.122 218.397 295.547 227.966 294.68 232.029L300.021 246.404C300.225 246.873 300.543 247.22 300.916 247.45C302.09 248.172 306.407 250.607 306.783 250.837C307.965 251.56 309.705 251.107 310.197 249.569L317.115 225.843C317.543 223.84 311.254 222.46 311.254 222.46Z" fill="black"/>
<path d="M363.083 114.756L224.807 194.532C223.578 195.241 222.582 196.965 222.582 198.383V274.423C222.582 275.842 223.58 277.563 224.811 278.267L226.199 279.061C227.43 279.765 229.424 279.761 230.652 279.052L368.929 199.187C370.157 198.478 371.153 196.753 371.153 195.334V119.386C371.153 117.967 370.155 116.247 368.924 115.542L367.536 114.748C366.306 114.044 364.312 114.047 363.083 114.756Z" fill="#2A2877"/>
<path opacity="0.25" d="M363.083 114.756L224.807 194.532C223.578 195.241 222.582 196.965 222.582 198.383V274.423C222.582 275.842 223.58 277.563 224.811 278.267L226.199 279.061C227.43 279.765 229.424 279.761 230.652 279.052L368.929 199.187C370.157 198.478 371.153 196.753 371.153 195.334V119.386C371.153 117.967 370.155 116.247 368.924 115.542L367.536 114.748C366.306 114.044 364.312 114.047 363.083 114.756Z" fill="black"/>
<path d="M371.156 119.388V120.261C371.156 118.686 369.444 117.701 368.074 118.489L231.488 197.395C230.538 197.934 229.776 198.713 229.253 199.63C229.236 199.655 229.227 199.673 229.219 199.698L223.209 196.231C223.62 195.52 224.176 194.895 224.81 194.536L363.082 114.757C364.315 114.046 366.31 114.046 367.534 114.749L368.921 115.545C370.154 116.246 371.156 117.967 371.156 119.388Z" fill="#2A2877"/>
<path opacity="0.45" d="M371.156 119.388V120.261C371.156 118.686 369.444 117.701 368.074 118.489L231.488 197.395C230.538 197.934 229.776 198.713 229.253 199.63C229.236 199.655 229.227 199.673 229.219 199.698L223.209 196.231C223.62 195.52 224.176 194.895 224.81 194.536L363.082 114.757C364.315 114.046 366.31 114.046 367.534 114.749L368.921 115.545C370.154 116.246 371.156 117.967 371.156 119.388Z" fill="white"/>
<path d="M369.1 119.012C368.883 119.012 368.674 119.07 368.478 119.183L231.89 198.087C230.25 199.034 229.23 200.8 229.23 202.695V276.772C229.23 277.192 229.318 278.166 230.132 278.166C230.414 278.166 230.749 278.058 231.102 277.854L301.979 236.934L306.409 249.219C307.26 251.171 310.075 251.028 310.724 249L316.722 228.416L367.682 198.977C369.53 197.915 370.353 196.84 370.353 195.492V120.264C370.353 119.491 369.703 119.012 369.1 119.012Z" fill="white"/>
<path d="M230.133 278.961C229.103 278.961 228.436 278.102 228.436 276.772V202.695C228.436 200.518 229.608 198.489 231.493 197.4L368.081 118.496C368.402 118.312 368.744 118.219 369.101 118.219C370.086 118.219 371.148 119.002 371.148 120.266V195.494C371.148 197.654 369.396 198.91 368.078 199.668L317.396 228.947L311.487 249.224C311.083 250.486 309.984 251.331 308.683 251.397C307.387 251.46 306.204 250.734 305.681 249.538L301.554 238.098L231.5 278.543C231.018 278.82 230.558 278.961 230.133 278.961ZM369.1 119.807C369.024 119.807 368.95 119.828 368.874 119.872L232.288 198.775C230.892 199.581 230.025 201.083 230.025 202.695V276.772C230.025 277.139 230.109 277.35 230.147 277.39C230.183 277.372 230.375 277.357 230.706 277.166L302.404 235.771L307.156 248.949C307.446 249.609 308.099 249.829 308.602 249.809C309.108 249.783 309.733 249.493 309.969 248.757L316.049 227.888L316.326 227.729L367.286 198.289C369.29 197.138 369.56 196.229 369.56 195.492V120.264C369.558 119.922 369.244 119.807 369.1 119.807Z" fill="#2A2877"/>
<path d="M244.693 221.979C244.774 219.604 245.102 217.223 245.684 214.83C246.264 212.438 247.088 210.176 248.154 208.044C249.22 205.911 250.515 203.959 252.041 202.183C253.564 200.41 255.325 198.948 257.323 197.794C259.292 196.657 261.047 196.089 262.586 196.094C264.124 196.101 265.427 196.553 266.494 197.455C267.56 198.357 268.382 199.667 268.964 201.389C269.544 203.111 269.874 205.111 269.955 207.393C270.009 209.148 270.036 211.003 270.036 212.956C270.036 214.909 270.009 216.753 269.955 218.488C269.874 220.86 269.544 223.243 268.964 225.635C268.382 228.027 267.56 230.3 266.494 232.454C265.426 234.606 264.124 236.564 262.586 238.324C261.048 240.084 259.292 241.535 257.323 242.672C255.326 243.825 253.565 244.404 252.041 244.412C250.514 244.42 249.219 243.963 248.154 243.042C247.088 242.119 246.264 240.797 245.684 239.075C245.102 237.353 244.774 235.352 244.693 233.073C244.638 231.401 244.61 229.588 244.61 227.635C244.611 225.683 244.638 223.797 244.693 221.979ZM262.465 222.501C262.492 221.739 262.521 220.891 262.546 219.961C262.573 219.031 262.586 218.09 262.586 217.134C262.586 216.177 262.573 215.261 262.546 214.382C262.521 213.504 262.492 212.722 262.465 212.03C262.411 211.022 262.269 210.148 262.041 209.408C261.813 208.668 261.488 208.097 261.069 207.695C260.65 207.292 260.132 207.082 259.512 207.066C258.89 207.053 258.162 207.285 257.324 207.768C256.487 208.251 255.759 208.86 255.138 209.591C254.516 210.325 253.997 211.133 253.58 212.02C253.159 212.905 252.837 213.851 252.608 214.855C252.378 215.86 252.235 216.898 252.182 217.968C252.128 218.707 252.094 219.525 252.08 220.425C252.067 221.328 252.061 222.255 252.061 223.212C252.061 224.168 252.067 225.098 252.08 226.004C252.093 226.91 252.128 227.723 252.182 228.438C252.291 230.454 252.756 231.909 253.58 232.805C254.402 233.702 255.651 233.666 257.323 232.7C258.996 231.734 260.239 230.331 261.047 228.493C261.858 226.654 262.33 224.656 262.465 222.501Z" fill="#455A64"/>
<path d="M295.338 201.527C295.365 202.134 295.38 202.926 295.38 203.902C295.38 204.879 295.365 205.687 295.338 206.327C295.284 208.351 294.986 210.394 294.449 212.451C293.907 214.507 293.166 216.462 292.221 218.317C291.276 220.17 290.137 221.857 288.8 223.377C287.463 224.897 285.973 226.133 284.327 227.083C282.681 228.034 281.189 228.521 279.852 228.543C278.517 228.567 277.376 228.196 276.431 227.434C275.486 226.67 274.745 225.571 274.205 224.138C273.665 222.704 273.37 221.005 273.314 219.042C273.287 218.433 273.274 217.642 273.274 216.664C273.274 215.688 273.287 214.88 273.314 214.242C273.341 212.231 273.625 210.198 274.165 208.141C274.705 206.083 275.454 204.124 276.412 202.263C277.369 200.4 278.517 198.698 279.852 197.159C281.189 195.62 282.681 194.372 284.327 193.422C285.973 192.472 287.463 191.997 288.8 191.994C290.137 191.99 291.283 192.368 292.242 193.124C293.198 193.879 293.944 194.976 294.468 196.419C294.994 197.862 295.284 199.563 295.338 201.527ZM280.601 214.522C280.684 216.055 281.054 217.076 281.715 217.587C282.376 218.101 283.248 218.043 284.327 217.42C285.406 216.797 286.276 215.849 286.939 214.572C287.6 213.298 287.97 211.849 288.051 210.221C288.105 209.568 288.131 208.845 288.131 208.056C288.131 207.267 288.104 206.576 288.051 205.985C287.97 204.453 287.599 203.431 286.939 202.919C286.276 202.408 285.406 202.463 284.327 203.086C283.248 203.709 282.376 204.66 281.715 205.934C281.054 207.209 280.684 208.66 280.601 210.286C280.547 210.939 280.522 211.661 280.522 212.451C280.522 213.239 280.547 213.931 280.601 214.522Z" fill="#455A64"/>
<path d="M311.857 211.188C311.075 211.64 310.386 211.913 309.792 212.006C309.198 212.099 308.686 212.084 308.254 211.959C307.824 211.833 307.457 211.639 307.161 211.374C306.863 211.11 306.619 210.845 306.433 210.579V223.856C306.433 224.313 306.323 224.769 306.108 225.228C305.891 225.685 305.636 225.998 305.34 226.169L300.237 229.114C299.939 229.286 299.684 229.269 299.467 229.061C299.252 228.852 299.144 228.519 299.144 228.062V187.173C299.144 186.716 299.252 186.261 299.467 185.804C299.684 185.347 299.939 185.032 300.237 184.86L305.137 182.032C305.433 181.861 305.688 181.88 305.907 182.087C306.122 182.295 306.23 182.627 306.23 183.084V184.519C306.472 183.964 306.737 183.373 307.019 182.753C307.302 182.133 307.653 181.525 308.072 180.929C308.491 180.337 309.004 179.748 309.61 179.169C310.219 178.59 310.966 178.043 311.857 177.528C313.073 176.827 314.217 176.446 315.299 176.384C316.376 176.323 317.323 176.648 318.132 177.366C318.942 178.081 319.596 179.191 320.097 180.688C320.596 182.188 320.871 184.147 320.927 186.566C320.954 187.175 320.967 188.008 320.967 189.069C320.967 190.127 320.954 190.978 320.927 191.616C320.871 194.1 320.597 196.378 320.097 198.452C319.596 200.529 318.943 202.391 318.132 204.044C317.323 205.696 316.376 207.124 315.299 208.328C314.217 209.534 313.072 210.487 311.857 211.188ZM313.679 195.052C313.76 193.841 313.76 192.677 313.679 191.56C313.597 190.153 313.285 189.065 312.748 188.297C312.206 187.528 311.304 187.509 310.034 188.242C309.441 188.585 308.928 189.027 308.496 189.566C308.066 190.106 307.709 190.697 307.424 191.338C307.14 191.98 306.917 192.638 306.756 193.313C306.595 193.989 306.485 194.655 306.433 195.308C306.377 195.964 306.35 196.705 306.35 197.537C306.35 198.369 306.377 199.079 306.433 199.672C306.485 200.263 306.594 200.804 306.756 201.292C306.917 201.781 307.14 202.182 307.424 202.497C307.708 202.811 308.065 202.989 308.496 203.03C308.928 203.072 309.441 202.921 310.034 202.578C311.304 201.845 312.206 200.784 312.748 199.391C313.286 198 313.597 196.553 313.679 195.052Z" fill="#455A64"/>
<path d="M336.713 186.489C336.713 186.032 336.613 185.737 336.41 185.605C336.208 185.473 335.864 185.465 335.379 185.578C334.891 185.694 334.252 185.897 333.455 186.19C332.66 186.484 331.667 186.808 330.48 187.161C328.429 187.763 326.85 187.51 325.744 186.403C324.636 185.298 324.085 183.332 324.085 180.507C324.085 179.093 324.312 177.654 324.771 176.183C325.23 174.714 325.871 173.284 326.695 171.893C327.517 170.504 328.51 169.215 329.672 168.024C330.83 166.836 332.127 165.827 333.558 165.001C334.962 164.19 336.256 163.704 337.445 163.536C338.632 163.371 339.656 163.444 340.522 163.755C341.384 164.067 342.066 164.608 342.565 165.379C343.065 166.151 343.341 167.04 343.395 168.048C343.422 168.49 343.32 168.944 343.092 169.409C342.862 169.874 342.598 170.191 342.303 170.362L337.484 173.144C337.186 173.316 336.952 173.348 336.777 173.242C336.602 173.135 336.391 173.028 336.149 172.918C335.907 172.809 335.588 172.764 335.198 172.782C334.806 172.8 334.259 173.012 333.558 173.418C332.938 173.776 332.419 174.21 331.998 174.723C331.579 175.236 331.372 175.801 331.372 176.424C331.372 176.883 331.437 177.196 331.574 177.367C331.711 177.539 331.979 177.581 332.383 177.492C332.79 177.406 333.357 177.234 334.085 176.978C334.815 176.724 335.771 176.4 336.96 176.004C339.414 175.209 341.202 175.456 342.324 176.74C343.444 178.026 344.003 179.915 344.003 182.408C344.003 183.822 343.774 185.274 343.315 186.764C342.856 188.254 342.182 189.725 341.291 191.175C340.402 192.622 339.322 193.985 338.053 195.257C336.783 196.529 335.339 197.634 333.722 198.568C332.101 199.503 330.678 200.043 329.45 200.191C328.221 200.34 327.188 200.22 326.352 199.83C325.517 199.439 324.873 198.855 324.43 198.073C323.984 197.291 323.735 196.417 323.679 195.452C323.654 195.01 323.754 194.556 323.984 194.091C324.213 193.627 324.476 193.307 324.772 193.137L329.794 190.238C330.09 190.067 330.307 190.057 330.441 190.208C330.575 190.359 330.75 190.508 330.967 190.652C331.182 190.798 331.493 190.868 331.897 190.863C332.304 190.857 332.911 190.62 333.722 190.152C334.53 189.685 335.231 189.115 335.825 188.44C336.415 187.764 336.713 187.113 336.713 186.489Z" fill="#455A64"/>
<path d="M354.972 170.588C354.972 171.045 354.863 171.503 354.648 171.96C354.431 172.417 354.175 172.73 353.88 172.901L348.779 175.846C348.481 176.018 348.224 176.001 348.009 175.793C347.792 175.585 347.686 175.251 347.686 174.794V147.931C347.686 147.474 347.792 147.017 348.009 146.56C348.224 146.103 348.481 145.788 348.779 145.616L353.88 142.671C354.176 142.5 354.431 142.519 354.648 142.726C354.863 142.934 354.972 143.267 354.972 143.724V170.588ZM354.972 183.989C354.972 184.446 354.863 184.902 354.648 185.359C354.431 185.818 354.175 186.131 353.88 186.302L348.779 189.247C348.481 189.419 348.224 189.401 348.009 189.192C347.792 188.985 347.686 188.652 347.686 188.195V181.899C347.686 181.442 347.792 180.987 348.009 180.528C348.224 180.071 348.481 179.758 348.779 179.586L353.88 176.641C354.176 176.47 354.431 176.487 354.648 176.695C354.863 176.904 354.972 177.236 354.972 177.693V183.989Z" fill="#455A64"/>
<path d="M158.616 216.285C159.318 217.745 159.964 219.254 160.262 220.858C160.995 224.795 159.577 228.767 158.794 232.693C158.529 234.019 158.441 235.237 159.392 236.275C159.588 236.489 159.856 236.69 160.133 236.625C160.372 236.569 160.528 236.334 160.657 236.116C161.595 234.525 162.35 232.816 162.901 231.036C163.009 232.729 162.95 234.434 162.725 236.115C162.546 237.454 162.266 238.85 162.68 240.13C163.095 241.411 164.54 242.44 165.681 241.809C166.428 241.396 166.75 240.471 167.01 239.628C167.319 238.625 167.628 237.621 167.936 236.618C168.367 235.217 168.799 233.813 169.072 232.369C170.052 227.186 168.848 221.591 165.842 217.351C165.044 216.226 164.08 215.159 162.832 214.656C161.669 214.187 160.316 214.266 159.211 214.868C158.498 215.256 158.254 215.532 158.616 216.285Z" fill="#F28F8F"/>
<path d="M171.42 223.158C170.994 217.911 170.813 212.407 169.834 207.44C168.854 202.472 166.771 183.362 165.839 178.048C164.613 171.065 162.939 166.666 161.916 162.34C160.772 157.501 159.815 150.881 157.779 140.3C155.763 129.823 153.26 123.862 148.05 120.455C143.272 117.331 139.234 116.599 135.024 116.475C133.843 119.715 134.928 131.062 134.928 131.062C134.928 131.062 139.979 155.243 140.468 158.205C140.958 161.167 146.359 174.771 149.939 185.83C151.993 192.178 155.091 201.105 155.091 201.105C156.026 205.055 156.365 206.317 155.571 209.45C155.236 210.77 154.713 212.028 154.38 213.355C154.019 214.79 153.797 216.26 153.719 217.738C153.667 218.734 153.679 219.732 153.631 220.728C153.541 222.582 153.242 224.418 153.025 226.262C152.866 227.612 153.648 228.437 155.012 228.017C155.998 227.713 156.811 226.823 157.263 225.946C157.937 224.638 158.124 223.145 158.452 221.711C158.608 221.025 159.431 216.867 160.759 217.998C161.879 218.952 163.071 222.193 164.544 224.394C166.017 226.595 166.771 227.988 166.523 231.34C166.275 234.692 164.668 239.167 165.212 242.005C165.756 244.844 167.328 245.446 167.899 244.27C168.47 243.094 170.206 236.258 170.785 233.901C171.363 231.542 171.824 228.123 171.42 223.158Z" fill="#FFA8A7"/>
<path d="M158.451 219.436C164.543 222.119 172.13 223.583 175.453 236.585C178.776 249.587 182.704 297.348 182.704 297.348C182.704 297.348 178.397 303.61 169.407 303.61L169.953 317.237C169.953 317.237 161.049 321.52 147.791 318.172C141.359 316.548 137.397 310.673 137.397 310.673C137.397 310.673 138.914 272.097 139.962 257.368C141.01 242.638 142.355 212.247 158.451 219.436Z" fill="#455A64"/>
<path d="M167.259 251.152C167.259 251.152 168.876 290.136 169.407 303.61C171.022 303.61 172.48 303.402 173.795 303.071L167.259 251.152Z" fill="#37474F"/>
<path d="M153.63 220.728C153.54 222.582 153.241 224.418 153.024 226.262C152.866 227.612 153.647 228.438 155.011 228.017C155.997 227.713 156.81 226.823 157.262 225.946C157.935 224.638 158.123 223.145 158.45 221.711C158.57 221.186 159.082 218.628 159.913 217.967L153.717 217.739C153.666 218.734 153.679 219.732 153.63 220.728ZM159.914 217.966L160.759 217.997C160.448 217.732 160.167 217.764 159.914 217.966Z" fill="#FFA8A7"/>
<path d="M140.643 115.787C150.514 119.846 153.674 123.118 155.548 129.099C157.422 135.08 160.474 150.198 161.459 156.771C162.445 163.344 164.926 169.247 166.308 177.836C167.69 186.425 169.053 198.953 169.053 198.953C169.053 198.953 167.259 201.249 161.862 201.57C156.465 201.891 153.65 199.945 153.65 199.945C153.65 199.945 147.914 182.786 145.743 177.056C143.572 171.326 138.596 157.085 138.596 157.085L140.643 115.787Z" fill="#E6E6E6"/>
<path d="M56.201 354.454L62.79 356.466L63.782 351.721L58.385 352.225L56.201 354.454Z" fill="black"/>
<path d="M58.014 341.168C58.014 341.168 55.25 344.339 54.398 345.352C53.546 346.365 55.506 353.063 56.201 354.454L58.385 352.225C58.601 353.92 58.238 355.58 57.888 358.167C57.597 360.323 56.518 363.995 57.399 367.742C58.708 373.305 63.061 378.968 68.485 383.467C73.91 387.966 78.161 389.055 80.679 389.066C83.197 389.077 84.79 388.048 85.485 386.325C86.18 384.602 58.014 341.168 58.014 341.168Z" fill="#263238"/>
<path d="M81.683 341.307L83.237 339.428C84.289 340.189 82.261 343.08 81.874 346.688C81.353 351.54 81.142 357.957 81.998 362.778C83.687 372.291 86.245 379.417 86.982 383.683C87.97 389.39 78.233 389.758 69.517 382.236C65.191 378.502 58.909 370.047 58.71 365.638C58.511 361.229 60.328 355.998 60.016 352.665C59.703 349.333 57.329 344.391 58.016 341.168C58.394 339.398 61.046 336.628 63.392 334.345C65.545 332.25 67.357 327.717 68.46 329.032L67.666 330.593C67.415 332.041 68.358 335.409 71.53 338.831C73.112 340.539 78.415 344.882 81.683 341.307Z" fill="#455A64"/>
<path opacity="0.15" d="M74.381 341.18C76.236 342.369 78.552 343.235 80.489 342.227C80.512 342.215 80.536 342.213 80.559 342.201C80.559 342.201 78.717 343.657 78.878 346.816C79.039 349.975 78.984 371.337 78.984 371.337C78.984 371.337 77.941 352.879 77.711 349.377C77.371 344.2 76.787 343.176 74.368 341.178C74.372 341.178 74.376 341.179 74.381 341.18Z" fill="black"/>
<path d="M86.981 383.683C86.359 380.08 84.439 374.43 82.839 367.032C82.625 369.323 83.111 371.602 82.863 372.22C82.247 373.755 77.148 372.633 74.403 371.48C71.659 370.327 71.587 365.07 70.499 359.526C69.412 353.983 63.789 355.154 59.46 358.417C59.053 360.789 58.604 363.325 58.709 365.638C58.908 370.047 65.19 378.502 69.516 382.236C78.232 389.758 87.969 389.391 86.981 383.683Z" fill="#37474F"/>
<path opacity="0.15" d="M73.913 346.492C73.644 346.772 73.199 346.78 72.919 346.511C72.639 346.242 72.631 345.797 72.9 345.517C73.169 345.237 73.614 345.229 73.894 345.498C74.174 345.767 74.182 346.212 73.913 346.492Z" fill="black"/>
<path opacity="0.15" d="M74.313 351.533C74.044 351.813 73.599 351.821 73.319 351.552C73.039 351.283 73.031 350.838 73.3 350.558C73.569 350.278 74.014 350.27 74.294 350.539C74.574 350.808 74.583 351.253 74.313 351.533Z" fill="black"/>
<path opacity="0.15" d="M74.715 356.574C74.446 356.854 74.001 356.862 73.721 356.593C73.441 356.324 73.433 355.879 73.702 355.599C73.971 355.319 74.416 355.311 74.696 355.58C74.975 355.849 74.984 356.294 74.715 356.574Z" fill="black"/>
<path opacity="0.15" d="M75.115 361.615C74.846 361.895 74.401 361.903 74.121 361.634C73.841 361.365 73.833 360.92 74.102 360.64C74.371 360.36 74.816 360.352 75.096 360.621C75.376 360.89 75.385 361.335 75.115 361.615Z" fill="black"/>
<path opacity="0.15" d="M75.516 366.655C75.247 366.935 74.802 366.943 74.522 366.674C74.242 366.405 74.234 365.96 74.503 365.68C74.772 365.4 75.217 365.392 75.497 365.661C75.777 365.931 75.785 366.376 75.516 366.655Z" fill="black"/>
<path d="M73.216 346.214C73.167 346.17 73.133 346.108 73.125 346.038C73.106 345.883 73.217 345.742 73.372 345.724C73.569 345.7 78.239 345.178 81.588 348.08C81.588 348.08 81.591 348.082 81.592 348.084C81.706 348.187 81.717 348.363 81.616 348.479C81.514 348.597 81.335 348.61 81.217 348.507C78.055 345.769 73.485 346.28 73.439 346.286C73.355 346.295 73.275 346.267 73.216 346.214Z" fill="#263238"/>
<path d="M73.627 351.246C73.578 351.202 73.544 351.14 73.536 351.07C73.517 350.915 73.628 350.774 73.783 350.756C73.981 350.732 78.649 350.209 81.999 353.112L82.003 353.115C82.117 353.218 82.128 353.394 82.027 353.511C81.925 353.629 81.747 353.641 81.628 353.539C78.472 350.805 73.896 351.312 73.85 351.318C73.765 351.327 73.685 351.298 73.627 351.246Z" fill="#263238"/>
<path d="M74.018 356.296C73.969 356.251 73.935 356.19 73.927 356.12C73.908 355.964 74.019 355.824 74.174 355.806C74.372 355.782 79.04 355.26 82.39 358.162C82.39 358.162 82.392 358.164 82.394 358.166C82.508 358.269 82.519 358.445 82.418 358.561C82.316 358.679 82.137 358.692 82.019 358.589C78.863 355.855 74.287 356.362 74.242 356.368C74.157 356.377 74.077 356.349 74.018 356.296Z" fill="#263238"/>
<path d="M74.419 361.337C74.37 361.293 74.336 361.231 74.328 361.161C74.309 361.006 74.419 360.865 74.575 360.847C74.773 360.823 79.442 360.3 82.792 363.202C82.792 363.202 82.794 363.204 82.796 363.206C82.91 363.309 82.921 363.485 82.82 363.601C82.718 363.719 82.539 363.732 82.421 363.629C79.265 360.895 74.688 361.403 74.643 361.408C74.558 361.418 74.477 361.389 74.419 361.337Z" fill="#263238"/>
<path d="M74.821 366.378C74.772 366.334 74.738 366.272 74.73 366.202C74.711 366.046 74.822 365.905 74.977 365.888C75.174 365.864 79.843 365.341 83.193 368.243C83.193 368.243 83.195 368.245 83.197 368.247C83.311 368.35 83.322 368.526 83.221 368.643C83.119 368.761 82.941 368.774 82.822 368.671C79.666 365.937 75.09 366.444 75.044 366.449C74.959 366.458 74.879 366.43 74.821 366.378Z" fill="#263238"/>
<path d="M148.761 195.486C148.761 195.486 149.484 207.98 148.859 233.951C148.336 255.682 150.744 266.963 142.022 280.791C134.234 293.137 85.608 340.317 82.096 344.597C82.096 344.597 66.713 346.004 65.956 330.228C65.956 330.228 80.288 304.641 87.051 290.128C93.814 275.615 103.048 268.662 103.048 268.662L90.424 205.4L148.761 195.486Z" fill="#263238"/>
<path d="M95.792 204.487L90.455 205.394L90.469 205.623L102.643 266.632L103.048 268.161C103.048 268.161 103.013 268.173 102.954 268.195L103.047 268.662C103.047 268.662 96.476 273.633 90.36 283.895C92.494 289.377 96.735 298.971 96.735 298.971C97.115 300.461 92.816 306.562 95.269 324.924C95.445 326.241 95.769 328.164 96.143 330.225C107.08 319.2 121.959 304.151 132.009 293.011C132.503 290.143 133.964 280.686 133.131 273.468C132.294 266.22 129.022 230.82 129.022 230.82C129.022 230.82 132.853 228.752 137.097 223.392C140.179 219.5 140.869 215.212 140.869 215.212C140.869 215.212 143.87 206.821 145.041 200.719L95.792 204.487Z" fill="black"/>
<path d="M114.98 406.305L121.528 404.159L119.609 399.707L115.484 403.225L114.98 406.305Z" fill="black"/>
<path d="M108.82 394.395C108.82 394.395 108.383 398.578 108.269 399.898C108.155 401.217 113.612 405.567 114.981 406.306L115.485 403.226C116.637 404.488 117.295 406.055 118.497 408.372C119.499 410.303 120.729 413.927 123.606 416.485C127.877 420.282 134.696 422.409 141.721 422.968C148.746 423.527 152.85 421.971 154.916 420.532C156.982 419.093 157.693 417.335 157.27 415.525C156.847 413.715 108.82 394.395 108.82 394.395Z" fill="#263238"/>
<path d="M128.258 380.891L128.448 378.46C129.747 378.477 129.751 382.008 131.511 385.182C133.876 389.45 137.396 394.82 140.87 398.271C147.725 405.08 153.917 409.436 156.974 412.502C161.066 416.601 153.313 422.505 141.856 421.367C136.17 420.802 126.167 417.501 123.467 414.009C120.767 410.518 119.244 405.193 117.071 402.647C114.898 400.102 110.112 397.426 108.821 394.394C108.111 392.728 108.686 388.937 109.292 385.72C109.848 382.768 108.722 378.018 110.38 378.459L110.628 380.192C111.257 381.521 113.965 383.733 118.528 384.707C120.806 385.194 127.643 385.694 128.258 380.891Z" fill="#455A64"/>
<path opacity="0.15" d="M122.212 384.988C124.414 384.893 126.806 384.268 127.81 382.33C127.822 382.307 127.841 382.292 127.852 382.268C127.852 382.268 127.183 384.518 129.133 387.01C131.083 389.501 143.328 407.004 143.328 407.004C143.328 407.004 131.855 392.507 129.652 389.775C126.395 385.736 125.328 385.235 122.2 384.992C122.205 384.991 122.208 384.99 122.212 384.988Z" fill="black"/>
<path d="M156.973 412.502C154.391 409.913 149.57 406.397 144.005 401.266C145.148 403.263 146.857 404.847 147.01 405.495C147.389 407.105 142.573 409.121 139.665 409.757C136.757 410.393 133.674 406.134 129.594 402.226C125.516 398.318 121.59 402.511 119.927 407.671C120.959 409.845 122.051 412.178 123.467 414.009C126.167 417.501 136.17 420.802 141.856 421.367C153.313 422.505 161.065 416.602 156.973 412.502Z" fill="#37474F"/>
<path opacity="0.15" d="M124.886 389.602C124.827 389.986 124.468 390.249 124.084 390.189C123.7 390.13 123.437 389.771 123.497 389.387C123.556 389.003 123.915 388.74 124.299 388.799C124.683 388.859 124.945 389.218 124.886 389.602Z" fill="black"/>
<path opacity="0.15" d="M128.114 393.495C128.055 393.878 127.696 394.142 127.312 394.082C126.929 394.023 126.666 393.664 126.725 393.28C126.784 392.896 127.143 392.633 127.527 392.692C127.911 392.751 128.174 393.111 128.114 393.495Z" fill="black"/>
<path opacity="0.15" d="M131.342 397.387C131.283 397.771 130.924 398.034 130.54 397.974C130.157 397.915 129.894 397.556 129.953 397.172C130.012 396.788 130.371 396.525 130.755 396.585C131.139 396.644 131.402 397.003 131.342 397.387Z" fill="black"/>
<path opacity="0.15" d="M134.571 401.279C134.512 401.663 134.153 401.925 133.769 401.866C133.385 401.807 133.122 401.448 133.182 401.064C133.241 400.68 133.6 400.417 133.984 400.477C134.367 400.536 134.63 400.895 134.571 401.279Z" fill="black"/>
<path opacity="0.15" d="M137.799 405.171C137.74 405.555 137.381 405.818 136.997 405.758C136.613 405.699 136.35 405.34 136.41 404.956C136.469 404.572 136.828 404.309 137.212 404.369C137.595 404.429 137.858 404.788 137.799 405.171Z" fill="black"/>
<path d="M124.157 389.776C124.091 389.768 124.028 389.737 123.982 389.684C123.877 389.568 123.887 389.388 124.003 389.285C124.151 389.152 127.669 386.038 132.078 386.485C132.078 386.485 132.081 386.485 132.083 386.485C132.235 386.504 132.345 386.641 132.33 386.795C132.314 386.95 132.176 387.063 132.02 387.047C127.859 386.627 124.414 389.675 124.381 389.705C124.317 389.762 124.235 389.785 124.157 389.776Z" fill="#263238"/>
<path d="M127.387 393.655C127.321 393.647 127.258 393.616 127.211 393.563C127.106 393.447 127.116 393.268 127.232 393.164C127.38 393.031 130.898 389.917 135.308 390.364C135.308 390.364 135.311 390.364 135.313 390.364C135.465 390.383 135.575 390.52 135.56 390.674C135.545 390.829 135.406 390.942 135.25 390.926C131.095 390.505 127.645 393.554 127.611 393.584C127.547 393.641 127.465 393.665 127.387 393.655Z" fill="#263238"/>
<path d="M130.613 397.56C130.547 397.552 130.484 397.521 130.437 397.468C130.332 397.352 130.342 397.172 130.458 397.069C130.606 396.936 134.124 393.822 138.534 394.269C138.534 394.269 138.537 394.269 138.539 394.27C138.691 394.289 138.802 394.426 138.786 394.58C138.77 394.735 138.632 394.849 138.476 394.833C134.322 394.412 130.871 397.461 130.837 397.491C130.773 397.546 130.691 397.57 130.613 397.56Z" fill="#263238"/>
<path d="M133.841 401.453C133.775 401.445 133.712 401.414 133.665 401.361C133.56 401.245 133.57 401.067 133.686 400.962C133.834 400.829 137.352 397.714 141.762 398.16C141.762 398.16 141.765 398.16 141.767 398.161C141.919 398.18 142.03 398.317 142.014 398.471C141.998 398.626 141.86 398.739 141.704 398.724C137.549 398.304 134.098 401.353 134.065 401.383C134.001 401.439 133.919 401.462 133.841 401.453Z" fill="#263238"/>
<path d="M137.07 405.344C137.004 405.336 136.941 405.305 136.894 405.252C136.789 405.136 136.799 404.957 136.915 404.853C137.063 404.72 140.581 401.606 144.991 402.052C144.991 402.052 144.994 402.052 144.996 402.053C145.148 402.072 145.258 402.209 145.243 402.363C145.227 402.518 145.089 402.631 144.933 402.615C140.779 402.195 137.327 405.242 137.294 405.273C137.23 405.331 137.148 405.354 137.07 405.344Z" fill="#263238"/>
<path d="M78.753 191.455C78.753 191.455 78.402 207.427 78.47 214.637C78.609 229.378 81.442 235.451 85.114 247.848C88.095 257.911 100.183 294.811 101.104 298.42C99.821 306.223 98.466 313.123 101.078 330.153C104.847 354.725 109.127 383.916 109.127 383.916C111.377 387.042 126.717 388.173 131.179 383.649C131.179 383.649 132.5 305.007 132.022 288.936C131.607 274.97 125.091 229.169 125.091 229.169C125.091 229.169 145.992 220.378 147.792 195.79L78.753 191.455Z" fill="#263238"/>
<path d="M108.021 219.733C94.864 219.733 86.027 216.946 78.527 210.423C78.595 195.642 78.833 177.033 79.006 163.427L79.068 158.587C79.204 147.741 79.379 140.599 80.652 132.879C81.572 127.299 83.775 120.145 86.959 118.346C90.75 116.205 93.305 114.901 99.321 112.368C101.82 111.317 103.431 110.299 104.993 108.775C107.389 108.956 128.399 110.682 140.436 116.238C143.147 117.489 151.62 128.552 150.611 143.882C148.153 181.222 148.989 203.038 149.06 204.721C148.049 207.279 140.276 217.206 120.905 219.045C116.034 219.508 111.819 219.733 108.021 219.733Z" fill="#FAFAFA"/>
<path d="M105.175 109.289C108.405 109.543 128.575 111.312 140.226 116.69C142.865 117.908 151.107 128.756 150.113 143.85C147.701 180.499 148.459 202.214 148.557 204.626C148.145 205.517 146.311 208.384 142.094 211.375C138.262 214.093 131.467 217.544 120.857 218.551C116.002 219.012 111.804 219.236 108.021 219.236C95.095 219.236 86.39 216.529 79.025 210.197C79.094 195.467 79.33 176.994 79.502 163.469L79.564 158.594C79.7 147.77 79.875 140.644 81.141 132.96C82.114 127.056 84.366 120.382 87.202 118.78C90.975 116.649 93.519 115.351 99.513 112.828C101.954 111.8 103.629 110.758 105.175 109.289ZM104.802 108.263C103.27 109.795 101.684 110.834 99.127 111.91C92.953 114.509 90.398 115.831 86.713 117.913C83.203 119.896 81.012 127.633 80.16 132.798C78.882 140.552 78.707 147.632 78.569 158.581C78.389 172.827 78.102 194.037 78.028 210.649C85.702 217.4 94.588 220.231 108.021 220.231C111.921 220.231 116.204 219.992 120.951 219.542C141.431 217.598 148.851 206.786 149.56 204.803C149.56 204.803 148.531 183.037 151.106 143.916C152.128 128.389 143.527 117.119 140.643 115.787C127.697 109.811 104.802 108.263 104.802 108.263Z" fill="#E0E0E0"/>
<path d="M105.249 64.223C99.043 71.242 101.051 79.475 103.287 87.758C105.892 97.185 106.049 100.237 111.467 102.599C110.246 72.992 119.705 109.266 143.441 86.25C147.732 82.089 148.004 69.213 142.799 63.37C135.443 55.113 117.385 50.986 105.249 64.223Z" fill="#37474F"/>
<path d="M103.956 97.061C108.282 98.86 110.242 95.886 110.242 95.886L106.421 106.888C106.421 106.888 104.011 113.706 109.562 117.042C124.94 126.284 121.456 130.166 126.658 134.656C128.425 132.453 128.195 122.554 128.468 119.945L131.844 109.35C131.844 109.35 134.637 109.468 137.103 109.113C141.217 108.532 143.552 105.602 144.847 101.176C146.924 94.059 146.608 83.322 144.06 69.41C139.514 65.778 124.426 65.005 114.679 70.984C115.027 79.161 112.811 80.488 112.811 84.009C112.811 87.963 112.539 88.868 111.334 89.401C110.13 89.934 109.045 88.083 108.555 86.92C107.732 84.965 107.026 83.706 105.095 83.217C103.112 82.713 101.013 83.053 99.244 85.654C96.501 89.684 100.816 95.755 103.956 97.061Z" fill="#FFA8A7"/>
<path d="M131.843 109.349C126.969 109.109 120.13 106.551 117.371 103.971C114.611 101.391 112.811 96.3669 112.811 96.3669C112.811 96.3669 112.735 101.331 116.334 105.71C119.934 110.09 130.816 112.558 130.816 112.558L131.843 109.349Z" fill="#F28F8F"/>
<path d="M129.248 73.312C129.116 73.321 128.957 73.388 128.954 73.52C128.951 73.668 129.081 73.695 129.184 73.75C129.353 73.84 129.513 73.957 129.664 74.074C129.815 74.192 129.962 74.324 130.05 74.495C130.113 74.617 130.143 74.753 130.166 74.889C130.206 75.121 130.211 75.342 130.217 75.573C130.222 75.763 130.379 75.885 130.563 75.733C130.632 75.676 130.676 75.593 130.71 75.51C130.817 75.25 130.864 74.98 130.837 74.711C130.822 74.562 130.784 74.413 130.72 74.267C130.482 73.726 129.856 73.271 129.248 73.312ZM136.694 73.612C136.78 73.301 136.451 72.988 136.145 73.096C135.625 73.28 135.284 73.831 135.119 74.334C134.884 75.053 134.935 75.945 135.523 76.484C135.609 76.562 135.739 76.634 135.834 76.567C136.064 76.405 135.882 75.585 135.895 75.356C135.914 75.014 136.018 74.678 136.192 74.384C136.344 74.126 136.613 73.906 136.694 73.612ZM132.636 71.863C132.552 71.808 132.475 71.835 132.44 71.929C132.366 72.13 132.458 72.282 132.545 72.455C132.641 72.647 132.72 72.848 132.784 73.053C132.91 73.457 132.975 73.879 132.99 74.302C133.004 74.7 132.974 75.098 132.912 75.491C132.854 75.861 132.739 76.22 132.682 76.589C132.676 76.626 132.699 76.733 132.756 76.685C133.416 76.132 133.569 75.254 133.556 74.436C133.549 73.982 133.485 73.517 133.349 73.084C133.217 72.658 133.024 72.116 132.636 71.863Z" fill="#F28F8F"/>
<path d="M123.87 76.752L128.27 75.059C128.711 76.317 128.084 77.716 126.869 78.183C125.654 78.651 124.311 78.01 123.87 76.752Z" fill="#37474F"/>
<path d="M137.847 74.392L142.11 76.49C141.57 77.699 140.179 78.209 139.002 77.629C137.825 77.049 137.307 75.6 137.847 74.392Z" fill="#37474F"/>
<path d="M128.265 81.2899C127.856 80.3009 127.26 81.7049 126.074 82.1949C124.887 82.6859 123.558 82.0779 123.967 83.0669C124.376 84.0559 125.67 84.4599 126.857 83.9689C128.044 83.4789 128.674 82.2789 128.265 81.2899Z" fill="#263238"/>
<path d="M142.143 82.2659C142.386 81.2239 141.085 82.0189 139.834 81.7279C138.583 81.4369 137.856 80.1689 137.613 81.2119C137.37 82.2539 138.188 83.3349 139.439 83.6269C140.69 83.9169 141.9 83.3079 142.143 82.2659Z" fill="#263238"/>
<path d="M131.675 78.8989L133.461 91.8889L139.937 90.3909C138.512 86.6339 134.489 80.6249 131.675 78.8989Z" fill="#F28F8F"/>
<path d="M128.706 94.929C128.406 95.122 128.149 95.367 127.968 95.669C127.402 96.612 128.208 97.086 129.067 97.167C130.012 97.256 130.939 97.524 131.786 97.952C132.194 98.158 132.571 98.41 133.045 98.351C133.304 98.319 133.623 98.141 133.763 97.92C133.9 97.705 133.931 97.37 133.895 97.118C133.751 96.112 133.034 95.024 131.896 94.604C130.848 94.216 129.649 94.322 128.706 94.929Z" fill="#B16668"/>
<path d="M131.786 97.952C131.997 98.058 132.199 98.175 132.411 98.257C131.985 96.465 130.388 95.129 128.468 95.119C128.274 95.278 128.097 95.454 127.968 95.669C127.402 96.612 128.208 97.086 129.067 97.167C130.011 97.256 130.939 97.524 131.786 97.952Z" fill="#F28F8F"/>
<path d="M124.862 141.089C120.167 137.835 111.389 130.644 104.106 109.304L101.227 111.28C101.227 111.28 105.846 133.208 124.163 144.354L124.862 141.089Z" fill="#2A2877"/>
<path d="M129.341 140.671C130.693 138.832 133.801 126.297 130.691 112.837L133.237 115.288C135.862 128.442 133.018 140.679 130.571 144.353L129.341 140.671Z" fill="#2A2877"/>
<path d="M129.133 147.47C129.133 147.47 134.637 186.191 134.86 189.986C135.083 193.781 129.114 203.044 128.302 203.503C127.491 203.962 122.139 194.988 122.071 191.972C122.003 188.956 125.938 147.43 125.938 147.43L129.133 147.47Z" fill="#2A2877"/>
<path d="M129.341 140.671C129.341 140.671 127.026 140.171 124.862 141.089C124.017 142.596 123.723 144.937 124.377 146.038C125.031 147.139 126.284 148.843 127.803 148.771C129.322 148.699 130.603 146.763 130.795 144.916C131.004 142.916 129.341 140.671 129.341 140.671Z" fill="#2A2877"/>
<path opacity="0.2" d="M129.341 140.671C129.341 140.671 127.026 140.171 124.862 141.089C124.017 142.596 123.723 144.937 124.377 146.038C125.031 147.139 126.284 148.843 127.803 148.771C129.322 148.699 130.603 146.763 130.795 144.916C131.004 142.916 129.341 140.671 129.341 140.671Z" fill="white"/>
<path d="M126.593 134.656C123.903 131.592 122.964 122.356 120.972 120.809C118.98 119.262 107.425 112.201 106.344 107.133L107.617 103.443C106.235 102.812 104.376 107.223 99.127 111.911C99.127 111.911 98.485 117.266 102.497 123.359C107.23 130.547 111.378 132.958 111.378 132.958C111.378 132.958 117.162 125.496 118.107 125.206C119.053 124.915 123.374 133.56 126.593 134.656Z" fill="#F0F0F0"/>
<path d="M126.593 134.656C128.035 132.143 127.799 121.781 128.207 120.414C129.068 117.531 131.602 110.078 131.602 110.078C131.602 110.078 132.267 110.585 132.741 111.199C137.516 117.383 137.371 126.306 136.062 129.047C134.679 126.118 131.398 122.344 130.814 123.099C130.23 123.852 129.064 133.432 126.593 134.656Z" fill="#F0F0F0"/>
<path d="M108.731 261.197L111.07 308.837C111.183 311.147 109.616 312.561 107.676 313.835L102.807 316.977C101.463 317.846 100.705 318.154 98.932 317.938C98.156 317.851 96.834 317.287 96.203 316.974C96.161 316.966 96.129 316.946 96.097 316.927L95.819 316.784L43.16 289.734C39.312 287.757 36.811 283.879 36.599 279.558L34.467 236.178C34.418 235.19 35.056 233.949 35.895 233.407L44.203 228.056C45.031 227.515 46.426 227.446 47.303 227.904L107.038 258.589C107.487 258.807 107.893 259.225 108.197 259.69C108.503 260.166 108.707 260.708 108.731 261.197Z" fill="#37474F"/>
<path d="M108.731 261.197L111.07 308.837C111.183 311.147 109.616 312.561 107.676 313.835L102.807 316.977C101.463 317.846 100.705 318.154 98.932 317.938C98.156 317.851 96.834 317.287 96.203 316.974L96.202 316.953C98.245 317.791 99.765 316.674 99.649 314.312L97.445 269.425C97.408 268.676 97.107 267.857 96.644 267.139L108.197 259.689C108.503 260.166 108.707 260.708 108.731 261.197Z" fill="#263238"/>
<path d="M97.448 269.426C97.375 267.933 96.227 266.153 94.897 265.47L38.439 236.469C36.207 235.323 34.482 236.435 34.605 238.941L36.595 279.555C36.807 283.876 39.308 287.756 43.156 289.733L95.818 316.786C98.05 317.932 99.775 316.82 99.652 314.314L97.448 269.426Z" fill="#455A64"/>
<path d="M41.511 229.792L101.367 260.864C103.081 261.754 104.205 263.504 104.299 265.432L106.707 314.462L105.845 315.018L103.412 265.475C103.333 263.861 102.392 262.397 100.957 261.651L40.651 230.346L41.511 229.792Z" fill="#2A2877"/>
<path opacity="0.2" d="M103.44 262.758C103.947 263.548 104.252 264.467 104.299 265.431L106.707 314.461L105.845 315.017L103.412 265.474C103.372 264.668 103.118 263.899 102.695 263.238L103.44 262.758Z" fill="black"/>
<path opacity="0.2" d="M102.695 263.239C102.271 262.577 101.676 262.024 100.958 261.651L40.652 230.346L41.512 229.792L101.368 260.864C102.225 261.309 102.934 261.969 103.441 262.759" fill="black"/>
<path d="M62.479 234.865L62.841 242.242L60.038 244.05L59.557 234.254C59.532 233.747 59.874 233.529 60.324 233.759L62.479 234.865Z" fill="#2A2877"/>
<path opacity="0.4" d="M62.479 234.865L62.841 242.242L60.038 244.05L59.557 234.254C59.532 233.747 59.874 233.529 60.324 233.759L62.479 234.865Z" fill="black"/>
<path d="M83.112 241.159L83.698 253.102L81.023 254.831L79.116 253.849L78.635 244.052C78.61 243.55 78.223 242.951 77.777 242.721L63.326 235.3L60.325 233.758C59.874 233.528 59.533 233.746 59.558 234.253L60.039 244.049L58.127 243.067L57.54 231.13C57.538 231.08 57.539 231.025 57.546 230.974C57.582 230.501 57.886 229.964 58.268 229.721L59.408 228.983C59.83 228.71 60.538 228.676 60.988 228.906L82.255 239.829C82.706 240.062 83.087 240.657 83.112 241.159Z" fill="#2A2877"/>
<path opacity="0.2" d="M80.437 242.889L81.024 254.832L79.117 253.85L78.636 244.053C78.611 243.551 78.224 242.952 77.778 242.722L63.326 235.3L60.325 233.758C59.874 233.528 59.533 233.746 59.558 234.253L60.039 244.049L58.127 243.067L57.54 231.13C57.538 231.08 57.539 231.025 57.546 230.974C57.596 230.583 57.913 230.43 58.312 230.635L79.578 241.558C80.025 241.791 80.412 242.386 80.437 242.889Z" fill="black"/>
<path d="M70.417 233.739L79.478 238.395C79.365 236.98 78.919 235.11 78.275 234.443C77.331 233.466 73.229 229.439 71.935 229.846C71.314 230.039 70.724 231.74 70.417 233.739Z" fill="#F28F8F"/>
<path d="M70.416 238.949C70.5 239.262 70.591 239.532 70.705 239.773C71.937 242.358 74.562 244.279 74.562 244.279C75.626 244.066 76.636 243.36 77.458 242.559L70.416 238.949Z" fill="#F28F8F"/>
<path d="M84.366 122.254C77.79 125.141 73.017 130.185 69.62 140.918C66.266 151.514 62.06 164.393 60.396 175.56C58.732 186.727 57.287 210.06 56.883 217.289C56.714 220.302 56.416 223.058 56.652 226.063C56.782 227.713 57.309 232.14 58.236 235.892C58.609 237.402 59.388 238.841 60.929 239.402C61.318 239.544 61.735 239.625 62.088 239.841C62.761 240.254 63.065 241.067 63.623 241.626C64.262 242.268 65.2 242.532 66.105 242.564C66.511 242.579 66.921 242.552 67.323 242.611C68.814 242.829 69.905 244.149 71.333 244.63C72.538 245.036 73.471 245.157 74.627 244.705C75.047 244.541 75.825 244.008 76.189 243.741C76.464 243.54 77.192 242.813 77.425 242.596C75.402 242.777 73.949 241.123 73.189 239.566C72.341 237.83 71.828 235.684 71.776 233.746C71.763 233.273 71.778 232.785 71.974 232.354C72.071 232.14 72.248 231.926 72.483 231.926C72.741 231.926 72.917 232.176 73.048 232.398C73.955 233.941 74.831 235.445 76.255 236.581C76.827 237.037 77.505 237.433 78.236 237.413C78.967 237.393 79.718 236.81 79.686 236.079C79.673 235.788 79.544 235.516 79.421 235.251C78.43 233.132 77.633 230.923 77.043 228.659C76.49 226.538 75.954 224.494 74.876 222.555C73.761 220.55 71.162 217.84 71.44 215.52C71.908 211.609 79.132 181.099 79.132 181.099C79.132 181.099 87.85 154.399 89.94 147.337C92.518 138.613 90.694 127.35 84.366 122.254Z" fill="#FFA8A7"/>
<path d="M86.713 117.913C76.195 123.266 73.643 127.498 70.757 135.469C68.175 142.599 62.42 162.151 60.984 169.112C58.418 181.557 56.985 205.365 56.985 205.365C56.985 205.365 58.225 208.792 64.448 210.291C70.67 211.79 73.175 209.884 73.175 209.884L80.158 179.643C80.158 179.643 90.974 154.539 91.885 150.999C93.711 143.894 95.219 122.7 86.713 117.913Z" fill="#E6E6E6"/>
<path d="M166.791 97.925C167.045 98.598 167.182 99.306 167.481 99.964C167.767 100.594 168.168 101.179 168.635 101.688C169.605 102.745 170.931 103.449 172.366 103.577C175.441 103.85 178.851 101.292 178.148 97.961C178.076 97.622 178.371 97.376 178.686 97.344C180.728 97.142 181.8 95.119 181.785 93.239C181.768 91.124 180.61 89.293 178.443 88.943C178.015 88.874 177.581 88.849 177.148 88.869C176.737 88.888 176.307 89.017 175.899 88.982C175.096 88.913 175.017 87.898 174.681 87.334C173.76 85.791 172.015 84.922 170.228 85.216C169.158 85.391 168.166 85.985 167.51 86.848C166.854 87.711 166.6 88.753 166.452 89.807C166.434 89.933 166.145 90.283 166.067 90.011C165.509 88.065 166.8 85.872 168.49 84.933C170.434 83.854 172.881 84.041 174.574 85.504C174.943 85.822 175.272 86.199 175.541 86.604C175.689 86.827 175.812 87.06 175.922 87.304C175.978 87.43 176.103 87.989 176.198 88.048C176.26 88.087 176.698 87.995 176.78 87.989C177.033 87.969 177.288 87.96 177.542 87.961C178.12 87.962 178.69 88.016 179.252 88.156C181.558 88.731 182.794 90.745 182.857 93.048C182.921 95.371 181.529 97.585 179.265 98.132C179.686 101.806 176.044 104.586 172.557 104.503C170.821 104.462 169.192 103.729 167.968 102.505C166.911 101.448 165.731 99.651 166.025 98.088C166.085 97.771 166.653 97.561 166.791 97.925Z" fill="#455A64"/>
<path d="M154.272 93.011C155.792 92.406 157.554 92.307 159.16 92.043C159.873 91.926 160.586 91.813 161.3 91.701C162.042 91.584 162.811 91.416 163.565 91.434C163.916 91.442 163.72 91.91 163.509 91.991C162.745 92.283 161.914 92.406 161.113 92.557C160.356 92.699 159.598 92.832 158.839 92.958C158.115 93.079 157.392 93.199 156.667 93.311C155.886 93.432 155.019 93.584 154.229 93.486C153.99 93.458 154.118 93.073 154.272 93.011Z" fill="#455A64"/>
<path d="M155.565 97.578C155.845 97.46 156.139 97.451 156.438 97.405C156.776 97.353 157.106 97.317 157.448 97.293C158.032 97.251 158.617 97.223 159.203 97.196C159.788 97.168 160.374 97.139 160.96 97.132C161.629 97.124 162.398 97.024 163.055 97.179C163.376 97.255 163.076 97.725 162.884 97.77C162.321 97.901 161.712 97.885 161.137 97.92C160.531 97.957 159.924 97.987 159.318 98.021C158.717 98.054 158.117 98.095 157.517 98.133C157.237 98.151 156.957 98.175 156.677 98.182C156.333 98.191 155.813 98.239 155.469 98.141C155.194 98.062 155.39 97.651 155.565 97.578Z" fill="#455A64"/>
</svg>
